/* XPM */
static char *result[] = {
/* columns rows colors chars-per-pixel */
"40 40 134 2 ",
"   c #272108",
".  c #2B2909",
"X  c #2D410B",
"o  c #295F06",
"O  c #317706",
"+  c #337B06",
"@  c #337A09",
"#  c #3E7E09",
"$  c #FC2A06",
"%  c #F72009",
"&  c #F53D05",
"*  c #9E7D08",
"=  c #926E10",
"-  c #BC7207",
";  c #B17A08",
":  c #BB7B09",
">  c #D74A0E",
",  c #C85B10",
"<  c #CF5718",
"1  c #F74304",
"2  c #F94903",
"3  c #FD5F06",
"4  c #DC640D",
"5  c #D66C0B",
"6  c #DE6F08",
"7  c #CE7209",
"8  c #D5740A",
"9  c #DE750C",
"0  c #DC7A0D",
"q  c #EC650B",
"w  c #E56B0A",
"e  c #EB6B0A",
"r  c #F56307",
"t  c #FC6C06",
"y  c #FC6309",
"u  c #F26E09",
"i  c #FD6C0A",
"p  c #E7710B",
"a  c #EC720D",
"s  c #E77A0E",
"d  c #FC730D",
"f  c #F9790D",
"g  c #EB7F14",
"h  c #E0771D",
"j  c #F77F12",
"k  c #FA7D11",
"l  c #CF6225",
"z  c #3B8D07",
"x  c #249706",
"c  c #2C9606",
"v  c #279A06",
"b  c #2D9D07",
"n  c #269308",
"m  c #2E9209",
"M  c #2E9C08",
"N  c #3C9207",
"B  c #309D06",
"V  c #3B9B07",
"C  c #329E08",
"Z  c #3A9B08",
"A  c #2FA006",
"S  c #2EA008",
"D  c #33A107",
"F  c #34A108",
"G  c #38A309",
"H  c #438207",
"J  c #4A9107",
"K  c #429E07",
"L  c #47940A",
"P  c #419D09",
"I  c #47A207",
"U  c #90880A",
"Y  c #A08309",
"T  c #AB800A",
"R  c #DC8910",
"E  c #F49508",
"W  c #EB8D1C",
"Q  c #FB8314",
"!  c #F58816",
"~  c #FA8916",
"^  c #FF871A",
"/  c #F98C1A",
"(  c #EE901E",
")  c #FD9715",
"_  c #F7911B",
"`  c #FB931D",
"'  c #FA991F",
"]  c #FBA51C",
"[  c #D6852A",
"{  c #DC802C",
"}  c #C28833",
"|  c #C89236",
" . c #FC9621",
".. c #F49D23",
"X. c #FD9A21",
"o. c #F6932A",
"O. c #E89C30",
"+. c #FE9C34",
"@. c #DFA132",
"#. c #D7AD39",
"$. c #D6BC3C",
"%. c #FAA121",
"&. c #FBAB27",
"*. c #F0AA29",
"=. c #FCAB29",
"-. c #F7B22A",
";. c #FBB42A",
":. c #E4A938",
">. c #F2B534",
",. c #FFBD35",
"<. c #E7D608",
"1. c #DCC43C",
"2. c #DFC83B",
"3. c #E1C23C",
"4. c #FCC635",
"5. c #FCCA36",
"6. c #F2C53B",
"7. c #FAC73A",
"8. c #FCCA39",
"9. c #EDD33C",
"0. c #FED33E",
"q. c #F3DB3E",
"w. c #FBE63F",
"e. c #F4EA3F",
"r. c #FDEC3E",
"t. c #FAF43F",
"y. c #D3AB44",
"u. c #D8A34E",
"i. c #D9BA43",
"p. c #D4A355",
"a. c #FBC243",
"s. c #FFDC53",
"d. c #FAF440",
"f. c #F9F0C9",
/* pixels */
"C C b b b b b b D D D B B D C b b b M v b D G M C M C v D A B B D D C C B B M b ",
"M M B b A b A C M C b C D b M c B B B b b Z C B C M D b A b b b b B b C D B B b ",
"A A b C C b D B M M D D B B M M B G D b b C D B D D b b C D b b b C B D C D D D ",
"A D C b b D D B b C C A b M M A D D B b C G D D C C B D D D B D A D b M b B B D ",
"C C B B C C M C C b D A b b D A b B B B C C D D C C C C G C B C B b M b C b b b ",
"b b B M b C c M C b b D b A F G C G M b b B G D B C C C C D M C C b b M b C b D ",
"v b A b b D b D b M B M D C M M C V b b C B D B B C D C B D b C D b C D C C C b ",
"b D C D C B D B C D G b M b b b b B D b b C b C B C B C v M C C D b B b D B b C ",
"b b C A D D B b b b C b b b B B C D b C b b b M M M M C b B C b b B B A A b D B ",
"b b B b D B B G G B b B b b M b B D C M C C C D C M b B D D b b B b b D A D C C ",
"b v C A C G D D G C b B C M b B C b b v D D D F C b C M C C B M b b b b A b D C ",
"b b b b b C C B G D B B C b b C c V B V K V b b B b D C b B D M b b B B v b C G ",
"v v D v b B b B B C C D D G M n # 6 q w p : V M b D C b B C B M b b D D D v B C ",
"M D B b D D B b C B B b b G c X 3.+.% y d p K M b b v b b D M B b B b B D C C B ",
"A B B D D D G D v B B B b C z 9 s.f.o.f ] a N b C b b b b C M b b D B D G G C C ",
"B B D b B b B B b B D B b v + *.,.7.&.E ) q . c C B D D b b C b v D D B C C C B ",
"C D b b B v v b M Z B B b x O W  .' Q %.j i 4 o b B G b b C D b b b b v B C B M ",
"M C M M M M M b A D G M M x O ! ^  . .X.k i q   n M D M M B D D b b b M B M C C ",
"C D M S M A B Z D D B C b x + p d / ` ` X.f d 4 H B C B Z B M G D b b b B B B M ",
"C C D S D B B D B S b C b x + e i ' ~ =.=.k d i 5 V b Z M M B b C C b b M M B B ",
"M b B B S b C D M D b C D A N e 3 k ;.8.&.f d t , B b D M A b M b b B C b D D C ",
"M B b B Z G D D G A b b D b J p i _ 8.a.5.;./ a <.I b C C A b b C C b C D C C b ",
"B B b B C Z G C b b D b D K p f Q O.u.6.r.w.:.l u : Z A b b b D C C C C G C D A ",
"B b B b b D D C M b b b b G w $ / >.p.i.t.t.y.{ t p V b D M M D b C b D C b b B ",
"b D B B b D C B B b b C b V 7 2 / 4.w.d.d.t.9.' d 9 P B Z B M M b b C D C C M v ",
"b b B D C B b b B b b B D V * & ~ >.9.2.$.1.} h r 8 V b G B D B C M C D C b C b ",
"B b D b b B B B b D b b D D L s f W @.#.2.| [ < > = C M M B G c b B D b b b C M ",
"b B b B b b C b B b b b b D Z - 1 d ! ..-...Q y w L v C D D D b b C b b D B B b ",
"V B B B D D b b D b b v b G Z ; r y i d Q d y u Y G v b M S B M D A b b b M b C ",
"b D B B B C B B b b b C C C C P ; 7 8 0 R 0 8 U K D D b M M M D b D b b B M b b ",
"b D B b M B b b D D B C B B D D Z Z V P Z Z V C G C D C b C G b B b C M C C b b ",
"D b M C b C b M B D B b b b B b b S M b b b b C b C D D b b M M B B B C C M b G ",
"D C v D B b b B b C D B b B B M C B b b D M B C C C C C B b b D b v b C Z D C G ",
"D b v C b b b b b b B B C M b b b D C D C b C D C b D B M b M D D A B B G D D b ",
"b D b D B B D B b b B D B b b B b b B B C D b b b b b b b D D b D D D A D b C b ",
"v B b C b b b b v b B C M D C B b b B D D C b b b b b b v b D M C A D b D b b C ",
"A D B B b A B b v b C b B D B C B b D B D D b b b D M A D b b b b b D b G B b D ",
"D b b D b b b B b C b b B D D C B B b b B D b b D D b M b D A D B b v M D C b C ",
"D C v v D C B b B M b b b B b B B C C b C B B B B B M M D C b C B M b b b b D D ",
"D b b b b C B M b b b b M B b b B C M B D b b B b M Z M M C b C C b D D C G D C "
};
