/* XPM */
static char *result[] = {
/* columns rows colors chars-per-pixel */
"40 40 130 2 ",
"   c #2C3009",
".  c #2E6507",
"X  c #2D6A06",
"o  c #316B07",
"O  c #2C7006",
"+  c #317206",
"@  c #387F06",
"#  c #FB3E05",
"$  c #B74A18",
"%  c #95650E",
"&  c #D54F15",
"*  c #C25315",
"=  c #E65A0F",
"-  c #EA5C0F",
";  c #FA5304",
":  c #DC610C",
">  c #DB6D0B",
",  c #C6780A",
"<  c #CA7F0E",
"1  c #DF760C",
"2  c #DC7B0D",
"3  c #D96116",
"4  c #E16B09",
"5  c #EC6B0B",
"6  c #FB6307",
"7  c #FE6907",
"8  c #FC6509",
"9  c #FD6A0A",
"0  c #E3710B",
"q  c #EC750C",
"w  c #FC740C",
"e  c #FB7A0F",
"r  c #EF7610",
"t  c #ED7911",
"y  c #E47F1B",
"u  c #FC7712",
"i  c #F97D11",
"p  c #CE6627",
"a  c #D57630",
"s  c #378807",
"d  c #398D06",
"f  c #2C9706",
"g  c #269906",
"h  c #2D9D07",
"j  c #2D9209",
"k  c #2E9C08",
"l  c #359305",
"z  c #3F9705",
"x  c #309D06",
"c  c #3C9A06",
"v  c #379508",
"b  c #3D9708",
"n  c #329E08",
"m  c #2FA006",
"M  c #2EA008",
"N  c #33A107",
"B  c #34A108",
"V  c #38A209",
"C  c #429C07",
"Z  c #4A9907",
"A  c #429508",
"S  c #4E9608",
"D  c #419B08",
"F  c #4A9C0A",
"G  c #5B9809",
"H  c #8E8909",
"J  c #93880F",
"K  c #8A910B",
"L  c #8F9E12",
"P  c #949311",
"I  c #AC9A12",
"U  c #92AF1D",
"Y  c #F9810F",
"T  c #F18510",
"R  c #FA8515",
"E  c #FA8C16",
"W  c #FB8318",
"Q  c #F78F18",
"!  c #FA8D19",
"~  c #EF9917",
"^  c #E89A1D",
"/  c #F89215",
"(  c #F4941E",
")  c #FB951C",
"_  c #F99D1B",
"`  c #F4A21D",
"'  c #FFA01A",
"]  c #D8862A",
"[  c #C28833",
"{  c #CA9336",
"}  c #F29622",
"|  c #FC9D23",
" . c #D9B029",
".. c #D7AF3A",
"X. c #D7BC3A",
"o. c #F5A326",
"O. c #FBA221",
"+. c #F4AD2E",
"@. c #F8AF2A",
"#. c #FCB72C",
"$. c #E0A433",
"%. c #EDB539",
"&. c #E0BF3C",
"*. c #F6BE32",
"=. c #FCBC30",
"-. c #C6CF30",
";. c #DBC13C",
":. c #CDD038",
">. c #EFCA28",
",. c #E0C93C",
"<. c #FBC033",
"1. c #FCC835",
"2. c #FCCC3C",
"3. c #ECD03B",
"4. c #FED23F",
"5. c #F1DA3F",
"6. c #F4EB3F",
"7. c #FCE93E",
"8. c #D7A04A",
"9. c #D1AE4C",
"0. c #DBB540",
"q. c #DFB14E",
"w. c #EAB942",
"e. c #FDCF41",
"r. c #FED640",
"t. c #FAD841",
"y. c #F7D755",
"u. c #FEE941",
"i. c #FCF741",
"p. c #F0D761",
/* pixels */
"n n h h h h h h B N N x x N h k n k k h h n V x x k n g N m x h N n N n x x k h ",
"k k x h m h m n k x x x N k k f h N k h x N n x n k n h m h x h h x h n n n x x ",
"m m h n n h N x k x N B n k k h N N n h h n N m n N h h n N h h h N x N h N N n ",
"m N n h h N N x k x N h k h h N N N x h n V N N n N n N V N h N m N h k N h x N ",
"n n n h n n h n N h N m h h N m h n x x n n V N n n n n B n x n x h h h n h k h ",
"h h x h h n f k n h h N m m V V N n h h k x V N x n n n N N k n n h k k h n h N ",
"g h m x h N n N h h x k h N k k n n x h n x n x x n n n n N x x N h n N n n n h ",
"h N n N x x n h m N V k k h h h x x n x h n h x x n h h h h n n N h x h N x x h ",
"h h N m N N x h h h N h h k x x n N N k k k h k k k h n h x n x h h N m m h N N ",
"h h n h n n x N V N h x h h k h n N h h h k N x n k h x N N h h x x h N m N N n ",
"h h h N n V N N N n h n n k h x h n k h N V x V n h n k n x n k g h h h m n N n ",
"h h h h h n n n V N x x n h h n k h g h V N k k n h N x h h n k k h N x g h n n ",
"g h N g m x h x x N n N N N h n n N c h N N x k m h n h N n x k h h x N N h x n ",
"h h x h N N x h n x x h x V N S I -.< G n l x B h h h h h N k x h n x x N n x x ",
"h x x N N N V m h x x x h N c K T R 6 ^ P % A m n g h h h n k h g N x N V V n n ",
"h x x x x h x N k h n x h g n L ` ) W ) } y.J c n N N N h h n h h N N n N h x x ",
"x x h k k h k h x n N x h f n U *.' ) o.E W r H h x B k k x V m h h h k h k x h ",
"x n k h k h k k k B B k k f V :.4.O._ i ( R # 4 F h x k N x N M h h h k x n n n ",
"n N h m h h n n B B x k k g n  .| / / O.=.Q ; 8 1 Z k x n x k B m h h h k h x k ",
"N n N N h x x N x N k N M g A 2 u e ` 2.#.i ; 9 8 > b N n k x h n n h k n k x x ",
"k h x x n n n x k M n n m c , 6 6 R <.r.=.R w 9 = $ v N x N k k h h n n h n N n ",
"k x h x n V V n B N h h m c 0 i 9 O.2.4.4.<.( 5 & * s h x x h k n n h n N n n h ",
"x x h x n n B N h h N h m C t y.E +.8.w.7.u.%.p - : X g m h k B N x n n V N N m ",
"N h x h k V B x k h h h h C 5 6 ! <.q.9.u.i.0.a 9 5 . h N k h N h n h n N h n x ",
"h x x x h N x N x h h n h z q 8 ! 1.7.6.6.i.3.( 9 5 . x c n h h h h n n N x k g ",
"h h x N n x k h x h h x N z t 4.Q +.5.,.X.;.[ y 9 5 X h B B x h n h N N n h h h ",
"x h N h h x x h h N h h m c 0 E e ( $...,.{ ] 3 8 5 X h n n B k k x N h x h n h ",
"h x h x h x n h x h k h h N F ~ ' / ( o.@.} i 8 9 5 X h n N n k h n h h N n x k ",
"n x x n N N h h n h g h n x x T >.R ; w e 7 8 9 7 : O g n h n h m m h h k h h n ",
"x N n x x n x x h x h N x x k c F 2 5 q q 5 5 5 :   f m h h h n h N h h x h h h ",
"h x x h k x h h N N N n x x N N k c F C c d s @ . j B n h x N h x x n k n h h h ",
"N h k n h n h k x n h h h h k x h m h h g h h h h m V N g x k n x k n n n n N V ",
"N x h x x h h x h n x k h N x k h n h h N k x n n x n n n h k N h g h n N N n n ",
"N h g x h h h h h n N x x h x h h N N N n n n N n x n n h h h N N m x x V N n n ",
"h N m N x x N x g h x N x k h x x h x x n N h h n h h h h h N h N V N N N n N g ",
"h x k x h h h h h h x n h N n h x g N N N h h h h h h h h h m k h m m h N h h n ",
"h m x x h m x h h h n h x N x n x h N x N N x h h N k n h x h h h h N x N n h n ",
"V h h h h h h x h n h h x n N n x x h h x N h h n N k x h N N N n h h h N n n n ",
"N h h h n n x h h k h h h x h x x n n h h x h x h n h h n N h x x h h g h m B n ",
"N h g m h N x k h h x h h x h h h n k x N n h x h h n x k n h n n h N N n B N n "
};
