/* XPM */
static char *result[] = {
/* columns rows colors chars-per-pixel */
"40 40 128 2 ",
"   c #3D6D09",
".  c #FB1B06",
"X  c #F72805",
"o  c #F42108",
"O  c #F63905",
"+  c #9D7B08",
"@  c #B57D0A",
"#  c #B87C0A",
"$  c #FA4D04",
"%  c #F75605",
"&  c #FB5B05",
"*  c #DE6B0A",
"=  c #C77309",
"-  c #CE7509",
";  c #D5730A",
":  c #DE710A",
">  c #D6790A",
",  c #DF7A0E",
"<  c #EF6107",
"1  c #EA660A",
"2  c #E46E0A",
"3  c #ED6D0A",
"4  c #FC6306",
"5  c #FC6A07",
"6  c #F96708",
"7  c #F66C0C",
"8  c #FC6C0A",
"9  c #E4700A",
"0  c #EB720D",
"q  c #E57C0B",
"w  c #F6750C",
"e  c #FC730C",
"r  c #E76E17",
"t  c #EE7614",
"y  c #E77E10",
"u  c #ED7B14",
"i  c #E67B1A",
"p  c #F97611",
"a  c #FC7B12",
"s  c #D97A2C",
"d  c #2C9706",
"f  c #279A06",
"g  c #2D9D07",
"h  c #2E9C08",
"j  c #359606",
"k  c #3B9707",
"l  c #319D06",
"z  c #3B9C07",
"x  c #349608",
"c  c #329E08",
"v  c #3C9C09",
"b  c #2FA006",
"n  c #33A107",
"m  c #34A108",
"M  c #39A30A",
"N  c #469406",
"B  c #439C08",
"V  c #599409",
"C  c #778E08",
"Z  c #7C8A09",
"A  c #759309",
"S  c #7B9515",
"D  c #838B0A",
"F  c #8D8A0A",
"G  c #9F8209",
"H  c #89AF1C",
"J  c #96A91B",
"K  c #CE870F",
"L  c #DF8319",
"P  c #DF9E17",
"I  c #E58511",
"U  c #FB8413",
"Y  c #FA8A16",
"T  c #F98B19",
"R  c #F99016",
"E  c #FA961E",
"W  c #FB981C",
"Q  c #F2A21B",
"!  c #FAA11E",
"~  c #D8912E",
"^  c #E38E27",
"/  c #EF9128",
"(  c #E29C2F",
")  c #F49723",
"_  c #F99423",
"`  c #F69F26",
"'  c #FB9A21",
"]  c #EC9D30",
"[  c #DFB52A",
"{  c #D4A438",
"}  c #D6A939",
"|  c #D5B93B",
" . c #DEBC3B",
".. c #EDA52C",
"X. c #FBA425",
"o. c #FCA824",
"O. c #FAAB29",
"+. c #F2B72F",
"@. c #FAB42A",
"#. c #E1A33F",
"$. c #F6B331",
"%. c #FEB331",
"&. c #FBBC32",
"*. c #DBC23C",
"=. c #E5C43B",
"-. c #E4C83D",
";. c #EACB3D",
":. c #FCC133",
">. c #F7CB3A",
",. c #FDCD3B",
"<. c #E8D83D",
"1. c #FED03C",
"2. c #F4DE3F",
"3. c #F6E13E",
"4. c #F2E83F",
"5. c #FEEF3E",
"6. c #F7F13F",
"7. c #FDFA3F",
"8. c #D19F53",
"9. c #D1A951",
"0. c #DAA850",
"q. c #E0A64B",
"w. c #ECB341",
"e. c #ECDD40",
"r. c #FED541",
"t. c #FED941",
"y. c #FAE243",
"u. c #C4DC8A",
/* pixels */
"c c g g g g g g n n c l l b c h g g h g g n n h l h l g g b l l n c n c l l h g ",
"h h l g b g b c h g c c n c h d l l g g h z M l c h n g b g g g g g g c l l l g ",
"b b g c c g n l h c n n g l h g n M l g g n n g c n g g c n g g g c b c l n n n ",
"b n c g g n n l g c n g g h h b n l l g l M n n c n c n M n g n n n g g n l l n ",
"c c l g c c g c c g n b g g c n g l h l c c M n c c c n n c l c l g h g c g h g ",
"g g l h g c d h c g g n g c n n n n h g g l m n l c z c n c h c c g h h g c g n ",
"g g b l g n c n g h l g b c c g c z g g c l n l g c c c g n c c n g c n c c c g ",
"g g c n l l c g c n m g c g g g l l n l g c g c h c g g g h c c n g l g n l l g ",
"g g n b n n l g g l c g g g g l c n n g g h g h h h g c g l c g g l l n b g n n ",
"g g c g c c l M n n g l g g g g c n g g l c c c c g g l n n g g g g g l b b n c ",
"g g g n c n n n M n g l c h c l l c g f n n h n c g c h c c l h g g g g b g n c ",
"g g g g c n l l n n l l c g h c h g l z B z l h c g n c g l n h g g n l g g c c ",
"f f n g g g g g c c c l n M h h g z @ * ; = Z h g b c g c c l g g g l n n g l c ",
"h g l g n l l g c l l g l n c l z J ) . % $ 3 C g g h g g c h l g g l l n c l l ",
"g l l n n n M n g l l l g n l c H $.@.) W U 8 > z g g g g c h g g n l n M M c c ",
"l l n g l g l n h g n l g g h M [ &.,.&.:.o.a I z g n n g g l g g n n l c h l l ",
"l n c g g g h g c c c c g g h N u a ' p E X.a y x h m g g g n g g g g h c h l g ",
"l h g g g h h h g n m g d g c : 4 X p E X.T 8 0   f n g c c n n g h g h g h c c ",
"c n g g g h c c n c c l h f N < e 7 ' @.Y 8 8 p * B c c c c l m b g g g l l l h ",
"c c n b c h l n c n h c g x : 5 & Y :.@.W U 6 8 e ; k c l h c h c c g h l h l g ",
"h g l l c l c b g n g c b z 3 5 8 o.,.,.,.&.Y 5 8 9 z n l c g h g g c c g n n c ",
"h l g l c M z n m b g c n M 1 . p &.r.r.t.r.$.t 4 9 k g l c g g c c g c n c l g ",
"l l g l c c n c g g n g g B 2 & T #.q.>.y.y.0.~ e q z b g g g n n l c c M c g n ",
"n g l g c n n c g h g g g B 2 5 W  .8.=.y.4.9...U I z g n h h c g c g c n g g g ",
"g l l l g n c n l g g c l z - 8 R :.3.4.7.6.2.@.U P B n n c g g g g c c c l h g ",
"g g l n l l g g l l g g n j F Q U ..;.| <.*.} ^ w K z n m c c c c h n n n g c g ",
"l g n g g l g l g g g g n n B , 8 i ~ =. .{ ( r 5 # z g c c c g h l n g g g c g ",
"g l g l g l c g g g g g g n g V I e / O.O.` U 8 3 G l l c n l g g c g g n c l h ",
"l l l l l n g g l g g g c m c h A L u.u e 7 O 9 A z b g l g c l b b g g g g g c ",
"l n n l l c l l g l g n c l c m n B S D F G + N c l n l g g g c g n g g l h g g ",
"c c l h h l g g n n n l h g n n n h c v n l l n M c M g g g n g l l c l c c g g ",
"n g h c g c g g l n g g l g c g h c h g g g g c g c n c g c h l l h c g c l c M ",
"n c f l l g g l g c n l g c l h g c g g b h l c c c l c c g g l g g g g n n c c ",
"n g g l g l g g g g l l l g g g g n n n c c c n c g c n h g h b n n l l M c c c ",
"g n g n l l l l g g g n c g g l l g l l c n g g c g g g g g n g n m n b n g c g ",
"g l g h g g g g g g g c g c c l g g l n n g g h g g g g g g b g g b n g n g g n ",
"g b g l g g l g g g c g l n l c c g n l n n g g g n g c g l g g g g b g n c g c ",
"m g g g g g g g g c g g l l n n l l g g l n l g c n h l h n n n c g g g n c c c ",
"n l g g n c l g g h g g g l h l l l l g g l l g g c g g c b g l l g l g g b m c ",
"n g g g g n c g g g g g h l g g g c h l M g g l g h c l h c c l c g l n c M n g "
};
