/* XPM */
static char *result[] = {
/* columns rows colors chars-per-pixel */
"40 40 125 2 ",
"   c #2E6706",
".  c #2F6A07",
"X  c #F32108",
"o  c #877503",
"O  c #A57D09",
"+  c #AC7D09",
"@  c #BE7007",
"#  c #EB4206",
"$  c #F25305",
"%  c #FB5505",
"&  c #F65C06",
"*  c #FC5E04",
"=  c #F5570D",
"-  c #DE6F0A",
";  c #C17508",
":  c #CB7509",
">  c #C7780B",
",  c #D6750B",
"<  c #DD710A",
"1  c #D9790D",
"2  c #EE6705",
"3  c #EE6E06",
"4  c #EB660A",
"5  c #E66F09",
"6  c #ED6B0A",
"7  c #FC6606",
"8  c #FE6A06",
"9  c #FC6709",
"0  c #F66C0B",
"q  c #FA6B0B",
"w  c #E2740A",
"e  c #E9790E",
"r  c #F5740E",
"t  c #FB740D",
"y  c #F0780E",
"u  c #FE790F",
"i  c #E77718",
"p  c #F77912",
"a  c #F97C12",
"s  c #3C8C09",
"d  c #2C9706",
"f  c #279A06",
"g  c #2D9D07",
"h  c #2E9C08",
"j  c #349206",
"k  c #3E9607",
"l  c #319D06",
"z  c #3C9A07",
"x  c #329E08",
"c  c #3C9B08",
"v  c #2FA006",
"b  c #2BA108",
"n  c #33A107",
"m  c #34A108",
"M  c #3AA209",
"N  c #459407",
"B  c #449608",
"V  c #419B09",
"C  c #599809",
"Z  c #63970B",
"A  c #7D9710",
"S  c #8E8409",
"D  c #978709",
"F  c #9B8109",
"G  c #9F8A0C",
"H  c #90910F",
"J  c #949611",
"K  c #A18109",
"L  c #B4820A",
"P  c #81A817",
"I  c #EE8A1A",
"U  c #F58616",
"Y  c #F98514",
"T  c #FA8C16",
"R  c #FF8519",
"E  c #F48C1B",
"W  c #FA8D19",
"Q  c #ED901D",
"!  c #F3941D",
"~  c #FA921C",
"^  c #FB9C1E",
"/  c #D79632",
"(  c #ED8F22",
")  c #E1982F",
"_  c #FB9521",
"`  c #F49921",
"'  c #FA9C21",
"]  c #CDA13A",
"[  c #D4B23A",
"{  c #DEB03A",
"}  c #EAA22E",
"|  c #FAA324",
" . c #FBAA26",
".. c #F1A32A",
"X. c #FDAB2B",
"o. c #FBB32A",
"O. c #ECB135",
"+. c #E6BA3B",
"@. c #EBBD3F",
"#. c #F5BA35",
"$. c #DEC33C",
"%. c #F6C628",
"&. c #ECC533",
"*. c #E1CC3D",
"=. c #FCC333",
"-. c #F9C73E",
";. c #FCCD3B",
":. c #ECDC3E",
">. c #F6D43D",
",. c #FED13E",
"<. c #F6EE3F",
"1. c #FBF43F",
"2. c #CD904F",
"3. c #CF9257",
"4. c #DFB24A",
"5. c #E4AE41",
"6. c #E9BE49",
"7. c #E1BD51",
"8. c #DFC642",
"9. c #DEC449",
"0. c #F5C741",
"q. c #FBD140",
"w. c #FCDC41",
"e. c #F9E440",
"r. c #FCF140",
/* pixels */
"x x g g g g g g n n x g l n l h g g h g h x n g g h h g v v l l n x n x l l h g ",
"h h l g v g v x h h x x n g h d l l g g l M z x x g n g g g g g g g g x x l l g ",
"v v g x x g n l h x n n l h h g n M n g g x n g n n g g g n g g g n n l l n n x ",
"v n x g g n n l h n n g g h g n v l l g n n n n x n x n M n x n n l g h n g x n ",
"x x x g x x h x x g n v g g n n g l l l x x M n x x x n m x l x l g h g x g h g ",
"g g l g g x d h x g g n f n m n x M l g h l M n l x x x n n h x x g h g h x h n ",
"f g n g g n l n g g x h n n g h l l l g x x l g l x x x x g x x n g n n x x x g ",
"g n l n g l x x x n m h x g g g h l n l g x g x l x g g g h x x n g l g n g x g ",
"g g x v n n l g g g n g g h h x n n n v x h g g l h h x g h l l g g l n v g n n ",
"g g x g x x l n M l g x g g h g x n v f g g v n l h g x n n l f l l g n v v n x ",
"g g g n n M n n M x g l x h g h h g g g M M z m x g x h x x x g f g g g v g n x ",
"f g g g g x x l n n l l m g g x g k o H P H D B h g n x g x n g h g n l g g x x ",
"g g n f g l g l n x x n n n g g c > $ E ` ~ 3 H x g n l x x x g g v l n n g l x ",
"g g l g n n l g g l l g g M x g z I R _ X. .' &.Z h g g g x g g g g l l n x l l ",
"g l g n n n M g h l l l g x x g c Q R = >.| ' r K l f g h x h g g n l n M n x x ",
"g l n l l g l n g l n l g g l v B # q q ~ | ~ q O z n n g g l g f n n l x x x l ",
"l n x g h h h g x x x x d d g B - 7 q T ^ E q 0 O l n h g g n v g d d d n h l g ",
"l g h g h g h h g m m h h g l < 9 7 U o.T X q 0 O l n g x x n x g g b x x h x x ",
"x l g g g g x x x n x l h f B 0 u 0 ' =.T r %.u e C h x x x h n n g x g g x x g ",
"x n v n l l l n x n h x b j w 9 q Y o.;.o.^ Y q r G c x l h x g g x g h g h g x ",
"l h l g x l x x g n g x g   6 a t  .;.,.,.;.X.T t y F z x g g g g g x x x x n l ",
"h x g l x M x n m v g x g . 4 * Y #.-.,.w.w.q...U Q , z g x g g x g g x n x x g ",
"l l g l x x m x g g n g g s 6 * ^ 5.3.6.1.1.7.2.I 8 , z v h g n n x x x n x n v ",
"l g l l x n n x g g g g g z 6 % | -.4.8.1.1.9.6.^ 8 < c n h h n g x g x n l g l ",
"f n l l g n x n l g g x g V 2 X ^ ,.<.:.<.<.:.>.! 7 5 V x x x g g g x x x l h f ",
"g l l l x l g f l l g g n z < T Y ) +.[ *.*.] / i 8 6 V n x x l x h n n n g x g ",
"l g n g g n l l g l g g n x B L 7 U ) +.>.+.O.( r r w z g x x g h l n g g g x g ",
"g l g n g l x g l g g g g n f B w 7 W `  .' W Y a 2 N g x n l g g x g g n x l h ",
"l l l l l n g g l g g f g M x g B e ^ 7 t 8 * T * ; l v l g x l v g g g g g g x ",
"l n n l l x l l g l g n x l x n x S @ : 1 w 5 < + V l g g g g x g n v g l h g g ",
"g x l h h l g g n n n l l g g x x x k z z c c V M x M g g g n g l l x l x x g g ",
"n g h x g x g g l n g g l g x g g n h g f b g g g x n n g x h l h l x g x l n m ",
"n x g l l g g l g x x g g n l h g x g g n h l x x l x x x h f n g f g x n n x x ",
"n g g l g g g g g g n l l g l g g n x n x x x n x l l x h g x v n n l l M x x x ",
"g n f n l l l l g g l n l g h l g g l l x n g g x g g g g g n g n M v n n x n f ",
"f l h x g g g l g f l x h x x g l g g n n g g g g g g g g g v g g v n g n g g x ",
"v n l n g g l g g h x g l n l x n g n l n n g g g n h n g l g g g g v l n x g x ",
"m g g n g g g l g g g g l n n x l l g g l n g g x n h l g x n n x f g h n x x x ",
"n l g f n x x g g h g g g l g l l l x g x l l l g x g h x v g l l g g g g v m x ",
"n g f g g x g g g g l g g l g g h x h l n g g l g g x l h x x l l x n v x m n x "
};
