/* XPM */
static char *result[] = {
/* columns rows colors chars-per-pixel */
"40 40 144 2 ",
"   c #2A3C07",
".  c #346107",
"X  c #307205",
"o  c #357F05",
"O  c #F21405",
"+  c #FE1603",
"@  c #F51C06",
"#  c #F72B06",
"$  c #F3220E",
"%  c #FA3F05",
"&  c #E33617",
"*  c #BB7408",
"=  c #F84B04",
"-  c #E05B04",
";  c #FC5205",
":  c #F95906",
">  c #D36D0A",
",  c #DD6F0A",
"<  c #CB760B",
"1  c #D5750B",
"2  c #DC730A",
"3  c #DE7912",
"4  c #EB650A",
"5  c #E76D0B",
"6  c #EC6C0A",
"7  c #FC6607",
"8  c #F6660D",
"9  c #FB6409",
"0  c #F36C0A",
"q  c #FA6E0F",
"w  c #EF7604",
"e  c #E5720C",
"r  c #EA720C",
"t  c #EA780D",
"y  c #F4740E",
"u  c #FC750D",
"i  c #FE7A0E",
"p  c #E46A11",
"a  c #F96D13",
"s  c #E77912",
"d  c #E97F14",
"f  c #E27019",
"g  c #F27E14",
"h  c #FA7E13",
"j  c #398E06",
"k  c #2C9706",
"l  c #279A06",
"z  c #2D9D07",
"x  c #2B9408",
"c  c #2D9C08",
"v  c #379507",
"b  c #3D9706",
"n  c #319D06",
"m  c #3B9C07",
"M  c #3A9208",
"N  c #329E08",
"B  c #3D9B09",
"V  c #2FA007",
"C  c #33A107",
"Z  c #34A108",
"A  c #38A209",
"S  c #488E07",
"D  c #439605",
"F  c #4A9307",
"G  c #409C07",
"H  c #4D9A07",
"J  c #429C08",
"K  c #549406",
"L  c #6A8F08",
"P  c #43A009",
"I  c #928507",
"U  c #938509",
"Y  c #9C840A",
"T  c #9A890B",
"R  c #A48108",
"E  c #EB800F",
"W  c #FE810F",
"Q  c #FC9C05",
"!  c #E78210",
"~  c #E98D14",
"^  c #E7821E",
"/  c #F08517",
"(  c #FB8314",
")  c #F78A14",
"_  c #FB8C17",
"`  c #F4871A",
"'  c #FB8418",
"]  c #F18A1B",
"[  c #FA8C1A",
"{  c #EA9516",
"}  c #FC9216",
"|  c #F7931C",
" . c #FA941C",
".. c #FB9B1C",
"X. c #E5A119",
"o. c #DD8122",
"O. c #D49D35",
"+. c #E18C2A",
"@. c #EE9924",
"#. c #E89B29",
"$. c #F19221",
"%. c #F99522",
"&. c #FB9B22",
"*. c #D3B131",
"=. c #DFBF3C",
"-. c #FBA124",
";. c #FAAB22",
":. c #F5AF2B",
">. c #FBAA2A",
",. c #F6B62E",
"<. c #FBB32A",
"1. c #FCBA2E",
"2. c #E1A532",
"3. c #EFAB31",
"4. c #F2B237",
"5. c #F5B832",
"6. c #F7BF38",
"7. c #FDC124",
"8. c #F8D52B",
"9. c #E0C43C",
"0. c #EACB3D",
"q. c #FCC334",
"w. c #FDCB39",
"e. c #E6D63D",
"r. c #ECD03B",
"t. c #FED23C",
"y. c #F3DB3B",
"u. c #E8E22F",
"i. c #EFE13D",
"p. c #FEE73F",
"a. c #F6F03F",
"s. c #FDFA3F",
"d. c #D79649",
"f. c #D19A4F",
"g. c #CFA15D",
"h. c #E5AF42",
"j. c #DEC34A",
"k. c #DDD15D",
"l. c #FCD641",
"z. c #F1DB44",
"x. c #F7D74A",
"c. c #F0E440",
"v. c #F6EE40",
"b. c #F9D06B",
/* pixels */
"N N z z z z z z C C C n n C n c z z c l z n A z z c n l C V n n C C n C N n c z ",
"c c n z V z C N c c n N C z c k n n n z N C m N N z C z V z z z z n z N n n n z ",
"V V z N N N C n c N C C n c c z C A A z N n C z C N z z z C z z z N z C N C C N ",
"V C N z z C C z c N C z z c z C V n n z n A C C N C N C A C N C C C z c V n N C ",
"N N N z N N z N N l A V l z C C z n n n N n A C N N N A A N n N n z c z N z c z ",
"z z n z z c k z N z V C V z A C n A c z N n A C v N N n C N c N C z c c c N z C ",
"l z V n z C n C z c N c C N N z n n N z N n C z z Z C N N N z C C z n C N N N z ",
"z N n C N n n N N C Z z N z z l n N n n z N z N c N N z l c N n C z n n C z N z ",
"z z C C C C n z N N C z z c c N N A z N c c z c c z z Z z n N n z n n V V z N C ",
"l z z C C n n A C n z c z z c V N C z l N m N N N z z z C C l z z N z C V C C N ",
"z l N V C C C C A n z N N c N N c n z z H Y U T K z c z N N n N l z z z V z C N ",
"l z n z N n N n C C n n n z c N c c l z R 0 0 [ - K Z N z N C c z z C n l z N A ",
"l z C z z z z n C n N C C A z c z z z D e 7 [ ' # * m V N n N c z n n C C z n N ",
"c C n z C n z z N n n z N C N n n v I 3 8 %.>. .u 1 v l z N c z z z n n N C n n ",
"z n z C C C A C c N z n z C n N N I / b.& x.&. .u 2 m l l N z N z C n C A C N N ",
"n n C n n z n C z N n n l z n n L t u  .%.&. .g ' e G V C z N c l C C N C N N n ",
"N C N z c z c l N N N N z c c m 1 ' ) [ ' ' a @ : < G l N z C V z k k c N c n n ",
"n c z c c z n c z C C z c l l m 6 ;  . .8 O O ; 4 . c z N N C N z z z V N c n N ",
"n N z V c z N N Z n N N N l z J 4 ; ..<._ 9 = 7 4   x C n N n C C z N z z z N z ",
"C N V C z N n C C C c N z l n Y y 9 ( q.q...u % 9 > v N N c N z z N z c N c N z ",
"c c z n C N N N c C z N C V H 5 8.W } q.t.q...u i t M C v V z z z z N C z N C N ",
"c N z n m A n Z Z C z N C m 1 i ( ) ;.w.l.t.1.} 7 e j z C V l z N z z N C N N z ",
"n n z n n N Z N z z N z V J 6 ( d +.4.w.v.l.h.@.W ! j l z z N C A N N n A N z C ",
"C z n n n A C C z l z z z G 4 + ` d.f.y.v.j.g.4.} X.M z C c c C z N z n C z z z ",
"l C n n z C N C n z z N z m 4 $  .6.0.a.s.i.z.5.} u.B n m N z z z z N C N n c z ",
"l n z C n n z z n n z z C D s k.$.5.0.e.v.i.r.#.i { M z N Z N N N c N C C z N z ",
"n n C z z C n n z n z z C m < f p o.O.=.9.9.2.] i 5 j k N C N x z n C N z z N z ",
"n n z n z z N z n z c l z C H w Q d ^ ,.5.,. ._ 7.6 X k C C C z z N z z N C n c ",
"n n n n N C c z n z z z N Z m 1 u *.u u [ ( i ..u , v z z z N N C C z z z z z N ",
"n C C n n n n n z n z C N n N S 2 r r E { ~ t r , F V z z z z N l C V l n c z z ",
"N N n c c N z z C C C n z n V N B B J J m m b G J C C N c N C z c N N n N N z z ",
"C z c N z n z z n C z z n z N C l V c l V V l C l N C C z z c n n n N z N n C A ",
"C N l n n z z n z n N c z C z c z n N z z z N n n N N n N z z C z z z z C C N n ",
"C z z n z z z z z N C n n z n z z C N C n N n C N N C N z z z N C V n n A N N N ",
"z n z C n n C n z l n C n n z n z z n n C C z z Z z z z z z C z A C C C C N N z ",
"V C z c z z z z z z n N z N N z z z C C C N z c z z z l z z V z z z V z C z z N ",
"z V n n z V n z l z N z n C n n N z C n C C z z z C z N N c z z z z V n C N l C ",
"C z z z z z z n z N z z n C C n n N z z n C z c C N c c z C C C n z z z C N N N ",
"C N z l n n N z z z z z z n z N n n N z z N n C N N c c N C z n n c z z z z Z C ",
"C z z z z C N c n z n z z c c n n n c n C z z n z c N N c n n n n N C V N A C N "
};
