/* XPM */
static char *result[] = {
/* columns rows colors chars-per-pixel */
"40 40 122 2 ",
"   c #2F6406",
".  c #2F6A07",
"X  c #FD1705",
"o  c #F21F07",
"O  c #F82007",
"+  c #FC2108",
"@  c #F73B05",
"#  c #A37C07",
"$  c #AF7C07",
"%  c #BC7109",
"&  c #B27D0A",
"*  c #C75018",
"=  c #DD5511",
"-  c #EC4E05",
";  c #E35C0F",
":  c #EB5D0D",
">  c #F55504",
",  c #FA5C06",
"<  c #FC5C09",
"1  c #C96F08",
"2  c #D76B0A",
"3  c #DD6A0A",
"4  c #DF720B",
"5  c #DF7B0F",
"6  c #DE751E",
"7  c #EC660A",
"8  c #EC6D0A",
"9  c #FF6405",
"0  c #FD6B07",
"q  c #FA670C",
"w  c #F56E0B",
"e  c #FC6B0A",
"r  c #ED7506",
"t  c #E2720B",
"y  c #EC730C",
"u  c #FA720D",
"i  c #FA790F",
"p  c #E66D15",
"a  c #F57310",
"s  c #FB7611",
"d  c #FA7C11",
"f  c #3A8D07",
"g  c #2C9706",
"h  c #279A06",
"j  c #2D9D07",
"k  c #2E9C08",
"l  c #339706",
"z  c #3C9306",
"x  c #319D06",
"c  c #3C9B07",
"v  c #3F9608",
"b  c #329E08",
"n  c #3C9C08",
"m  c #2FA006",
"M  c #2EA008",
"N  c #33A107",
"B  c #34A108",
"V  c #38A309",
"C  c #449707",
"Z  c #4A9407",
"A  c #459A07",
"S  c #419C08",
"D  c #4C9A09",
"F  c #519307",
"G  c #519508",
"H  c #519908",
"J  c #7B8E07",
"K  c #908507",
"L  c #99840A",
"P  c #8C9911",
"I  c #A5830A",
"U  c #B0800B",
"Y  c #AA8910",
"T  c #EF891D",
"R  c #FB8314",
"E  c #F78B15",
"W  c #FA8915",
"Q  c #FD8719",
"!  c #F58E1A",
"~  c #FA8D1A",
"^  c #ED9316",
"/  c #E5961C",
"(  c #FA951C",
")  c #FA9A1D",
"_  c #FAA31E",
"`  c #D59132",
"'  c #E58220",
"]  c #E69524",
"[  c #E99D2F",
"{  c #F39920",
"}  c #FB9E21",
"|  c #E19234",
" . c #EFA427",
".. c #FBA220",
"X. c #F5A825",
"o. c #FCAA25",
"O. c #F5B32D",
"+. c #FBB32B",
"@. c #E0AE35",
"#. c #E7A63D",
"$. c #E0BA3A",
"%. c #DEC23B",
"&. c #E5C43F",
"*. c #EEC53F",
"=. c #E4CF3C",
"-. c #FDC334",
";. c #FBC639",
":. c #F2CD3D",
">. c #FDCB3A",
",. c #EDDD3C",
"<. c #F9DC3A",
"1. c #EEE13E",
"2. c #F5ED3F",
"3. c #FDFA3F",
"4. c #CC965C",
"5. c #CEA45E",
"6. c #EAB644",
"7. c #ECB940",
"8. c #EDDA42",
"9. c #FCD541",
"0. c #EEE043",
"q. c #FEE441",
/* pixels */
"b b j j j j j j b N N x x N x j x j k h k b V j j k b j m m x j N N b b x x k j ",
"k k x j m j N b k b j b N j k g x b x j x b c b b j x j j j x j j x j b N x x j ",
"m m b b b j N x k b N N x x k k N V N j x b N j N N h b b N j j j b j N j N N b ",
"m N j j j N N x j b b j j k k m N x x j b V N N b b N N N N j N N N j k N x b N ",
"b b j b b j k b b j N m j j b m j x x x b b N N b N b N V b x b x j k j b j k j ",
"j j x j j b g k b j m N m j V V b N j j j x V N x c b b N N k b b j k k j b j N ",
"j j m j j N b N j k x j j b N k b b x j b x N b k b b x b N x b N j N N b b b j ",
"j b b N x x b x j N V j b j j h x x b x j b j b k b j j j k b b N j x j N x x j ",
"j j N m N N x x j b b j j b k b b N b k j k j k k k j b j x b j j j x N m j N N ",
"h j x x b b x N N N j x h j k j x N j j b b b j b j j b N N j j j j j N m N N x ",
"j j b m N V N N N b j b b j b x x j g j N N b V b j b k b b x k j j j j m j b b ",
"j j j j j b b x V N x x b j j b x k k x V c x k j j N b j x N k k j N x j j b b ",
"h h m j j j j x x N b N N V j j k j Z C K U Y G b m N h x b x k j j x N N j x x ",
"j j x x N N x j b x x j x N N j b F L A J y 9.y # C h j j N k x j b x x N b x x ",
"N x x N N N V x j x x x j x b j G t r P / R R i w L x j k b k j j N x N V V b b ",
"j x j x x j x N k j x x h b b c # @ R ! Q ~ R i w I c N j j b j h N N x b x b x ",
"b N b j j j k k b b b b j h j x $ > R ( u q d d E I n h N j N j j j j k b k x j ",
"b j k k g j k k j N N k b h j A 3 d s } ~ 0 u d E & n j N b N N j k j k k k b b ",
"b b j j j j b b b N x x k h c % O q q ( o.d , 0 y A j b b b x V m j j j x x x k ",
"b b m N m b x N b N j b j l 1 , d e W +.} i q 0 8 c j b x k j k b b j k j x x j ",
"j j x x b x b m j N b x m c - R R ) +.;._ d e u 8 l h V x j j k j j b b j b N x ",
"k j j x b V c N N N j x m c 8 0 ( -.;.9.>.o.i < 8 Z b N x b j j b b j b V b b j ",
"x x j x b b V b j j N j b D ^ R [ 6.>.q.q.$.' u i t f h b j j N N x b b N b N m ",
"N j x x x N N N j j j h z 5 <._ #.4.8.2.8.5.| R R 8 f h N k k N j b j N b x j j ",
"h N x x j N b x j j x j   7 < ) >.*.2.q.2.,.O.u + 7 c N V b k j j j b b N x k j ",
"h x x N b x j j x x j j   : X a O.:.=.2.1.1.] u e w C m b b b b b k N N b j b j ",
"N x x j j x j x j x x h . 3 : ; 6 ` $.%.%.@.' u u t n h j b b k k x N j j j b k ",
"j x j N j x b j x x j h g F r * = p {  .X.! d s y D j b b N N k j b j N N x x j ",
"x x x x N N j j x j j j m S t q = 9 e u e 9 s O 3 n m j b j b x N m j h j j j b ",
"x N N x x b x x j x j N b x C t y y y r y 8 y 2 D N m x j h j b j x j j x k j b ",
"j b x k k x j j N N N x j b m S S c S S n c c S N N N x j x N b j b b x b x j h ",
"N j k b j b j k x N j j j j b m h m k h M m h j b j N N j x k k x x b j b b N V ",
"N b h x x j j x j b b x j N x k j b x j N k b b b x x b j j j b j j j j b N b b ",
"N j j N j j j j j b N x x j x j j N b b b j b N b k N N k x j N N N j x V b b b ",
"j x j x x x x x j j j N x j k x j j x x b N j j N j j h h N N j N V N N N b N h ",
"j N k x j j j x h j x x j b b j j j N N N x j j j j j j j j m j j x m j N j j N ",
"m m x x j m x j j h b j x N x b x j N x N N j j j N k b j x j j j j N x N N j b ",
"N j j j j j j j j b j j x N N b x x j j x N j j b N k x k N N N x j h k N b b b ",
"N b h j x b b j j k j j j x j x x N b j b x x x b b j k b m j x x j x j j j V b ",
"N j j j j N b j x j x j k x j j k b k x N j j x j k b x k b b x b j N m b V N j "
};
