/* XPM */
static char *result[] = {
/* columns rows colors chars-per-pixel */
"40 40 29 1 ",
"  c #309E07",
". c #7C431D",
"X c #7E441D",
"o c #309F07",
"O c #2E9D05",
"+ c #2D9C05",
"@ c #32A008",
"# c #7A421D",
"$ c #309D07",
"% c #DCA56F",
"& c #74401C",
"* c #329907",
"= c #6C3D1C",
"- c #D29C67",
"; c #45860E",
": c #547112",
"> c #6F4B1A",
", c #665718",
"< c #5C6114",
"1 c #4A7C10",
"2 c #3D900D",
"3 c #8C582F",
"4 c #C6915D",
"5 c #9E693D",
"6 c #938C3E",
"7 c #698E25",
"8 c #B98653",
"9 c #824C26",
"0 c #B17A4B",
/* pixels */
"o O+++++ @@ $ $*+++*+o@ $ $+o@oO@@oooO++",
"OOOO  oo$ o$$$++ o$+$@@ $$++$oOO OO   O ",
"@o  ooo $ @@ +++oo $o@@ o $$o   oOO o@@@",
"@o  ooo $$ oO++$  OO @@@@@o@@@o@@o  oo@@",
"oo O   $$$  OO @o$++O@@@@ @@@o o@ +OOOO ",
"oo OO+++$    o@@@oO+$o@@$$ @@o  o OO  O ",
"+OOO  oo$  +O  $oo $$ @@$  $ o o@o o@o  ",
"O oo     ooOO $+$ oO$$  +$$+O  oo  @oo O",
"+Ooo@@$$   $++$$*o@O*$o+O+$ooo  +**@oo@o",
"+Oo@o  @@oO+++OOo@O $$$*222;1::<<,,1*@@o",
"+O o@@@@@@ +**22;;1::<,,>>>XX...XXX.: o ",
"O+OOoo  @7:<,,>>.#X..XX...XXXXXX....>;oo",
"++  +++O2489###...XXXX.XXXXXX....XXXX:O$",
"+O o@@@o7%%5#XXXXXXXXXXXXXXXXXXXXXX..<$O",
"o *2;;;16%%8.###..XXXXX...X.#........,* ",
" *643&.#0%%49#........XXX.....#......<$o",
"o2-%8###0%%-3#......###XXXXXX.......#: $",
"O7%%49..5%%-3#XXX.......XXXX.XXX#.##>2 $",
"+6%%-3&&3-%-3&#XX....###.XXX..X###&>1$$+",
"$6%%-5#.94%49&###########&&&=======:$$$+",
"*6%%-5&&&5-0&&&&&&&==========&&&#.#>1o  ",
"*6%%-3.3&=3X=======&&&###..XXXXX...X,*@o",
"+6%%-30-5&&&&##..XXXXXXXXXXXX.....XXX1@$",
"O7-%43-%49.XXXXXXXX.XXXXXXXXXXXXXXXXX:O+",
"+28%53%%-3&####..XXXXX.XXXX..........<+*",
"+O76,5%%%5&#..XXXXXXXXX....##........<++",
"OO+**7%%%0#........##.XXXX..........#: $",
"OOO O7-%-8.XXXXX......XXXXXX.......X&;o ",
"OooOO7-%%8...........##X.XXXXXX#..#&<*  ",
" @oO 24%%0&##XX...####.XXXX.###&#&&,2+++",
"oo OO*6%%5&###########&&>>>,,<<:11;* $$$",
"oO+OOO2849=&&>>,,<<::11;2***+*$oo  $ o@@",
"@ ++O++;1:1;;22** Oo@ooO  ooO+$  O+O @@@",
"oO+OOO+OOo@oo  O$o  o  o@o O++ @@@oo@@o ",
"OOO  O+++O OO$$++$oo@o+ o ++++Oo@@@@@o $",
"OOOOO++++OOOO  $++@@@@++OO+OOO++O o@@o  ",
"  O++++++OOO o@ ++oo@@++ OOOoo O++ o@@@o",
"o +++OOO+OOO @@o   $  +$ooO+Ooo +++ ooo ",
"@ ++Oo ++O++O  O$o$$ $$$  O+O o O++O oo ",
"@ ++ @oOOO+++O+++o+ oO$++$$$  $$o O @@@@"
};
