/* XPM */
static char *result[] = {
/* columns rows colors chars-per-pixel */
"40 40 67 1 ",
"  c #2A3D2B",
". c #373F32",
"X c #2B5C1E",
"o c #286E17",
"O c #2A651B",
"+ c #276918",
"@ c #296B19",
"# c #277512",
"$ c #297513",
"% c #297C11",
"& c #244624",
"* c #324D2A",
"= c #2F5625",
"- c #3A532D",
"; c #306221",
": c #424936",
"> c #44423B",
", c #4C463B",
"< c #4F483E",
"1 c #495C35",
"2 c #4C5338",
"3 c #5A513F",
"4 c #4D6931",
"5 c #4E4040",
"6 c #5C4941",
"7 c #634D46",
"8 c #655445",
"9 c #6F534B",
"0 c #745947",
"q c #775A4D",
"w c #7E5E4E",
"e c #6D6345",
"r c #7C6F4D",
"t c #85624B",
"y c #88644F",
"u c #8E6C4E",
"i c #8E6852",
"p c #956D51",
"a c #967455",
"s c #9E7353",
"d c #937A56",
"f c #9C7E57",
"g c #A17653",
"h c #A77B55",
"j c #AB7D54",
"k c #2B840E",
"l c #2C8C0C",
"z c #2A9406",
"x c #2E9C06",
"c c #2D930A",
"v c #2E9C08",
"b c #309E07",
"n c #319E08",
"m c #2C8510",
"M c #2FA009",
"N c #32A007",
"B c #33A009",
"V c #A7855B",
"C c #AB815A",
"Z c #AC8D5F",
"A c #B28356",
"S c #B3865B",
"D c #B78D5D",
"F c #BA8B5A",
"G c #BD9462",
"H c #C19763",
"J c #C69C63",
/* pixels */
"vvvvvvvvbnnbNBxxxxxznnnbbbbbnbbvNNNvNvxx",
"vbxxNvNvbbnbbbxxxvxxnnnbbbbbbbxxNvvNvvvv",
"BNvNNNNvbbbBBxxxbBNbbNNbnnbnNbxxvxbxNNNN",
"BBvxvNxNbbbbvxxbNNbbbNNNnnnNNNxNNNxxNvNv",
"nvvvvvbvbbbbxvNNNnbcbNNNnnnnNNbNvvxxxxxv",
"MnvnvvbxbbbbNBNNNnbbbnNbnnnnNbbbNvxxxxxb",
"vvbbbbbbxbNxvNvxbbncbbbbbnbbbbbBNNxbbNbN",
"xvbbbbbbxvNvvvvxbbnnxbbbbnbvvbBbNxxvbbxx",
"xvvNNbxbbbbxvvNvnnbxbbbbbbbbcnbbvvxxMxNN",
"vxvNNNNNNbxxvvvvbbbbbbbnbbbbnnbbvvxNNNNN",
"vxvNNBBBNNxNvvxNbbbbbnbnbbbbbbbxxxvvxNxN",
"xxxvbbNNNNNNNvvvbcbnnnbbbbbbbbbxvvvbMxNv",
"vxxxxvxvNNxNNMBvbcbbBBnbNNbvbnvvvvvBbbbn",
"zvxNNNNxxxxxMBvxbbbnBBbbbbvvvbvvxbvBNbnb",
"vvNNNNNvxxxxvbBvvvxbNBNbvxvvbbbxbbNNNNbb",
"vNxMxMMvxNvNvv%o#lvcnNNNvvBbbvbbbbbNbbbb",
"bbvvxxbnnnbvb$ed->-*XO%klcbbbbnbxxxxvvbx",
"bbMvzvbnnnbbz4HJfpgirq8,.-;@cbnnvvxxbvbb",
"BBbbvvnnnnbbz1GZZpDFCausgpy3Obnnbbvvvxbx",
"BbBbbbnBnnbbxOrV77aSjsuhAjp3&xbbbvxxxbbx",
"vvbbBnnnBnnbNv$= :68qwiCp0ht&bxxxvxvbbbx",
"xxxbnBBBBnbnNNNNccmoX=*2<59,#bxxvNNNBNNx",
"bbbbnnNNbvbbNNNxnbBBxxxc%+O%bbxbbvvBBBbb",
"bbbbbnBbxvbxvbNxvbbbxNvbNNbbbxxbNxvbbvxx",
"bbbbbnnbxxxxNxbxbbbbbbNnBBnnnbbnNxvBNbvx",
"xxbbbbxbxxxxxNbxbnbbbbbbNBnnnnbbMxxNbbvx",
"xbxbbbxxxxxxxNvbbbcclllcxbbbbnbxxxxvbbvx",
"bbbbbbxbxxxxxNbxzk%$$$$$%lbvbnbxMxNxvbbv",
"bbbnbbbbvxxxbnbbl###$$$$$$cbbbbxvMNvvbvx",
"bbbbbbxxbbxxbbbnz##$$$##$%bbbxbbbBvvbxxv",
"bbbbbbbxbbbxbbbNbck%$%%%lnnnxxxbnnbbbxbb",
"bbzbbbxxbbbxbbbbbbbbbbbbbnbbxxxxcbbbbbbB",
"NbxbbxxxxNNxxbvvvNxxNNvvbbnbbxbbxbbxBBbB",
"bbvbxxxxxxNxvNxxvNxNNNBbbbnbbxbbbbbbBBbB",
"xbbvbbbbvxNvxxxvvxxNNNvvbvnvxxvbbBbbBbbb",
"xxbvxxxxxxvxxvxNvxNNNNxxvvxvxvvxbbbbbvbb",
"xbxxxxxxxxxxNNNvNvNNNNxxvbvxxbbvbvbxbxBb",
"NbxxxxxxzxNxxNNvvxxxMNvvnbbvbbbbxxxxbbbb",
"NvxxxbxxxxxxxvvvvbNxxxxNvbbbbbbbxxxxbvNb",
"bxxxbbxxMxxxxxxvxNxxNxxxvvncbbbbbxxvNNBb"
};
