/* XPM */
static char *result[] = {
/* columns rows colors chars-per-pixel */
"40 40 25 1 ",
"  c #2F9D06",
". c #2F9E06",
"X c #7D441D",
"o c #7A421D",
"O c #2E9C05",
"+ c #319F07",
"@ c #32A008",
"# c #7E451D",
"$ c #74401C",
"% c #6C3D1C",
"& c #379509",
"* c #DEA66F",
"= c #D7A06B",
"- c #4D7710",
"; c #655B17",
": c #6E4E19",
"> c #41870C",
", c #8E5A32",
"< c #586513",
"1 c #BD8A56",
"2 c #638C22",
"3 c #AA7846",
"4 c #8E8E3B",
"5 c #CC9662",
"6 c #9E663B",
/* pixels */
"+. OOOOO+@@. +OOOOOOO+@. . O+@+ @@+++ OO",
"    ..++ ++  OOO.+ O @@.  OO +. .  ... .",
"@+..+++. +@@.OOO++. +@@.+.  +...+  .+@@@",
"@+..+++.  .+ OO ..  .@@@@++@@@+@@+..++@@",
"@.. ...   ..  .@+ OO @@@+++@@+.+@.O    .",
"@..  OOO ....+@@@+ O +@@  +@@+..+.  .. .",
"O . ..++ ..O .. ++.  .@+O++ .+.+@+.+@+..",
" .++...+.++  . OO.+   ..O  O .+++..@++. ",
"O ++++  ... OO OO+@.O.... O+.O&  O+@++@+",
"O +@+.+@@@.. ..  +&&&>>>--<<;;32OO @++@+",
"O .@@@+O&&>>---<<;;:::$$$$$$%6=52O +.+++",
"  O><<;:::$$$ooooooooooXoooo$3**4&.+. .+",
"OO-$$oooo#XX###XooooooXXXXooX1**1&+@+ O ",
" &:oooooXXXX##XXoXXXoooXXXXX#1**52++@@ O",
"@-oXXXXXXooX#####oooooXXXXXo#1===2@@@@..",
" <oooooooooooXX##XooooooXXXX#3=*=2>>O+ +",
" ;oXXXXoooooXXXXX####XXXXooo$3=*=,,12O  ",
"O;oXooXXXXXX##XXX##XXXXoXXXXo,=*=,1*1& O",
".<X###XXXXXXXX####XX####XXXXo#1*1,5*=2OO",
"@>#XXoooXXX####XXX##Xoo$$$%%%%,1,,=*=4OO",
" &;XXXXXXXooo$$$$%%%%%%%%%%,3X$X$6=*=4O.",
"O >;$$$%%%%%%%%%%$$$ooooo$#1*3oo$6==*4 +",
"  &<%%%%$$$ooXXooooooooXo$,5*5#o$6=**4O ",
".&;$oXoX#XX##XoooooXXXXXo$,=*=,o$,=**4OO",
"O-$ooooXXXX###XXXooooXXXXo,=*=6oo#5*=2OO",
"O<oXXoooooXXX###oooooooooo,5**3ooo3*1&OO",
"O;oXooooooooooX##XXXXXXXoo#5**3:::;42   ",
"&;XXXXXXXXoX#XXX###XXooooo#1**4&&&&&....",
"O;XXXXXXXXXXX###XXX###XXXXo6==2.+.. OO .",
"+-XXXooXXX####XXX##XXoooooo#34O@.. OOOOO",
"@&:XXXXXXXXXoXXXXX#:::;;<--->&.+        ",
"+ -:XXXX#::;;<<-->>&&&&O+@@@+O      ++@@",
"@.O>--->>&&&O .+.@..@ ...+++ OO.. O .@@@",
"+ O.... .+@.     +..+..+@+. OO.@@@++@@+.",
"   .. OOO..    OO ++@+O.+.OOOO +@@@@@+. ",
"     OOOO..  .. OO@@@@OO  O   OO .+@@+..",
".. OOOOOO . .+@.OO++@@OO.....+. OO.+@@@+",
"+.OOO   O   .@@+... ..O ++ O ++.OOO.+++.",
"@.OO +.OO OO ..  +  .   .. O .+. OO .++.",
"@.OO.@+   OOO OOO+O.+  OO   ..  +. .@@@@"
};
