/* XPM */
static char *result[] = {
/* columns rows colors chars-per-pixel */
"40 40 28 1 ",
"  c #7B431D",
". c #2F9D06",
"X c #309E07",
"o c #319F07",
"O c #7E441D",
"+ c #2E9C05",
"@ c #32A008",
"# c #76411C",
"$ c #2E9B06",
"% c #6D3D1C",
"& c #D9A26C",
"* c #DFA770",
"= c #6F4B1A",
"- c #3B8D0A",
"; c #369509",
": c #CD9863",
"> c #685618",
", c #5D6C17",
"< c #6B8C26",
"1 c #8C562E",
"2 c #9E693D",
"3 c #B88151",
"4 c #527511",
"5 c #5D5F15",
"6 c #43820D",
"7 c #B99054",
"8 c #4E9317",
"9 c #A07740",
/* pixels */
"oX.++$$+X@@X.X+$++$$$o@X.X.+o@o.@@ooo.++",
"....XXoo.Xo..+$$oo.+.@@X..+$.oX.X..XXX.X",
"@oXXoooX.X@@X+$$;8<<<<8;XX..oXXXo..Xo@@@",
"@oXXoooX..Xo.$;<7::&&&:7<$o@@@o@@oXXoo@@",
"@oX.XXX...XX..<:***&****:<o@@oXo@X+....X",
"@oX..+++.XXoo@,3:&&&&&&&34o@@oXXoX..XX.X",
"+.X.XXoo.X+;;8,O12933321 ,o.XoXo@oXo@oXX",
".XooXXXo$8<77:::32 # ### ,.+.XXooXX@ooX.",
"+.ooooX;<:&*&&****2# #  #,.oo..X.$o@oo@o",
"$.o@oX@87****&&&&71# O111,8;Xoo..$.@oo@o",
"+.Xo@@@-23::::732O%O23::&&&7<oo$+$.oXooX",
".+..ooo-%#O111O####3***&***&9$o+++XoX.Xo",
"$+XX+$+-=### # #O##3&&&&&:72>;@X$.o@o.+.",
"+.Xoooo;=#  O   O %O129221O#=;o++XXo@@.+",
"oX.o@@@$>#  O   O %%###  #O =-X$+@oo@@XX",
"XXX...X.5   O   O %% #O   O  6o.+ooXoX.o",
"ooX.$$$+5   O   OO%%  O   O  6@......X..",
"X..$$$+X,       OO%% O O  O  4@oXX.....+",
"...++.X@4#     OOO#%       O ,@XXX....+$",
"XXooooo@4#     O O#%     O O ,..X.++...+",
"..XoooX@6#     O O#%     O O 5$XoX..XXXX",
"+++XooX@6#   # OOO %     OOOO>$o@ooo@@oo",
".++.o@@@-=    OOOO %#    OOOO>;@@oo@@@X.",
"XX..Xo@@-= #OOO OO %#    OO O=-oX.o@@o+$",
"$Xo..ooX;=O OOO OO %#  OOOOOO=-.$.o@oX+$",
"+XoX.+++;>OOOO OOO %#  OO OOOO-@.XXXX.++",
"...X.$$+;>OOOO OOOO%%OOOO OOOO6X.XXoXX..",
"...XX.+.o5 OOO OOOO%%OOOO OOOO4o..XoXXXX",
".oo..oo+$5 OOO  OOO#%OOO  OOOO4XXX.+++.X",
"X@o..@o+.,#     O O#% OO  OOO ,@XX.+$$++",
"ooX..X.+@4#O    O O#%#    O O 5X........",
"o.+..+$+@6#O    O O#% O   O O >$....Xo@@",
"@X++.+++o6#     O O %#O   O OO>$X.+.X@@@",
"o.+...++X-#     O   %#     O O=;@@oo@@oX",
"...XX.++.-=O    OO O%#     O O=-@@@@@oX.",
".....++++;=      O  %#     O O=-XXo@@oXX",
"XX.++++++$5#     O  >=#    O  >;++Xo@@@o",
"oX+$+...+.->#  OOO >-4#   OO =6o+$+XoooX",
"@X+$.oX++..;4>===54;o+65===>,-oX.++.XooX",
"@X+$X@o...++.$--;..Xo.X$---;.o..oX.X@@@@"
};
