/* XPM */
static char *result[] = {
/* columns rows colors chars-per-pixel */
"40 40 91 1 ",
"  c #2B5D1E",
". c #296E16",
"X c #28621B",
"o c #296C18",
"O c #267412",
"+ c #2A7C12",
"@ c #347B1A",
"# c #2A5124",
"$ c #2A5821",
"% c #364430",
"& c #47572F",
"* c #45443A",
"= c #50493A",
"- c #4F742E",
"; c #554741",
": c #544941",
"> c #5C4845",
", c #5F5E42",
"< c #675246",
"1 c #6B5146",
"2 c #6E534B",
"3 c #72574D",
"4 c #745B4C",
"5 c #727043",
"6 c #7C744C",
"7 c #8B694F",
"8 c #906C4D",
"9 c #897F4C",
"0 c #866A51",
"q c #8C6E51",
"w c #9B7154",
"e c #A07652",
"r c #A77B54",
"t c #AA7C54",
"y c #2A850E",
"u c #2C8B0D",
"i c #2E9C06",
"p c #2D920A",
"a c #2E9D08",
"s c #309E07",
"d c #30960A",
"f c #319E09",
"g c #399F0E",
"h c #2B8011",
"j c #399114",
"k c #3D9F11",
"l c #2FA006",
"z c #2FA009",
"x c #32A007",
"c c #33A009",
"v c #3AA00E",
"b c #3EA112",
"n c #409F0F",
"m c #429F14",
"M c #489F17",
"N c #42A114",
"B c #46A118",
"V c #4BA21B",
"C c #53852E",
"Z c #579B27",
"A c #54A323",
"S c #5AA426",
"D c #5BA429",
"F c #62A52D",
"G c #69A632",
"H c #78A73E",
"J c #76A93C",
"K c #7AA83F",
"L c #769246",
"P c #759A41",
"I c #7A9B44",
"U c #7EA941",
"Y c #AF895B",
"T c #B38557",
"R c #B18A5C",
"E c #83AA46",
"W c #8CAB4C",
"Q c #93AB51",
"! c #98AD55",
"~ c #A6AE5F",
"^ c #B68F61",
"/ c #A6AE60",
"( c #ACAE64",
") c #AFA66A",
"_ c #B1AC6A",
"` c #ADB065",
"' c #B0B067",
"] c #B4B06A",
"[ c #BAB16E",
"{ c #BFB272",
"} c #C1B274",
/* pixels */
"aaxaaaiasffssciiiiiisffssssssxalxcxsaaii",
"asiaaxsassfsssiiisiisvfssssssiiassaxxiaa",
"cxxixalsfsfsxiiiffsssxxsssssxsiiaissxxxa",
"csaaacssssfssiisffsisxxxsgsxxxilxsiiaxsc",
"faaaasssssssiaxcffdissxsssfccxssaaiiiiis",
"ffsaaaaassssxxxxxfsssssssfgfxsssxaiiisis",
"aassffsfisaiaaaifffdssssssfsssscxxisssss",
"iasssssssxxaaxsissffsssssfsaasscxiiissss",
"iialxssssssiaaaaffsssssssssdssssiaaliics",
"iaalxcxxxsisaaaasssisssfssissfsiaaialxcc",
"iaasxcccxxisaaaassnMVVvfsssifssiaaialsxs",
"iaaasscsxxxxcaacFQ]}}}(EVssssssiaaasisss",
"iaaiasaixxxxxxbW{/HSDFW][Gvfsfaaisscssfs",
"piaxxxxaiiiilB/'SfiscffnK}Ufasaaisasssfs",
"aalxxxxsiiiif!`Baaaafo usF}Fasaasfxxxxss",
"laliilasixaaK[Aiaaay#;1 fsU[Vassssssssss",
"sxaiiiassssk'EiiiiO%<w7=+sN]Uacsiiiiaiis",
"saliiaassccS}Viiao:4Trtr&pcW`vcxaaiiasss",
"cscaaaffcssK'gii#;0eq8T7<.iF}Bscssaaassi",
"ccaaaacxcsaU(flu,0rRwTq4>XiA}Biaaasiissi",
"aissxxffcsaU'cxp9^YYTq4>$iiS[Viiiaiasssi",
"iisssxxvcsaG}Vxa-RY4w3*.ixiK[Niiasxxccsa",
"sssssvccaalN[Jssu5^42%hassg~Qiisssscccss",
"sssssfxsiaaaQ`vil@6*#ucsssS}Fiissaassaai",
"ssssssssiiiiB`Wsai+OpsffsB_Wvssscasccsai",
"iissssisiiiilF[WbllxsissA(~mffssliaxssii",
"iissssiiiiiiisF'(JVvgjZE[!Bisfssiiiassai",
"ssssssisiiiisxiBQ[{`)){)Pgsssfsiiliisssi",
"ssssssssaaiisfssimFILLC@+dsssssiazlaassa",
"sssssssissaassssiiiuOOOO+ssssiisssaasiia",
"ssisdsissssisisssasiy++ydssfiissssffsias",
"ssisssiisssisissssssssfsssssiissssdfssfc",
"ssissiiiisxaisaaasiixssssfffsidsissiccfc",
"ssassiiiiissssiiaxsxxxcsssffssssssssccsf",
"asssssssaisssiiaaiixxxaasafaiiisscsscsss",
"iasaiiiiiiaiiiiaaixxxxiiapiiiiiissssssss",
"issiiiiiiiaiixxssascxxaisaiiiasisasisiss",
"ssiiiiiiiiiilcsssssisiaafsfisfssiiiissss",
"xaiiisiiiiaiiiasssiixiasasfssfsfiiiasscs",
"saiissiiiiaiiiiaixiixiiiaafaissssiissxcs"
};
