/* XPM */
static char *result[] = {
/* columns rows colors chars-per-pixel */
"40 40 66 1 ",
"  c #1E3C25",
". c #2D3A2F",
"X c #2C3132",
"o c #373736",
"O c #343B33",
"+ c #4A3E3D",
"@ c #21561C",
"# c #225E19",
"$ c #256C14",
"% c #286C17",
"& c #26601B",
"* c #326B1E",
"= c #277413",
"- c #297B11",
"; c #244127",
": c #224A22",
"> c #30432D",
", c #2B5622",
"< c #38522D",
"1 c #3D4B31",
"2 c #414136",
"3 c #4C413F",
"4 c #475330",
"5 c #4E6233",
"6 c #544343",
"7 c #5B4745",
"8 c #575242",
"9 c #614B46",
"0 c #6A5446",
"q c #675148",
"w c #7A5B4C",
"e c #7B644C",
"r c #84634D",
"t c #8B674E",
"y c #856251",
"u c #856C53",
"i c #936D53",
"p c #986F53",
"a c #877154",
"s c #977552",
"d c #9C7253",
"f c #A17652",
"g c #A57954",
"h c #2A820F",
"j c #2C8C0C",
"k c #2C9507",
"l c #2E9C06",
"z c #2E930A",
"x c #2E9C08",
"c c #309E07",
"v c #31950B",
"b c #319E08",
"n c #2B8111",
"m c #2FA006",
"M c #2FA009",
"N c #32A007",
"B c #33A009",
"V c #9F825A",
"C c #AA8256",
"Z c #B38357",
"A c #B2865A",
"S c #B58D5F",
"D c #BB8C59",
"F c #BE9562",
"G c #BF9862",
"H c #C89F66",
/* pixels */
"xxxxxxxxcbbccBxlllkkbbbcbbccccccNBmBxxlk",
"xcNxcxNxccbccclllcllcBbccbcccclxNcxcclxx",
"BNNlNxNlccbcNlllcNNNccNccbccccllxllNNBcB",
"BcxxlNNccbbccllcNNNccNNNbbcBNNccNNlmcNNc",
"bbxxxcccccccllNNNbckccNNbbbbNNcccxlkllxc",
"xbxbxxxxcccccBBNNbcccbNccbbbNNccNxlllcxc",
"xxcccccclccxxxclcbcccccccbbccccBNclccccc",
"lxbccccclNNxxNxlccvbclcccccccccBNlllcccc",
"lxxNNcccccclxxNxcccvccccvcccccccxxxmlmNN",
"xlxmNNNNNcccxxxxcccccccccccccbckxxllmNNN",
"lxxcNBBBNNlcxlxxcccccBbbccccbbbcxlxxlcNc",
"lxxxccNcNNcNNcxcccccBcccccccccccxxxcNlcc",
"llxlllxxNNNNNNcxvckcBBcccNNxcbxxxccBcccc",
"xlxNNNNxlmllcBmxccccBBcccclxxcxxxcxcNccc",
"xxxNNNNclllxxBBxxxxcBBNcxxxxccxxccNNNNcc",
"lxcllmNxlccxxxxxxxxlccNcxcBccxcccccccccc",
"cNmxxxcbxcMlllxxllMxlcNNcxBxlcBcxkllmxcc",
"cxxxlzcbcMMmlllmxlMMxxNxclBcxlBNxxllxNlc",
"NNxcxxbbBcmlllxmmmxmNcllcxcNcccBccxxlccl",
"BcBBxxbBBclmlkmmlkxMNlcNNmlNclxxxclllccl",
"clccBbBbBccNmmmmlkxNNll-%-cllcllxxlxcccc",
"llccbbBBBcxcNNNBmmNNj$:+q2-xxcllxcNNBccx",
"lccccBNNxxNxNBBxmxh&>3wdr+,lcllcccxNBBcc",
"cccccNNNlxxlxBxj=:o9ifgCff4kNllNccxcccxx",
"ccccccccllllml& +wpAV0gCrt1vccccBxcBNcxx",
"kcccccccllllx*eetZDZffsu96,cccccmlxNccll",
"lclcccllllllk5HGCCSZgt73.:-ccbbklllxccxl",
"cNccccllmmklk5FCaqpy9O;@$-jcccccllmxcccl",
"ccccccccxmllx*VGe66>:#=-jcccccccxMMxlccx",
"ccccccclxNllxj<8X @$-jzlcccccccccbxxcllx",
"cclccclclNclxl-@#=njvccbbBccclcccccvcxcc",
"cckcccllccxllxznnzxxcccccbcclcckcccccccB",
"BxlccllllcNxlccllNxcNccccbbcclcclcclBBcB",
"BcxcclllllNllcxxxNclNNccbbvbclccccccBBcB",
"xlccclccxlcNlllxxlxNNNxxccccllxcccccBccc",
"llcllcllllxllclxxlNNNNllxxxxllllcccccxcc",
"cclllllllxmlcBNxcxNNNBlxxxzlxccxcxclclcc",
"ccllllllklmklNNcclcllmlxcccxccBclllccccc",
"NxlllcllllllllxcccllNllNbcccccccllllccBc",
"clllccllmlxxllllcNllNlllxxcxxcccclcxcNBc"
};
