/* XPM */
static char *result[] = {
/* columns rows colors chars-per-pixel */
"40 40 72 1 ",
"  c #263F28",
". c #293B2C",
"X c #353D32",
"o c #383E33",
"O c #3C3938",
"+ c #463F3C",
"@ c #22561C",
"# c #255B1C",
"$ c #285F1D",
"% c #287D0F",
"& c #256B16",
"* c #236218",
"= c #29641C",
"- c #2A691A",
"; c #267413",
": c #297812",
"> c #244724",
", c #254B23",
"< c #2D412B",
"1 c #2E4C28",
"2 c #35472E",
"3 c #255121",
"4 c #2B5224",
"5 c #355D27",
"6 c #384233",
"7 c #366723",
"8 c #464539",
"9 c #4E453D",
"0 c #415131",
"q c #4F6033",
"w c #544442",
"e c #5D4D45",
"r c #624B45",
"t c #6B5246",
"y c #6A5649",
"u c #735749",
"i c #785A4C",
"p c #696844",
"a c #7C6149",
"s c #7F6C50",
"d c #88664D",
"f c #886D4F",
"g c #946E4E",
"h c #8C6751",
"j c #8D6D51",
"k c #916B51",
"l c #957552",
"z c #9C7253",
"x c #9D7E59",
"c c #A27654",
"v c #A57B54",
"b c #AC7F57",
"n c #278E07",
"m c #2A860D",
"M c #2B8B0C",
"N c #2E9707",
"B c #2E9C06",
"V c #2D940A",
"C c #2E9D08",
"Z c #309E07",
"A c #319E08",
"S c #2FA006",
"D c #2FA009",
"F c #32A007",
"G c #33A009",
"H c #AF8157",
"J c #A7845D",
"K c #AE8B5E",
"L c #B28B5D",
"P c #B98C5B",
"I c #BD925F",
"U c #D0A668",
/* pixels */
"CCCCCCCCAAZZZGBBBBBNZAAZZZZNZZZZFGFFCCBB",
"CZZCFCFCZZZZZZBBBCBBZGAZZZZZZZCZZZCFCBCC",
"GFFBBFZBZAAZGBBBZGZZZFFZAGZZZZBZCBZZFFFC",
"GZCCCZFFZAAZZBBZGZZZZFFZAGFFGFZZFZBBFZZG",
"AACCCZZZZZZZBCFFGZZNZZFFAAZAGFZZCCBBBBBB",
"AZCCZCCCZZZZZGFFGZANZZFZZAAAGZZZFCBBBBZZ",
"NCZZAAAABZZCCCZBZAANZZZZZGAZZZZGFZBFZZZZ",
"BCZZZZZZZZFCCFZCZZAAZZZZZAZBZZZFFBBBZZZZ",
"BBDSFZZZZZZBCZCCAAZZZZZZZZZZNZZZBCCSBSGZ",
"NCSFFGFFFZBZBCCCZZZNZZZZZZZZZZZZCCBBFSGG",
"BCCSFGGGFFBZCBCZZZZZZGAGZZZNZAAZBBCCBFFZ",
"NCCCZZGZFFFFFCCCZNZZGZZZZZZZAAAZBCCZBZZZ",
"NBCBZBCCFFFFFFFCZZNZGGZZZGZZAACCCZZGZZZZ",
"BCCSFFFCBBBBZGDBNZZZGGAZZZCCBABNCZCZGZZZ",
"CCSFFFFZBBBBCGGCCCAAGGZZCBCBCZBCZZZGGFZZ",
"SCFCBSCZBFCCCCCCNCANZZGZCZGZZZZZZZZFZZZZ",
"ZZCBNBAZCGDBBBBBBCDSZZZZZZGCBZGZBBBCCBZB",
"ZZSCNNAAZDDBBBBSCBDDZZZZZZGZCCGFCCBNCZZZ",
"GFGCCCZGFZSBBBBSBBBDAZZZZCZGZCZGZZCBBFBB",
"GZZFDDAGGZBBBBCSBBCDZZZZZCCZZZBCZCCBBZZB",
"ZCBZGAAAGZZSFSSSBBCFZCZZZZZZBZBBBCZCZFZB",
"BBZZAGGGGZZZGGGGBBFFZBZZZFZZBZBBCCFFGFZC",
"ZZZZZGGFCCZCZGZZBFFZBZZN%=-MZBBZZZZZGGZZ",
"ZZZZZZGFCCCCZZZBBBSCBm&19ur<mBBFFCCZZCZC",
"ZZZZZZZZBBBBBSZBCZV;4Xrdczdt3ZZZDBZGAZCC",
"BBZZZZZZBBBSZSZBm$29jjkHvdzr,ZZZSBZGZZCN",
"BZBZZZNBBBBBBV&18uzLfagjyw+ :AZNBBBCZZZB",
"ZZZZZZBZBBBm709dbIPbzhtO.@&mZZZZBSBBZZZB",
"ZZZZZZZZCSnqKIJlxHci9X>*mAZZZZZBCCCCBZZC",
"ZZZZZZZBCDMpUPJew9o>#%VBZZZZZBBZBAFCZBBC",
"ZZNZBZBBSDC5sJf6>#:VZZZAAAZZZBZZZAANABZZ",
"ZZBZZZBZCCDm@,#:MCZZZZZAAAZZBBNZZZAAAAAG",
"GZBZCBBBBZFZNNNBBZCBFZZZZAAAZNZZZCZBGGZG",
"ZZCZZBBBBBZZCZBBCFZFFFGZZAAAZBZZZZZZGGAA",
"ZBZZZZZZZBCZCCBBCBCZFFCCACABBBZZZZZZGZZZ",
"BCZCBBBBBBCBZZCCZBFFFFBBCCBNBBBBZZZZZZZZ",
"BZZBBBBBBBBBBFZZZBZGFFCBACBBBAZBZZZCZCAZ",
"ZZBBBBBBBBCBBGZZZBZBFCBCCAABBAZZBBBBZZZZ",
"FCBBBZBBBBBBCCCZZZBBSBBSAAAZAZZZBBBBZZGZ",
"ZBBBZZBBBBBBBBNAZGBBFBBCNBANBZAZZBBZZZGZ"
};
