/* XPM */
static char *result[] = {
/* columns rows colors chars-per-pixel */
"40 40 29 1 ",
"  c #7B431D",
". c #309E07",
"X c #7E441D",
"o c #309F07",
"O c #2E9D06",
"+ c #2E9C05",
"@ c #32A008",
"# c #309D07",
"$ c #78411C",
"% c #2D9B05",
"& c #DDA56F",
"* c #6C3D1C",
"= c #73401C",
"- c #3A960B",
"; c #72491B",
": c #C6955E",
"> c #3D8D0B",
", c #9A663A",
"< c #4F7A12",
"1 c #526D11",
"2 c #BB8955",
"3 c #675518",
"4 c #5E6315",
"5 c #45830E",
"6 c #D7A06A",
"7 c #948D3E",
"8 c #86512B",
"9 c #558E1A",
"0 c #AB7747",
/* pixels */
"o.O++%%+.@@.#.+%++%%%o@.#.#+o@oO@@oooO++",
"OOOO..oo#.oo..+%.o#%#@@oo.+%#oOO.OO...O.",
"@o..ooo...-511<>.@..%><<<>%oo...oOO.o@@@",
"@o..oooo-1;X  $;1-#53;   ;35@@o@@o..oo@@",
"oo.O...%1XXX    =1<; X    $;5@.o@.+OOOO.",
"oo.OO+O>;  X    $=;  X     =3#..o.OO..O.",
"+OOO..@5XX X     ==X X      3-oo@o.o@o..",
"O.oo..o>;X X     =*X XX    X;-ooo..@oo.O",
"+Ooo@@.>;X X     =*X  X     ;>..O%o@oo@o",
"%Oo@o.@-3XXXX  XX$* X X     =>oOO%Oooo@o",
"+O.o@@@#3 X X  XX$*$X X    X=5o%+%Oo.oo.",
"O+OOoo.#4 XX     $*$X X   XX=<@#++.o.O.o",
"%+..+%%+4 XXX  XX *=XXX    X$1@O%#o@o#+#",
"+O.ooo..1XXXX  XXX*=XXX  XXX$1o++..o@@#+",
"o.Oo@@@o<XXXX XXXX*=XXXX XXX 4O%+@oo@@..",
"...###.o< XXX XXXX**XXXX XXX$4+O+oo.o.#o",
"oo.#%%%.5 XXX XX  =*XXX XXXXX3+.OOOO#.##",
".#O%%%+o>;XXXX    =* XX XXX X3-@..OO###+",
"###++#.@>;X XX$   $* XXXXXX$ ;-#..O###+%",
"..ooooo@-3XXXX    $*  XXX$   ;>#.#++###+",
"##.ooo..%3XXXX    $* XXX $   ;>oo.##....",
"+++.o@..#4 X X    $*$X X     =5o@ooo@@oo",
"O++#o@@@#4 X X    $*=X X     $<@@oo@@@.#",
"..OO.@@@O1$X   X  $*=X X     $<@.#o@@o+%",
"%.oOOoo.O1     XXX$**XX      $1#%#o@o.+%",
"+.o.O+++O<  X  X  $**XX   X  $4@#....#++",
"OOO.O%%%#5  X$   $$** X   X  $4+#..o..O#",
"OOO..O+#@>; $$XXX =** X$  X  $3%O#.o....",
"OooOOoo+%>;X,0222208* X$X X$$$3-..O+++O.",
".@oOO@o+O-,26&6&&&&2=$ =$$$$==;-o.O+%%++",
"oo.OO.O+o-7&&&&&&&:,*=X8,,,,,8;>.#######",
"oO+OO+%+o@-7:::20,8=$,2:66666:0>.###.o@@",
"@.++O+++Oo@#-4XXX$ =,6&&&&&&&&7-.O+O.@@@",
"oO+OOO+++.o.O4$  $ =,6&&&6&6:79@@@oo@@o.",
"OOO..O+++O.OO4$$X888;8,027799-Oo@@@@@o.#",
"OOOOO++++OOOO4802::::2,81%%OOO++O.o@@o..",
"..O++++++OOOO<:&&&&&&&&:<OOOoo.O++.o@@@o",
"o.+%+OOO+OOO@9:&&&&&&&629oO+Ooo.+%+.ooo.",
"@.+%Oo.++O++O#977:::277>#.O+O.o.O++O.oo.",
"@.+%.@oOOO+%+OO%------%O+###..##o.O.@@@@"
};
