/* XPM */
static char *result[] = {
/* columns rows colors chars-per-pixel */
"40 40 141 2 ",
"   c #040302",
".  c #0A0603",
"X  c #070B05",
"o  c #0B0904",
"O  c #0C0D0A",
"+  c #120A02",
"@  c #1C0E02",
"#  c #110F0B",
"$  c #0D140B",
"%  c #141105",
"&  c #1A1405",
"*  c #13160C",
"=  c #111A0C",
"-  c #141E12",
";  c #241405",
":  c #2A1603",
">  c #241B04",
",  c #321B04",
"<  c #3C1F03",
"1  c #221C15",
"2  c #251F19",
"3  c #1A2617",
"4  c #1C2C17",
"5  c #1E2D18",
"6  c #1D3117",
"7  c #1E3219",
"8  c #2D2303",
"9  c #2A230A",
"0  c #332603",
"q  c #3E2003",
"w  c #3D2D02",
"e  c #27211A",
"r  c #2A231A",
"t  c #2E291E",
"y  c #21331A",
"u  c #253B1D",
"i  c #29391B",
"p  c #542C04",
"a  c #5D2F04",
"s  c #423303",
"d  c #4A3701",
"f  c #5D3104",
"g  c #523F03",
"h  c #50340B",
"j  c #643404",
"k  c #693704",
"l  c #6C3A04",
"z  c #763F04",
"x  c #793F04",
"c  c #27431C",
"v  c #28431F",
"b  c #2C4421",
"n  c #324B29",
"m  c #325527",
"M  c #335A25",
"N  c #35562A",
"B  c #3B5329",
"V  c #3A582D",
"C  c #3F662F",
"Z  c #4A430D",
"A  c #5A4401",
"S  c #55480B",
"D  c #604602",
"F  c #644B02",
"G  c #694E03",
"H  c #774104",
"J  c #794204",
"K  c #7A4B03",
"L  c #6C5202",
"P  c #725703",
"I  c #7C5302",
"U  c #755901",
"Y  c #7D5D01",
"T  c #7E6000",
"R  c #564836",
"E  c #564738",
"W  c #574838",
"Q  c #436B33",
"!  c #447234",
"~  c #4A7336",
"^  c #487837",
"/  c #497738",
"(  c #4A7839",
")  c #675541",
"_  c #695642",
"`  c #805E01",
"'  c #816101",
"]  c #826A51",
"[  c #2C9706",
"{  c #279805",
"}  c #2D9D07",
"|  c #2D9509",
" . c #2E9C08",
".. c #309D06",
"X. c #30970A",
"o. c #329E09",
"O. c #399E0D",
"+. c #398F19",
"@. c #359A12",
"#. c #3A9C14",
"$. c #3E9C1D",
"%. c #2FA006",
"&. c #2FA009",
"*. c #32A107",
"=. c #34A109",
"-. c #39A30B",
";. c #37A112",
":. c #3CA212",
">. c #3FA21C",
",. c #429E1F",
"<. c #40A616",
"1. c #43A21C",
"2. c #4A8F2F",
"3. c #419623",
"4. c #449C22",
"5. c #4A9D26",
"6. c #47992D",
"7. c #4B982E",
"8. c #478830",
"9. c #4C8439",
"0. c #4F8A38",
"q. c #508E3B",
"w. c #4E9036",
"e. c #4F9A33",
"r. c #519A37",
"t. c #51903B",
"y. c #539A38",
"u. c #47A220",
"i. c #4CA22D",
"p. c #588B42",
"a. c #5C9144",
"s. c #AE8D6D",
"d. c #B29170",
"f. c #CAA67F",
"g. c #CFAA81",
"h. c #D2AB83",
"j. c #E5BB91",
"k. c #F2C599",
"l. c #F6C99A",
"z. c #FBCC9D",
"x. c #FFD1A0",
/* pixels */
"o.o.} } } } } } ..*.*.....*.o.} } } } [ o...*.........} %.%.....*...*.o.o...} } ",
"} } } %.%.} *.o.} } o.o.%.o.} [ ..o.} } o.*.o...X.} o.} } } } } } o.} o.*.....o.",
"} %.} o.o.} *... .o.*.*.....} } *.*...} o.o.*.} *.*.} } o.*.} } } *.o.o.} *.*...",
"*.*.o.} } *.*...} *.o.} } } } o.*.*.o.} *.*.*.*.=.*...-.*.*...*.} *.} } *.....*.",
"*...} o.o.} } o.o.} *.%.} } *.*.o.o.....o...=.*.o.*...=.=.o.......} ..} o.} } } ",
"} } ..} } o.[ } o.} %.*.} *.=.*.*...} } ....=.*.....O...*.=.} o.o.} } } } o.} *.",
"} } *.} } *.o.*.} } .. .} *.o.} ....o.} o.o.*.*...o...o.o.*.o.o.*.} *.*.o.o.o.} ",
"} o...*.o.....o.o.*.=.} o.} } } ..o.o.X.| X.X.#...o.} } } o.....*.} ..} *...o.o.",
"} } } *.*.*...o.} o.*.} } o. . .o.O.M 7 y y y N @. .} o.} o.o.} } o.} *.%.} *.*.",
"} } o.} ..*...-.*...} o.} }  .} } o.7 O b u X y $. .} o.%.*.} } } } } o.%.%.*...",
"} } } *...*.*.*.*...} ..o.} } X.} X.7 = p.p.= 5 5.o.o.}  .o.o.[ } } } } %.} *...",
"} } } } o...o...*.*.....*.} } o.o.| 7 - a.a.= $ n ! 1.} *.*.-.*.o.o...o.} } ..o.",
"{ } *.} } } } ..*.*.o.*.*.=.o.} } } 4 $ Q Q 9 @ X 7 4.*.i.e.7.6.3.@.| ..*.} } o.",
"} } ....*.*.....o.O...} *.*.....*.| 7 O X & f f + 6 4.4.b $ = = = = $ c X.o.*.o.",
"} } ..*.*.*.*.*.[ ......} *.*.} }  .e.9.- + k k + = Q Q $ . w d d w + y -.*.*.*.",
"} o.*.} } } ..*.} ..*...[ } ..o.} &.;.$.y + p p +   # & + > L T ` L # 4 3.o.o.} ",
"o...o.}  .[ } } o.o.*.o.{ } X. .} } =.4.6   + +   + p j j l Y ` ' L % . 4 m #.} ",
"o.} } }  .} } } } =.=.&. .} &.o.} =.r.9.3   : , , < l x x J Y T T P s 8 o y 5.*.",
"..*.} %.} } o.o.o.o. . . .| X.o.X.$.u # . @ j x z z z z J J Y Y T Y T G % y 4. .",
"O...%.%.o.o...o.=.*.=.;.C N N B V B h p p a z H z z x x I Y ` T T T ' L & y ,.o.",
"} } ....=.o.o.o.$.4.4.w.3 . ; ; ; , l J x x x z z x K K Y T T T ' Y F S B Q 1.o.",
"} ..} ..o.o.-.#.v $ $ $   + a l k z z x x x x x z K I Y T Y T T T G & y i.:.o.} ",
"....} o.*.-.0.Q $     . < p z x x z z z x z H H K I T T T T T U s 8 . y 1.=.} *.",
"*.} ..[ | 4.5 o e 1   o p j j k z z z z x z H K Y ' T T T Y L A o . 5 N 1.o.} } ",
"} *.....m y . 1 d.d.1   + + + ; k x z z x J I Y T T Y T T L 9 * X 5 e.1.=.o. .} ",
"} [ ..X.y * E ] j.j.] ) _ E O + j x z z K I ` ' ' U g d d Z ~ / ( 9.1.*.*.} o.} ",
"%.} *.| 7 r f.l.l.l.k.k.z.g.2 . j J x K Y Y U U U F % . * n 5.X. .O...} } } o.} ",
"} ..%...y r h.z.z.z.z.z.z.h.2 + j J I Y ' P 0 > > > X 3 w.i.-.} } *.} } o.*.} } ",
"o.....o.y r f.z.z.z.l.l.z.h.e + l K A A A d . O n V N ! 1.&.o.} %.*.} } } } } ..",
"o.*.*.| y r h.z.l.l.z.z.l.f.e + G G & o % $ X u 5.:.#.:.} } } o.} *.} } ..} } o.",
"} o.*.| y r h.x.z.x.z.j.] W # . 8 0 o - 9.t.0.r.<.-.*...} ..*.} [ *.o.} ..o.} } ",
"*.} o.X.4 1 s.h.g.g.h.s.1 X 4 y y y y N @.=.=.O...} *...} } ........o.o.o...*.-.",
"..o.} ..y O r t t t t r O 5 +.| [ X.|  .} } ....o.} ....o.} } *.} } } } -.......",
"*.} } X.8./ ^ ^ ^ ^ ( / / 9.o.%.} *.*.*.o.o.o.*.o.} *.*.} } } o.*.%.....*.*.=.o.",
"} *.} *.o.o.=.*. . .o.=.O.o. . ...} ..} o.*.} o.o.} } } } } *.} *.=.*.*.*.} o.} ",
"} o.} } } } } } } } } o.} %.*. .} } ..*.*.} } } } } } } } } *.} } ..%.} *.} } *.",
"} %...*.} } ..} } } o.}  .=.o.o.o.} *.o.*.*.} } } *.} *.o.} } } } } %.} *.o.} o.",
"=.} } %.} } } *.} o.} } } =.%.o.....} } ..*.} } o.*.} X.} *.*.*.o.} } } o.*.o.o.",
"*.o.[ { *.o.} [ } } } } [ ..} } ......} o.....o.o.o.} } o.*.} ....[ } %.} } =.*.",
"*.} %.} } o.o.} } } } %.} ..} ....o.} o.*.} } ..} } o...} o.} ....o.*.*.*.=.*.o."
};
