/* XPM */
static char *result[] = {
/* columns rows colors chars-per-pixel */
"32 32 17 1 ",
"  c #38A37F",
". c white",
"X c #35A27E",
"o c #3EA683",
"O c #F3FAF7",
"+ c #FAFDFC",
"@ c #ACD9CA",
"# c #54B091",
"$ c #79C1A9",
"% c #D9EEE7",
"& c #65B89C",
"* c #8CCAB5",
"= c #E9F5F1",
"- c #49AB8A",
"; c #9DD2C0",
": c #C7E6DB",
"> c #BCE0D4",
/* pixels */
"................................",
"................................",
"..............O==O+.............",
"..........+%@$&##&$;%+..........",
".........%*-XXXXXXXX-$%.........",
".......+@-XX         X-;O.......",
"......O*oX            X *O......",
"......;        XX        *+.....",
".....>oX     Xo$&X       o@.....",
"....=&X    Xo&;+:&-X     X#=....",
"....@     X#>O...+%*o     X;....",
"...O$X     >..O+...>o     X&O...",
"...%-X   X#=.=$=>;:&X      o%...",
"...:o    X#=.O;O;Xo         @...",
"...@      o:....=>$o       X;...",
"...@X     X#:+....+@o      X*...",
"...@X      Xo$@+O+.+$X     X;...",
"...>       &$o#=@@..*X      @...",
"...%-    X#%+:@O>:..$X     o:...",
"...O&X   X$O......+%-X     #=...",
"....@     o&@%O.+=@#X     X;....",
"....=#X    X -$+># X     X-%....",
".....@o      X#:*X        ;.....",
".....+*        oo       X$O.....",
"......O$               X$=......",
".......O*oX          Xo*=.......",
".........:&oXXX  XXXo&>+........",
"..........O:*&#--#&*>O..........",
".............O=%%=O.............",
"................................",
"................................",
"................................"
};
