/* XPM */
static char *result[] = {
/* columns rows colors chars-per-pixel */
"40 40 30 1 ",
"  c #2E9C06",
". c #2F9D08",
"X c #309E07",
"o c #319E08",
"O c #2FA009",
"+ c #32A007",
"@ c #33A009",
"# c #36A112",
"$ c #3BA314",
"% c #3FA61A",
"& c #45A622",
"* c #49AA25",
"= c #52AD2F",
"- c #5DB43D",
"; c #62B543",
": c #66B846",
"> c #7BC261",
", c #85C66B",
"< c #96CD82",
"1 c #99CF84",
"2 c #A2D48F",
"3 c #A3D491",
"4 c #AED99E",
"5 c #BEE1B2",
"6 c #CCE7C2",
"7 c #DCEFD6",
"8 c #EBF6E7",
"9 c #F0F8ED",
"0 c #F5FAF3",
"q c #FFFFFF",
/* pixels */
"........ooXXX@.     o@@XXXX XXX.++++..  ",
".XX XX+.XXXXXX      o@@XXXXXXX X.+.+. ..",
"@+OXXO. oooX+   XoXX+++XX+XXo   . .++@++",
"@X..XX++XooXX  XoXXXX++++@X+oo  +X  X+.+",
"oo...XXXXXXX .++X@   Xo+++@@ooXX.      .",
"oX......XXXX.@++@X.  XXX+@@XoXXX+.     X",
"..XXoXoo XX .+X.ooo. XooX+XXoooo+. ++XXX",
"  XXXXXX ++.... XoooX XXX+oXXooo+  .XXX ",
" . .+XXXXXX ..X.ooX XXX XXXX X X ..+  ++",
". .O+++++XX  ...XXX XXXXXX  Xoo .. .++++",
"  .X+@@@++ +.  OXX  Xo XXXX ooo  . .O++.",
" ...XX++++ ++X..X   XX XXXXXoo.. ..X   +",
"  .    .+++X++..  &;;-$ XXX .o...XX@XXXX",
" ..++++  +  +@. =270096,$    o. .X.XoXXX",
"...++++.    .OX>7qqqqqqq5=   X  XX+@@+XX",
". .  O+. .O.. ;8qqqqqqqqq5&Xo ooXXXXXXXX",
"XX.  .ooX@+. #5qqqqqqqqqq0,   oo    .. X",
"XX.  .ooX+X. ;0qqqqqqqqqqq6%  oo..  X.XX",
"@XX...ooXX.. <qqqqqqqqqqqq9- XooXX...XX ",
"@Xoo..o@@X   2qqqqqqqqqqqq0; XXoX. . .X ",
"X.XX+ooo@XX++2qqqqqqqqqqqq0; X  ....XXX ",
"  XXo+@@@XXX+>0qqqqqqqqqqq7&    .XX@oXX ",
"XXXXo+++..XX *7qqqqqqqqqqq2XX  XXXXo@@Xo",
"XXXXX@@X....X+,0qqqqqqqqq7=XX  XX.XXXX  ",
"XXXXXoXX     +#40qqqqqqq8>XoooXoX.X@oX..",
"  XXXX X    . X#,7qqqq05;oXXoXXX. XXXX. ",
" X XXX       XXX *>231:oXXoXXXo   XXXXo ",
"XXXX XX     X+X     XXXoXXXXooX    XoXo ",
"XoXoXoXX..  XoXX    XX  oXXXX XXXoX XXXX",
"XXXXXXX  X. XXXo  X X X ooXoX  XXoX. X X",
"oX   X  XoX XXXXXXX XXoXoXXX  XXXXo.  Xo",
"oX X X XXXX X .XXXX XooXoXXX   XXXX o o+",
"oX XX    XXX o.  X. +XXXXooo  Xo X  $XX@",
"oXXXX     XXXo  .+XX++@XXXoo  oooooX+oXX",
" XXXXXXX   o.. ... O++..o.o.   XoooXooXX",
"  XX      .  . .X ++++  ..      XXoXXXXX",
" X           +XXX.++++. ..   oX X X XXoX",
"oX        .  @XXX X  ...oo..XoXX    X oo",
"oX   X    .  .XXXX  + ..... Xooo    XXoo",
"o   XX         .X+  +   . .   XoX  Xoooo"
};
