/* XPM */
static char *result[] = {
/* columns rows colors chars-per-pixel */
"40 40 63 1 ",
"  c #28372D",
". c #3C3D37",
"X c #463F3C",
"o c #25591D",
"O c #287C0F",
"+ c #256B16",
"@ c #246319",
"# c #2D641D",
"$ c #276818",
"% c #2B6C19",
"& c #277413",
"* c #287611",
"= c #297B11",
"- c #264A25",
"; c #2C432A",
": c #30402E",
"> c #334B2C",
", c #275122",
"< c #3D4036",
"1 c #3B4C30",
"2 c #396327",
"3 c #434B35",
"4 c #45413B",
"5 c #4E463D",
"6 c #484E3A",
"7 c #5B4A3E",
"8 c #475C31",
"9 c #5C4A44",
"0 c #5E5642",
"q c #695146",
"w c #6C524A",
"e c #71554A",
"r c #7D5E4E",
"t c #7D634E",
"y c #84634C",
"u c #8A674D",
"i c #8B6651",
"p c #946D51",
"a c #847051",
"s c #947353",
"d c #9F7453",
"f c #9C7856",
"g c #A17655",
"h c #A67B55",
"j c #A97B55",
"k c #29840E",
"l c #2C8D0B",
"z c #2C9507",
"x c #2E9C06",
"c c #2D9409",
"v c #2E9D08",
"b c #309E07",
"n c #319E08",
"m c #2FA006",
"M c #2FA009",
"N c #32A007",
"B c #33A009",
"V c #AC875C",
"C c #AD8A5D",
"Z c #B18256",
"A c #BF915D",
"S c #B18F60",
"D c #C49A64",
/* pixels */
"vvvvvvvvnnbbbBxxxxzxbnnbbbbbbbbbNNNBvxxx",
"vbbvNvNvbbbbbbxzxNxxbBnbbbbbbbxxvNbvNvvv",
"BNNxNvbxnnBbbxxbbBNbbbNbbnnbbbxxvxxNNNNb",
"BbvvxNbNbbnbbxxbNNbbbNNNnBNBBbbbNNxmvNbB",
"nbvvvbbbbbbxxvNNNnzbbbNNbnnnNNbbbvxzxxvb",
"nbvnbvvvbbbbvBNNNnnbbbbbbnnnBbbbNvxxxbxb",
"zvbvnnnnxbNvvbbvbnncbbbbbnbnbbbBNbxbbbbb",
"xvbbbbbbbbNvvbbxbnnnbbbbbnnnbbbBNxxvbbbb",
"xvvNNbbbbbbbvvbvbnbbbbbbbbbbbbbbxvvmxmNb",
"vxmmNNNNNbxbxvvvbbbcbbbbbbbbbbbbvvxvNmNN",
"vvvvNBBBNNxbvxvNbbbbbBnnbbbcnnnzvxvvxNbb",
"xvvvbbBbNNbNNvvvbbbbBnbbbbbbbbbbxvvbxbNb",
"xxvxxxvvNNNbNNNvcbzbBBbbbbbbbbvvxvbBbbbb",
"xxvNNNbvxmxxNBvvbbbbBBnnbbxvnbvvxbvbNbbb",
"vvbNNNNbxxxvvNBvvvnnBBbbvvvxvbnxbbNBBBbb",
"vvbxxmmbxbbvvvvvzvvxbbBnbbBbbvbbbbbbbbbb",
"bbvxxvnnbMMxxxxxvMMxbbnbbbBvxbBbxzxvvxbb",
"bbmvxznnbMMxxxxmxxMMbbbbbbbNvbBNvvxvbNbb",
"BBBvzvbBBbmmxzxmmmvMbbbbbvbBbbbBbbvvxbxx",
"BbbbBMnBBbxxmxmNxzvBbbbbbvvbbxvvvbxxxbbx",
"vxbbBnnnBbvNmvmmxzvNbvbBbbxvvbxxvvxvvNbb",
"vxbbnBBBBbvbNNNNmmbNbxbbbNNbxbxxvbNNNNbv",
"bbbbbnNNbvbvNBMmxbNNxxbl+%kbbxxbbbbNBBbb",
"bbbbbBNNvvvxvmBxxmNxl*o3qq;cbxxNNvvbbvvv",
"bbbbbbbbxxxxmmvxxzO#19ydgu7%NbbbMxbBBbbv",
"xxbbbbzbxxxxmxvk$>5yfpgZdjy#bbbbmxbbbbvz",
"xxbbbbbxxxxxz%-<epjVsyhfqeX*bnbbxxxvbbbx",
"bbbbbbxbxxxx#aVyZAAZjdr9.;$zbbbbmvxvbbbx",
"bbbbbbbbvmxz8DAStshiw4:o&lbbbxbxvMvvxbbv",
"bbbbbbbxbvvx2SSC9w9:,+kxnbbbbbbbbbNxbxxv",
"bbxbbbxbbNNv=6t0 ,+kcbbnnBbbbxbbbbbcnxbb",
"bbzbbbxxbmvvv&@+kczxbbnbbnbbxxzbbbnnnnnB",
"BbxbxxxxxbNvxbbxvNxxNxbbbnnnbzbbbbxbBBbB",
"bbvbbxxxxxbbxbxvvNvNNNbbnnnnbbbbbbbbBBbn",
"bvbbbbbbbxvNxxzvvxbbNNvbnvnvxxxbbbbbBbbb",
"xxbvxxxxxxvxxNvmbvNNNNxxvnzxxxxxbbbbbbbb",
"xbxxxxxxxxmxvNNBbxbNNNvxvnxxxnbxbvbxbbbb",
"bbxxxxxxxxxzxNNvbxbvNvxvvnnxxnbnxxxvbbbb",
"NxxxbbxxxxvxxxvbbbxxmxxNnbbbnbbbxxxvvbBb",
"bvxxbbxxxxvxxxxxbNxxNxxvxcnvxbnbbxxbbNBb"
};
