/* XPM */
static char *result[] = {
/* columns rows colors chars-per-pixel */
"40 40 97 2 ",
"   c #2A3D2D",
".  c #323833",
"X  c #443C3C",
"o  c #276B16",
"O  c #256419",
"+  c #267313",
"@  c #2A7515",
"#  c #297B11",
"$  c #32771B",
"%  c #38751F",
"&  c #294E24",
"*  c #2C412C",
"=  c #2D4B28",
"-  c #33432F",
";  c #2B5722",
":  c #2E5922",
">  c #36522A",
",  c #3D582C",
"<  c #396B23",
"1  c #3C6028",
"2  c #3B7622",
"3  c #484A37",
"4  c #424139",
"5  c #4F453F",
"6  c #534B3E",
"7  c #5C5F3F",
"8  c #437E24",
"9  c #45722B",
"0  c #47792A",
"q  c #516835",
"w  c #517733",
"e  c #5B7A3B",
"r  c #65703F",
"t  c #60783F",
"y  c #564543",
"u  c #574A41",
"i  c #584A41",
"p  c #6D524A",
"a  c #725648",
"s  c #745B4D",
"d  c #7B5C4E",
"f  c #7B6049",
"g  c #76694C",
"h  c #84644D",
"j  c #80684E",
"k  c #8F6B4E",
"l  c #8D6751",
"z  c #876D50",
"x  c #8C6D53",
"c  c #956D54",
"v  c #8C7255",
"b  c #9B7455",
"n  c #A27653",
"m  c #A57A54",
"M  c #AC7E55",
"N  c #2B830F",
"B  c #2B8C0B",
"V  c #2B9607",
"C  c #2E9C06",
"Z  c #2D930A",
"A  c #2E9D08",
"S  c #309607",
"D  c #309E07",
"F  c #319E09",
"G  c #389D0E",
"H  c #2F8611",
"J  c #338615",
"K  c #358914",
"L  c #3D9713",
"P  c #3D9A13",
"I  c #2FA009",
"U  c #32A007",
"Y  c #33A009",
"T  c #409A16",
"R  c #43951A",
"E  c #48961E",
"W  c #44991A",
"Q  c #4F8F28",
"!  c #538F2B",
"~  c #588E2D",
"^  c #4D9423",
"/  c #519327",
"(  c #549329",
")  c #5B8535",
"_  c #5C8E32",
"`  c #5A9130",
"'  c #628C37",
"]  c #AF8054",
"[  c #A58158",
"{  c #AD8D5F",
"}  c #B28356",
"|  c #B48859",
" . c #BF935E",
".. c #BC9562",
"X. c #C19660",
"o. c #C49C66",
"O. c #CBA165",
/* pixels */
"A A D A A A A A D F F D U Y C C C C C V D G Y D D D D D D U A A U U U U A A C C ",
"A D C A U A D A C D F D D D C C C A C C F Y D D D D D D D D C A A U A U D A A A ",
"Y U U C U A U A F F Y D D C C C D Y D D D D U D D F D D A U C C A C D D U U U D ",
"Y D A A A U U D D D F D C C C U Y Y D D D U U U D D D U U U C U U D C C A U D U ",
"F A A A A D D D D D D C C A U U Y F S C D D U U D D F F Y U D U A C C C C C C A ",
"F F D A A A A A D D D D A Y Y U Y D D D D D Y D D G Y F U U C D U A C C C C C D ",
"A A D D D D F F C D U A C U D C D D D S D D D D D F D D U D D U U A A U U D D D ",
"C A D D D D D D D D U A A A A C D D F F C D D D D F D C A A D Y U C C C D D D A ",
"C A A I U D D D D D D C A A D A F F D S D D D D D D D S C D D A C A A U C C U U ",
"C C A A U Y U U U D D C A A A A F F F T F D D D D D D D D D D C A A C C U U U U ",
"C C A U U Y Y Y U U C D A A A F R _ ' ' R F D F G D D D Y D D A C A A A U U U A ",
"C A A C D D Y U U U U U I A L ` _ R G F F F D D R E D D D D D C C A A D C C C U ",
"C C A C C C C A U U U U U P ` R D C V D Y F D D F Q ( D A A A A C D A Y D D F D ",
"A C A U U U D A C C C C P ( P C D A D D Y Y S H ; > 9 / D D A A A D A D D D F D ",
"A A A U U U I A C C C C W P D A A A A D S $ > 6 d a   0 E A D A D D U U Y U D D ",
"C C D A A U C U C I A D D A A F A I Z + = i l n n k h 1 ! G D D D D D D D D D D ",
"D D A A C C C D D D Y A C C A A V + = y h n n M } n n 3 8 R Y F C C C C A A C D ",
"D D I A V C A F F Y D G V C Z @ = u j b [ f n | h p a   K ^ Y Y A A C C A D D D ",
"U U D A A A F Y D Y P W V o * 4 l m } ] m m n x s X   @ F / F Y D D A A C D D C ",
"Y D Y D I A F Y Y D L P o g { g M ..X.| M c d y - O B Y F E D D A A D C C D D C ",
"D A C D Y F F F Y A P E ,  .O. .z s b c s 5   O B U D D S / D C C A C A D D D D ",
"C C D D F Y Y Y Y D L ^ < { { [ v p p 4 & # S F D D U C L / C C A D U U Y D D C ",
"D D D D F Y Y U A A A ( K g o.X.f . ; # V D D D A U D A L R C D D D D Y Y Y D D ",
"D D D D D F Y D C A A R E J q 7 : H A A C D F D D D D D Y C C U D A A D D A A A ",
"D D D D D D D D C C C C ( L B B C D A A D D Y Y Y Y F F F D D D A C D Y U D A A ",
"C C D D D D D D I C C C P ^ F D D D D D A A D A D Y F D F F D D I C D U D D C C ",
"C D C D D D V D C C C C D F F F A A D S B B B Z F G D D D Y D D C C C D D D A C ",
"D D D D D D C D C C C C D U G ^ ~ R J # @ @ $ 0 e R D A D D D S I C C A D D D C ",
"D D D D D F D D A A C C D F D F R ) t e e e r w % # D D D D D D A I I C A D A A ",
"D D D D D D C C D D C C D D D D C Z $ % 2 % @ + # N D D D D C D D D A A D C C A ",
"D D C D D D D C D D D C D D D D A D Z N # # # J B F F D D C D D D D D F D C A D ",
"D D C D D D C C D D D C S D D D D D D D D V D F D F D D C D V D D D S F F D F Y ",
"D D C D D C C C C D U A C D A A C D A C U C D D D F F D D C D D C D D C Y Y F Y ",
"D D C D D C C C C C U D C D C C A U D U U U D Y D D F D D C D D D D F D Y Y D Y ",
"D A D D D D D D A C D D D C C A A C C U U U A A F A F A C C A D D D D D Y D D D ",
"C A D C C C C C C C A C C A C A A C U U U U C C A A A A C C C C D D D D D D D D ",
"A D A C C C C C C C C C C U U Y D A Y U U Y C A A A V C D D D F D A D A D A F D ",
"D D C C C C C C C C A C C U U A D C A C C D C A F F F C D D D D C C C C D D D D ",
"D D C C C D C C C C A C C C A D D U C C U C A A A D F D D D D D C C C C D D Y D ",
"D A C C D D C C C C C C C C C C C U C C U C C C C V F D C D D D D C C D D D Y D "
};
