/* XPM */
static char *result[] = {
/* columns rows colors chars-per-pixel */
"40 40 20 1 ",
"  c #2E9D06",
". c #2F9E07",
"X c #2E9C05",
"o c #319F07",
"O c #32A008",
"+ c #C6F0DB",
"@ c #309D06",
"# c #2D9B05",
"$ c #319E07",
"% c #C8F1DD",
"& c #47A340",
"* c #C3EDDB",
"= c #3CA41B",
"- c #95D0A8",
"; c #B7E6CF",
": c #ACDEC3",
"> c #61AC73",
", c #7AC083",
"< c #359D1B",
"1 c #6BB182",
/* pixels */
"    XX#XOOo.OO.#XX##XOOXX X OO..OOoo.X##",
"    ..o.X@ooo.X# o@#@Oo ..XX..X .....   ",
"OOo.ooo.#@OOo X oOO$@OO$oo..o.X . .oOOoo",
"Oo. .oo$@@o.X# OoOo@@OOOoOoOOO.oo. ..ooo",
"o. X @@X@@@ XXoOOoX#@OOO@$oOOo.o.X##XXX ",
"..  XX##@$$.oOOOO$X#XoOo@$ooO$@$o XXX  .",
"#X ..@$$X@.  ..X@@@#X.Oo@oo@$..OO. .oo.o",
"X.OOo.@$@oo X..##@$@X ..#$@#X.oOo  ...  ",
"  oOO$@@ . #X..X$OoX@@XXX. @X.  X  ...oo",
"#X.OOOOOOo.  XXX.o@X$o$$    oO.X . oOOOO",
"#X .OOOOOO.o.##. X#XoOoO$  XOOoX#X# ..o$",
"#XX .$ooOOoOO X<&&<#ooXX .o ...X#  ..@o$",
"##X   XXOOooO=,-::-1&=&>>&=. . XX..Oo@o$",
"#X.ooo. X  XO-+*%%%*;:;**;-=Xo XX. oO$o@",
"..oOOOO.##X#&;%+++++%%%++%%,#.  .ooOOOO$",
".....oo. .oX>*++++++++++++*-< o.X .oo@$$",
"$$. XXXX$ooX>*++++++++++++%:& O$### .@@@",
"$$.X##X $Oo &;%+++++++++++%:&.Oo X# .$@@",
"Ooo.  .oo$o =:%+++++++++++%-<.$o.. X .@X",
"Ooooo$oOO$@ &;%+++++++++++*1# XX   XX@@#",
"  @oOoooO$. 1*+++++++++++%;&X.X#X   .o.X",
"##X$oOOOOo.$,+++++++++++++:= . X .oOOOo ",
"  @@$OOO  .<-%+++++++++++%;&. Xo...oOO..",
"Oo$@@oOo#X <-%++++++++++++*>.X#OoX $$.  ",
" .@$@o$. XX#,*++++++++++++*>@@Xoo#$Oo@. ",
"#XXo$oXX   @>*%++%%%+++++%;&@$@X.X$O$@.#",
"  X$@$XX  XXO-;**;:;*%%%*%-O@Oo#   .@. #",
"oo@$@o  . #X O&>>&=&1-::-,=X OoX...  o.#",
".o$Ooo  ..#X o ###  X<&&<@ XX . .O.X . X",
".$ $@o X.o.  .$$X ..    oo.. X .oO.#XX#X",
"o.X@X$  .oo   $o.......ooOOo X@$.o$X@XXo",
"o@X.@$X ...XX .....   .$XoO$XXXXX$@@o@@O",
"O #..## ..OXXo.X#o .O@@@@@$$@X@$  X#Oo.O",
"o  ..XX...o@ .XX o.oOOoo$@@$@X$oOoo@OO.o",
"  ...... X..  X  X .oo@@@    X .oOO$O$ .",
"X . X  XX#   . ..XOOOOX# XXXXXXX..o@o .@",
" . ##X X#X.X Oo.oXOOOO #  XX . X X. . o$",
"o. XX  X#X.# Oo@@X  ..  ..@ .oo.X#X .@o$",
"O X .. XXX   .XX@o  o .o@@@@$oo$ #X ..O@",
"$## o.XX@X . ####OX OXX ##XXX@$$oX.ooOO@"
};
