/* XPM */
static char *result[] = {
/* columns rows colors chars-per-pixel */
"40 40 15 1 ",
"  c #2F9D06",
". c #309E07",
"X c #2E9C05",
"o c #319F07",
"O c #33A10A",
"+ c #C7F1DC",
"@ c #4BA741",
"# c #3FA423",
"$ c #61B164",
"% c #ADDEC6",
"& c #BCE9D3",
"* c #A8DFB3",
"= c #95D1A3",
"- c #78C56E",
"; c #7FC096",
/* pixels */
"    XXXXOOo.oO.XXXXXXOOXX X oOooOOoo.XXX",
"    ..o.X ooo.XX o X Oo ..XX..X .....   ",
"Ooo.ooo.X OOo X oOO. OO.oo..o.X . .oOOoo",
"Oo. .oo.  o.XX ooOo  OOooOoOOo.oo. ..ooo",
"o. X   X    XXoOOoXX OOO .oOOo.o.XXXXXX ",
"..  XXXX ...oOOOO.XXXoOo .ooo. .o XXX  .",
"XX .. ..X .  ..X   XX.ooXoo ...OO. .oo.o",
"X.ooo. . oo X..XX . X ..X. XX.oOo  ...  ",
"  oOo.   . XX..X.OoX  XXX.  X.  X  o..oo",
"XX.oOOOOOo.  XXX.o X.o..    oO.X . oooOO",
"XX .oOOOOo.o.XX  XXXoO.o.  XOOoXXXX ..o.",
"XXX ..ooOoooo O@O@@Xoo#@@Oo ...XX  .. o.",
"XXX   XXoooooO###@@###$$;$O. . XX..Oo o.",
"XX.ooo. X  XO-**%%%**%&&+&- Xo XX. oO.o ",
"..ooooo.XXX.$&++++++++++++*#O.  .ooOOOO.",
".....oo. ..@;+++++++++++++*#@ o.X .oo ..",
"... XXXX.o.@$&++++++++++++%#O.O.XXX .   ",
"...XXXX .Oo#$&++++++++++++%@@.Oo XX ..  ",
"Ooo.  .oo.o.#%++++++++++++%@@ooo.. X . X",
"Ooooo.oOo. .O*++++&+++&+++*#. XX   XX  X",
"   oOoooO..oO=++++++++++++*O .XXX   .o.X",
"XXX.oOOOOo.@#=++++++++++++%#.. X .oOOOo ",
"    .OOO   @#=+++++&++++++&$# Xo...oOO..",
"Oo.X oOoXX O.=++++++++&+++&$@XXOoX ...  ",
" . . o.. XX@#=++++++++++++&;@XXooX.Oo . ",
"XXXo.oXX   OO-++++++++++++&$O. X.X.O. .X",
"  X. .XX  XXX$&+&&%**%%%*=-. OoX   . . X",
"oo . o  . XX O$;$$###@@##O.X OoX ..  o.X",
".o.Ooo  ..XX oo@@# ..@@O@# XX . oooX . X",
".. . o X.o.  ..XXX.. oo.oo.. X .oo.XXXXX",
"o.X X.  .oo   .o.......ooOOo X ..o.X XXo",
"o X. .X ...XX .....   ..XoO.XXXXX.XXo  O",
"O X..XX ..OXXo.XXo .o     .. X .  XXOo.O",
"o  ..XX...o  .XX o.oOooo.  . X.oooo OO.o",
"  ...... X..  X  X .oo       X .oOO.O. .",
"X . X  XXX   . ..XoOoOXX XXXXXXX..o o . ",
" . XXX XXX.X Oo.oXOOOO X  XX . X X. . o.",
"o. XX  XXX.X Oo  X  ..  ..  .oo.XXX . o.",
"O X .. XXX   .XX o  o .o    .oo. XX ..O ",
".XX o.XX X . XXXXOX oXX XXXXX ..oX.ooOO "
};
