/* XPM */
static char *result[] = {
/* columns rows colors chars-per-pixel */
"40 40 16 1 ",
"  c #2F9D06",
". c #319F07",
"X c #2F9E06",
"o c #C6F0DC",
"O c #2E9C05",
"+ c #2D9B05",
"@ c #34A10B",
"# c #319E07",
"$ c #2F9C07",
"% c #62B266",
"& c #B1DFD2",
"* c #9BD0B7",
"= c #3B9D2C",
"- c #4AA445",
"; c #A8DBBE",
": c #86C891",
/* pixels */
"    $$+$.@.X.@#+O$++$@@O$ $ .@..@...#O++",
"    ##.#O ...#O+ . + @. ##OOXXO #####   ",
"@..X...X+ @@. O .@@# @.#..XX.#O # #.....",
"..X #..#  .#O+ ..@.  .@..@..@.X..# ##...",
".# $   $    OO.@..$+ .@@##..@.X.#O++OOO ",
"##  $$$+ ###..@@@#$+$.@. #...# #. OOO  #",
"+O X# ##O #  ##O   +$#..$.. ###..# #..#.",
"OX...X # .. $##++ # $ XX+# +$#...  X#X  ",
"  .@.#   X +$##$#@.$  OOO#  O#  O  XXX..",
"+$X.@...@.X  $$$#. O#.##    ..#O # ...@@",
"+$ #.@@@@.X.#++ O++O.@...  O...$+$+ XX.#",
"+$$ ##..@....#@%%%-=##=-= X ###$+  ## .#",
"++$   $$.....%;&&&&*%:*&*%@# # $O##.. .#",
"+$#...# O   @;oooooooooooo;%+. $OX ..#. ",
"##.....#++ +%oooooooooooooo;@   X..@@.@#",
"#XXXX..# #.=*oooooooooooooo&%O.#O X.. ##",
"### OOO$#..-&oooooooooooooo&%O@#+++ #   ",
"##XO++O #@.=*oooooooooooooo&%O@. $+ ##  ",
"@..#  #..#.$:oooooooooooooo&-O#.## $ # O",
"@....#...# O%oooooooooooooo*= OO   OO  +",
"   .@...@# =*oooooooooooooo%+#O+O   #.#O",
"++O#.@@@.. -;oooooooooooooo:$. O #..... ",
"   ##@@@   -;oooooooooooooo*= O.###...##",
"..#$ .@.+$O-;oooooooooooooo&-O+..$ ###  ",
" # # .## OO-;oooooooooooooo*= O..+#@. # ",
"+OO.#.OO   #:oooooooooooooo%$# $#O#@# #+",
"  O# #OO  OO@:oooooooooooo*@ @.+   # # +",
".. # .  X +O @%*&*:%*&&&&*-O ..OXXX  .#+",
"#.#@..  XX+O #$===$O=-%%%@ OO # X.XO # O",
"## # . O#.X  ###O X# O+O..## O #..#+$$+O",
".#O O#  #..   #.#######..@@. O ##.#$ $O.",
". O# #O ###OO #####   ##$.@#OOO$O#$$.  @",
". +##++ X#.OO.XO+. X.     ## O #  $+@.#.",
".  ##OO#XX.  #OO .X.@...#  # O#.... @@#.",
"  ###### O##  O  O X..       O #...#@# #",
"O # O  OO+   # ##O.@.@O+ $OOOOOO##. . # ",
" # ++O O+O#O ..#.O.@@@ +  $O # O O# # .#",
".# OO  O+O#+ @.  O  X#  ##  #..#O+O # .#",
". O ## O$O   #$$ .  . #.    #..# +O ##@ ",
"#++ .#OO O X ++++@O .OO ++$$O ##.O#...@ "
};
