/* XPM */
static char *result[] = {
/* columns rows colors chars-per-pixel */
"40 40 13 1 ",
"  c #2F9D06",
". c #309E07",
"X c #2E9C05",
"o c #319F07",
"O c #32A008",
"+ c #C7F1DC",
"@ c #A8DEB8",
"# c #3BA318",
"$ c #B8E6D2",
"% c #5DB05D",
"& c #42A723",
"* c #4AA73C",
"= c #7FC87C",
/* pixels */
"    XXXXOOo.OO.XXXXXXOOXX X OOooOOoo.XXX",
"    ..o.X ooo.XX o X Oo ..XX..X .....   ",
"OOo.ooo.X OOo X oOO. OO.oo..o.X . .oOOoo",
"Oo. .oo.  o.XX OoOo  OOOoOoOOO.oo. ..ooo",
"o. X   X    XXoOOoXX OOO .oOOo.o.XXXXXX ",
"..  XXXX ...oOOOO.XXXoOo .ooO. .o XXX  .",
"XX .. ..X .  ..X   XX.OoXoo ...OO. .oo.o",
"X.OOo. . oo X..XX . X ..X. XX.oOo  ...  ",
"  oOO.   . XX..X.OoX  XXX.  X.  X  o..oo",
"XX.OOOOOOo.  XXX.o X.o..    oO.X . oOOOO",
"XX .OOOOOO.o.XX.  XXoOoo.  XOOoXXXX ..o.",
"XXX ..ooOOoOO o&X&&XO.#&Ooo ...XX  .. o.",
"XXX   XXOOooO#*%%%*###&%%*O. . XX..Oo o.",
"XX.ooo. X  Xo=$++$$@@@@$$$=OXo XX. oO.o ",
"..oOOOO.XXXX*$++++++++++++$*..  .ooOOOO.",
".....oo. .oO%$+++++++++++++%# o.X .oo ..",
"... XXXX.oo&%$+++++++++++++%X.O.XXX .   ",
"...XXXX .Oo#&@++++++++++++$%&.Oo XX ..  ",
"Ooo.  .oo.o #@++++++++++++$*& .o.. X . X",
"Ooooo.oOO. .#@++++++++++++@#  XX   XX  X",
"   oOoooO..oO@++++++++++++@# .XXX   .o.X",
"XXX.oOOOOo.&*@++++++++++++@# . X .oOOOo ",
"    .OOO   &*$++++++++++++@&# Xo...oOO..",
"Oo.X oOoXX X*$++++++++++++$%&XXOoX ...  ",
" . . o.. XX#*$++++++++++++$%#XXooX.Oo . ",
"XXXo.oXX   o&@++++++++++++@*.. X.X.O. .X",
"  X. .XX  X  %@$$@@@@$$++$=X OoX   . . X",
"oo . o  . XX o*%%&###*%%%*OX OoX ..  o.X",
".o.Ooo  ..XX o.O##X..&&X&O XX . oOoX . X",
".. . o X.o.  ...XX..    Oo.. X .oO.XXXXX",
"o.X X.  .oo   .o.......ooOOo X ..o.X XXo",
"o X. .X ...XX .....   ..XoO.XXXXX.XXo  O",
"O X..XX ..OXXo.XXo .O     .. X .  XXOo.O",
"o  ..XX...o  .XX o.oOOoo.  . X.oOoo OO.o",
"  ...... X..  X  X .oo       X .oOO.O. .",
"X . X  XXX   . ..XOOOOXX XXXXXXX..o o . ",
" . XXX XXX.X Oo.oXOOOO X  XX . X X. . o.",
"o. XX  XXX.X Oo  X  ..  ..  .oo.XXX . o.",
"O X .. XXX   .XX o  o .o    .oo. XX ..O ",
".XX o.XX X . XXXXOX OXX XXXXX ..oX.ooOO "
};
