/* XPM */
static char *result[] = {
/* columns rows colors chars-per-pixel */
"40 40 13 1 ",
"  c #2F9D06",
". c #309E07",
"X c #2E9C05",
"o c #319F07",
"O c #C6F0DC",
"+ c #32A008",
"@ c #7CBD96",
"# c #4DA351",
"$ c #A2D5BF",
"% c #93CEA7",
"& c #BAE6D5",
"* c #3C9D2F",
"= c #59AF51",
/* pixels */
"    XXXX++o.++.XXXXXX++XX X ++oo++oo.XXX",
"    ..o.X ooo.XX o X +o ..XX..X .....   ",
"++o.ooo.X ++o X o++. ++.oo..o.X . .o++oo",
"+o. .oo.  o.XX +o+o  +++o+o+++.oo. ..ooo",
"o. X   X    XXo++oXX +++ .o++o.o.XXXXXX ",
"..  XXXX ...o++++.XXXo+o .oo+. .o XXX  .",
"XX .. ..X .  ..X   XX.+oXoo ...++. .oo.o",
"X.++o. . oo X..XX . X ..X. XX.o+o  ...  ",
"  o++.   . XX..X.+oX  XXX.  X.  X  o..oo",
"XX.++++++o.  XXX.o X.o..    o+.X . o++++",
"XX .++++++.o.XX XXXXo+o+o  X++oXXXX ..o.",
"XXX ..oo++o++ .*##*Xo.X. .o ...XX  .. o.",
"XXX   XX++oo+=%%$&$@==@%@=+. . XX..+o o.",
"XX.ooo. X  X+$OOOOOOO&OOO&$=Xo XX. o+.o ",
"..o++++.XXXX#&OOOOOOOOOOOOO% .  .oo++++.",
".....oo. .o @OOOOOOOOOOOOOO%* o.X .oo ..",
"... XXXX.oo %OOOOOOOOOOOOOO$# +.XXX .   ",
"...XXXX .++X@OOOOOOOOOOOOOO&# +o XX ..  ",
"+oo.  .oo.oX=&OOOOOOOOOOOOO%* .o.. X . X",
"+oooo.o++. X=OOOOOOOOOOOOOO@X.XX   XX  X",
"   o+ooo+..X@OOOOOOOOOOOOOO=X.XXX   .o.X",
"XXX.o++++o.*@OOOOOOOOOOOOO&=X. X .o+++o ",
"    .+++  .*$OOOOOOOOOOOOOO@  Xo...o++..",
"+o.X o+oXXX*$OOOOOOOOOOOOOO%oXX+oX ...  ",
" . . o.. XX @OOOOOOOOOOOOOO@. XooX.+o . ",
"XXXo.oXX   X@OOOOOOOOOOOOO&# . X.X.+. .X",
"  X. .XX  XX+%&OOO&OOOOOOO$+ +oX   . . X",
"oo . o  . X ++#@%@==@$&$%%=X +oX ..  o.X",
".o.+oo  ..XX oXXXXX X*##*o XX . o+oX . X",
".. . o X.o.  ...X ..  XXoo.. X .o+.XXXXX",
"o.X X.  .oo   .o.......oo++o X ..o.X XXo",
"o X. .X ...XX .....   ..Xo+.XXXXX.XXo  +",
"+ X..XX ..+XXo.XXo .+     .. X .  XX+o.+",
"o  ..XX...o  .XX o.o++oo.  . X.o+oo ++.o",
"  ...... X..  X  X .oo       X .o++.+. .",
"X . X  XXX   . ..X++++XX XXXXXXX..o o . ",
" . XXX XXX.X +o.oX++++ X  XX . X X. . o.",
"o. XX  XXX.X +o  X  ..  ..  .oo.XXX . o.",
"+ X .. XXX   .XX o  o .o    .oo. XX ..+ ",
".XX o.XX X . XXXX+X +XX XXXXX ..oX.oo++ "
};
