/* XPM */
static char *result[] = {
/* columns rows colors chars-per-pixel */
"40 40 11 1 ",
"  c #309F07",
". c #2F9D06",
"X c #2E9C05",
"o c #33A009",
"O c #C7F1DC",
"+ c #3EA128",
"@ c #ABDEBF",
"# c #8ECC9E",
"$ c #5DB05A",
"% c #74BB83",
"& c #BCE8D7",
/* pixels */
"....XXXXoo .oo XXXXXXooXX.X. o  oo   XXX",
"....    X.    XX. .X.oo.  XX..X.     ...",
"oo      X.oo .X. oo .oo  o    X. .  oo  ",
"o ..    ..  XX.o o ..ooooooooo    .     ",
"  .X...X....XX oo XX.ooo. ooo    XXXXXX.",
"  ..XXXX.    oooo XXX o . ooo .  .XXX.. ",
"XX.. .  X. ..  X...XX o Xoo.   oo .     ",
"X.oo  . .  .X  XX. .X.  X .XX  o ...  ..",
".. oo ... .XX  X o X..XXX ..X ..X.. ..  ",
"XX.oooooo ...XXX  .X    .... o X. . oooo",
"XX. oooooo.  XX ..XX o o ..Xoo XXXX..   ",
"XXX.    oo oo..o.+XXo  o   .   XX..  .  ",
"XXX...XXoo  o+$###%$++++++o . .XX  o .  ",
"XX     .X..X #OOOOO&@@@@@@#+X .XX . o  .",
"   oooo XXXX+@OOOOOOOOOOOOO$X ...  oooo ",
"   ..   .  .+@OOOOOOOOOOOOO#o.  X..  .  ",
"   .XXXX   o+@OOOOOOOOOOOOO#X o XXX. ...",
"  .XXXX. o  +@OOOO&OOOOOOOO#+ o .XX.  ..",
"o   ..     .o@OOOOOOOO&OOOO%o     .X. .X",
"o      oo ..+@OOOOOOOOOOOO&$X.XX...XX..X",
"... o   o  .+&OOOOOO&OOOOO@+. XXX...   X",
"XXX ooooo  o$&OOO&OOOOOOOO@o. .X.  ooo .",
".... ooo...o%OOOOOOOOOOOOO@+o.X     oo  ",
"o  X.oo XX.X%OOOOOOOOO&OOO@+oXXo X.   ..",
". . .   .XX.%OOOOOOOOOOOOO@+o.X  X o . .",
"XXX   XX...X$&OOOOOOOOOOOO@+. .X X o . X",
"..X . XX..X. %@@@@@@&OOOOO# .o X... . .X",
"  . . ....XX.o++++o+$%###$+X.o X.....  X",
"   o  ....XX. .X....X.+.o .XX. .   X. .X",
"  . . .X  ...   X.  ....o   .X.    XXXXX",
"  X.X ..   ...           oo .X.    X.XX ",
" .X . X.   XX.     ...  X o XXXXX XXo..o",
"o.X  XX.. oXX .XX . o.....  .X. ..XXo  o",
" ..  XX .. .. XX.   oo o .. .X     .oo  ",
"..      .X  ..X..X..  .......X.  oo o . ",
"X. .X..XXX... .  XooooXX.XXXXXXX   . . .",
". .XXX.XXX X.o   Xoooo.X..XX. .X.X . .  ",
"  .XX..XXX X.o ..X... ..  ..    XXX. .  ",
"o.X.  .XXX... XX. .. .  ....    .XX.  o.",
" XX.  XX.X...XXXXoX.oXX.XXXXX.   X   oo."
};
