/* XPM */
static char *result[] = {
/* columns rows colors chars-per-pixel */
"40 40 14 1 ",
"  c #2F9D06",
". c #309E07",
"X c #2E9C05",
"o c #319F07",
"O c #33A10A",
"+ c #C6F0DB",
"@ c #ABDDC5",
"# c #C8F1DD",
"$ c #53A758",
"% c #45A62F",
"& c #5AB150",
"* c #BCE8D4",
"= c #8FD195",
"- c #7CC08D",
/* pixels */
"    XXXXOOo.oO.XXXXXXOOXX X oOooOOoo.XXX",
"    ..o.X ooo.XX o X Oo ..XX..X .....   ",
"Ooo.ooo.X OOo X oOO. OO.oo..o.X . .oOOoo",
"Oo. .oo.  o.XX ooOo  OOooOoOOo.oo. ..ooo",
"o. X   X    XXoOOoXX OOO .oOOo.o.XXXXXX ",
"..  XXXX ...oOOOO.XXXoOo .ooo. .o XXX  .",
"XX .. ..X .  ..X   XX.ooXoo ...OO. .oo.o",
"X.ooo. . oo X..XX . X ..X. XX.oOo  ...  ",
"  oOo.   . XX..X.OoX  XXX.  X.  X  o..oo",
"XX.oOOOOOo.  XXX.o X.o..    oO.X . oooOO",
"XX .oOOOOo.o.XX. XXXoO.o.X XOOoXXXX ..o.",
"XXX ..ooOoooo O&$$&.oO%$$O. ...XX  .. o.",
"XXX   XXoooooO%&$$%%%&@@@-O. . XX..Oo o.",
"XX.ooo. X  XO=@***@@@*++++=.Xo XX. oO.o ",
"..ooooo.XXXO-+#+#####+++++@%O   .ooOOOO.",
".....oo. ..$@+++++++++++++*&& o.X .oo ..",
"... XXXX.o.$@++++++++++++#*$$XO.XXX .   ",
"...XXXX .Oo%@++++++++++++#*$$ Oo XX ..  ",
"Ooo.  .oo..o&*+++++++++++#@%& oo.. X . X",
"Ooooo.oOo.  %@#++++++++++#@%o XX   XX  X",
"   oOoooO. OO=#++++++++++#@% .XXX   .o.X",
"XXX.oOOOOo &%=#++++++++++#*&o. X .oOOOo ",
"    .OOO . $$@#+++++++++++#@%XXo...oOO..",
"Oo.X oOoXXX$%@#++++++++++++@$XXOoX ...  ",
" . . o.. XX%%@#++++++++++++@$XXooX.Oo . ",
"XXXo.oXX   O%=#++++#####+#+-O. X.X.O. .X",
"  X. .XX  X  -++++*@@@***@=O OoX   . . X",
"oo . o  . XXX%-@@@&%%%$$&%oX OoX ..  o.X",
".o.Ooo  ..XX .O$$%..O&$$&O XX . oooX . X",
".. . o X.o.  .. XX..  X oo.. X .oo.XXXXX",
"o.X X.  .oo   .o......oooOOo X ..o.X XXo",
"o X. .X ...XX .....   ..XoO.XXXXX.XXo  O",
"O X..XX ..OXXo.XXo .o     .. X .  XXOo.O",
"o  ..XX...o  .XX o.oOooo.  . X.oooo OO.o",
"  ...... X..  X  X .oo       X .oOO.O. .",
"X . X  XXX   . ..XoOoOXX XXXXXXX..o o . ",
" . XXX XXX.X Oo.oXOOOO X  XX . X X. . o.",
"o. XX  XXX.X Oo  X  ..  ..  .oo.XXX . o.",
"O X .. XXX   .XX o  o .o    .oo. XX ..O ",
".XX o.XX X . XXXXOX oXX XXXXX ..oX.ooOO "
};
