/* XPM */
static char *result[] = {
/* columns rows colors chars-per-pixel */
"40 40 19 1 ",
"  c #2F9D06",
". c #309E07",
"X c #2E9C05",
"o c #319F07",
"O c #C6F0DC",
"+ c #32A008",
"@ c #2D9B05",
"# c #5FB062",
"$ c #88C5A1",
"% c #339C16",
"& c #A4D8BE",
"* c #70B687",
"= c #B8E7CD",
"- c #49A63C",
"; c #51AD3F",
": c #3DA51C",
"> c #C1ECD9",
", c #3E9E34",
"< c #8EC4B9",
/* pixels */
"    XX@X++o.++.@XX@@X++XX X ++oo++oo.X@@",
"    ..o.X ooo.X@ o @ +o ..XX..X .....   ",
"++o.ooo.@ ++o X o++. ++.oo..o.X . .o++oo",
"+o. .oo.  o.X@ +o+o  +++o+o+++.oo. ..ooo",
"o. X   X    XXo++oX@ +++ .o++o.o.X@@XXX ",
"..  XX@@ ...o++++.X@Xo+o .oo+. .o XXX  .",
"@X .. ..X .  ..X   @X.+oXoo ...++. .oo.o",
"X.++o. . oo X..@@ . X ..@. @X.o+o  ...  ",
"  o++.   . @X..X.+oX  XXX.  X.  X  o..oo",
"@X.++++++o.  XXX.o X.o..    o+.X . o++++",
"@X .++++++.o.@@ %@@@o+oo.  X++oX@X@ ..o.",
"@XX ..oo++o++ :#*##:o%,--%. ...X@  .. o.",
"@@X   XX++oo+:#*$$*;;$<&&$-. . XX..+o o.",
"@X.ooo. X  X-&=>OO===OOOOO&+Xo XX. o+.o ",
"..o++++.@@ %$OOOOOOOOOOOOO=#:   .oo++++.",
".....oo. ..-&OOOOOOOOOOOOOO*#Xo.X .oo ..",
"... XXXX.o.-&OOOOOOOOOOOOOO$*%+.@@@ .   ",
"...X@@X .+o,<OOOOOOOOOOOOOO$#.+o X@ ..  ",
"+oo.  .oo.o%$OOOOOOOOOOOOO>*#Xoo.. X . X",
"+oooo.o++.  ;=OOOOOOOOOOOO=;: XX   XX  @",
"   o+ooo+. :-&OOOOOOOOOOOO=;X.X@X   .o.X",
"@@X.o++++o ##=OOOOOOOOOOOOO$%. X .o+++o ",
"    .+++  X#*>OOOOOOOOOOOOO<, Xo...o++..",
"+o.X o+o@X@#*>OOOOOOOOOOOOO&-@@+oX ...  ",
" . . o.. X@;*=OOOOOOOOOOOOO&-XXoo@.+o . ",
"@XXo.oXX   :;&OOOOOOOOOOOOO<%. X.X.+. .@",
"  X. .XX  X .$OOOOO==>OO>=&- +o@   . . @",
"oo . o  . @XX-$&&<$;;*$$*#+@ +oX ..  o.@",
".o.+oo  ..@X .%--,% :##*#: XX . o+oX . X",
".. . o X.o.  ...X .. X %oo.. X .o+.@XX@X",
"o.X X.  .oo   .o.......oo++o X ..o.X XXo",
"o X. .X ...XX .....   ..Xo+.XXXXX.XXo  +",
"+ @..@@ ..+XXo.X@o .+     .. X .  X@+o.+",
"o  ..XX...o  .XX o.o++oo.  . X.o+oo ++.o",
"  ...... X..  X  X .oo       X .o++.+. .",
"X . X  XX@   . ..X++++X@ XXXXXXX..o o . ",
" . @@X X@X.X +o.oX++++ @  XX . X X. . o.",
"o. XX  X@X.@ +o  X  ..  ..  .oo.X@X . o.",
"+ X .. XXX   .XX o  o .o    .oo. @X ..+ ",
".@@ o.XX X . @@@@+X +XX @@XXX ..oX.oo++ "
};
