/* XPM */
static char *result[] = {
/* columns rows colors chars-per-pixel */
"32 32 149 2 ",
"   c #FCFDFC",
".  c white",
"X  c #FEFFFE",
"o  c #F0F6EE",
"O  c #651D06",
"+  c #41A216",
"@  c #4D1204",
"#  c #6B2006",
"$  c #5D1B06",
"%  c #369518",
"&  c #5C9C13",
"*  c #4BA914",
"=  c #5B1906",
"-  c #742508",
";  c #7F2A09",
":  c #5AB415",
">  c #551805",
",  c #45A414",
"<  c #66BC15",
"1  c #611C06",
"2  c #C8CFC5",
"3  c #409E14",
"4  c #4FAD15",
"5  c #5DB715",
"6  c #FEFEFE",
"7  c #1F7B14",
"8  c #D4DDD1",
"9  c #3C9A12",
"0  c #2C9218",
"q  c #6ABF15",
"w  c #258C18",
"e  c #248816",
"r  c #105B12",
"t  c #6EC314",
"y  c #74C712",
"u  c #7ACA0F",
"i  c #E1E6E0",
"p  c #FBFBFB",
"a  c #1A491A",
"s  c #46A615",
"d  c #1E7615",
"f  c #587355",
"g  c #315431",
"h  c #E8EBE7",
"j  c #1E8317",
"k  c #62B216",
"l  c #65BE13",
"z  c #6ABA11",
"x  c #5F2307",
"c  c #398F15",
"v  c #CFD3CF",
"b  c #F4F9F3",
"n  c #8B300A",
"m  c #54A715",
"M  c #577E10",
"N  c #A6B9A6",
"B  c #624F0C",
"V  c #3A7B1E",
"C  c #F8FCF6",
"Z  c #458214",
"A  c #399C18",
"S  c #C8DBC9",
"D  c #23611D",
"F  c #5E420B",
"G  c #537010",
"H  c #90350B",
"J  c #953C0C",
"K  c #4D3108",
"L  c #514A0A",
"P  c #D0E9C5",
"I  c #549111",
"U  c #86CF2C",
"Y  c #2A671C",
"T  c #512907",
"R  c #BCC5B9",
"E  c #6CB151",
"W  c #F8FBF7",
"Q  c #446A3D",
"!  c #72BB4A",
"~  c #658C5D",
"^  c #6D6610",
"/  c #5C8612",
"(  c #367033",
")  c #BCD7B7",
"_  c #C1D4BF",
"`  c #95D15F",
"'  c #509914",
"]  c #603609",
"[  c #60B813",
"{  c #495F0E",
"}  c #B1BEAD",
"|  c #692B0A",
" . c #79B16A",
".. c #73A970",
"X. c #2E5F2A",
"o. c #69A656",
"O. c #E8F1E8",
"+. c #57A04B",
"@. c #57B113",
"#. c #862D09",
"$. c #156C17",
"%. c #5C8D4D",
"&. c #9C470F",
"*. c #358517",
"=. c #308D1C",
"-. c #44961B",
";. c #E1F3D1",
":. c #B8D1AF",
">. c #596B0D",
",. c #519038",
"<. c #6C440C",
"1. c #96C789",
"2. c #7AB761",
"3. c #587B12",
"4. c #58620F",
"5. c #5AA541",
"6. c #52AF15",
"7. c #7AC341",
"8. c #83C846",
"9. c #49570C",
"0. c #6D7811",
"q. c #ACDB85",
"w. c #84A678",
"e. c #7B370A",
"r. c #2A7F2A",
"t. c #99AA9A",
"y. c #62B645",
"u. c #BDE2A4",
"i. c #ACC8AF",
"p. c #94C090",
"a. c #4DAC24",
"s. c #CEEBB7",
"d. c #667410",
"f. c #2F822F",
"g. c #478234",
"h. c #763909",
"j. c #45983C",
"k. c #3D8C22",
"l. c #89BB6B",
"z. c #BEE0AD",
"x. c #55450E",
"c. c #70C620",
"v. c #68A511",
"b. c #A2CE89",
"n. c #B1D1A5",
"m. c #50A32C",
"M. c #9BD84E",
"N. c #B2E17C",
"B. c #7CC241",
/* pixels */
"                                                                ",
"                                                                ",
". . . . . . . . . . . . . . . . . . . . . . . . . . . . . . . . ",
". . . . . . . . . . . . . . . . . . . . . . . . . . . . . . . . ",
". . . . . . . . . . . . . . . . . . . . . . . . . . . . . . . . ",
". . . . . . . . . . . . . . . . . . . . . . . . . . . . . . . . ",
". . . . . . . . . . . 6 C b o o W . . . . . . . . . . . . . . . ",
". . . . . . . o P u.q.` ` 8.7.! ! 1.o 6 W o b . . . . . . . . . ",
". . . . . . P y.a.q u y y q [ 5 : + E 2.E 5.o.) . . . . . . . . ",
". . . . . . :.k.A 5 u y q & k < < : * , + + 9 ..6 . . . . . . . ",
". . . C o ;.P l.: t k & M ' : 5 5 : 4 * s , 9 +.O.. . . . . . . ",
"6 ;.N.M.U U c.k I G F | | F B 3.m @.4 ' s + 3 % +.p.S O.  . . . ",
"s.U u u u z I x.$ = O - O # $ x <.^ ^ B 0./ & & I % =.j. .S   . ",
"b.@.< t y & K 1 $ = O - 1 1 $ O - n ; # n H &.&.J d.=.e e r._ . ",
"8 o.,.-.l >.@ 1 > $ $ # > = = O # n ; # ; #.J J #.B V *.j r N . ",
". p n.m.l v.L > @ @ > x K T > = O ; ; 1 - - H H h.Z w 7 r f h . ",
". . :.,.m y z >.K L M & m G @ @ O - # > O # ; e.G 0 7 X.f } . . ",
". . z.B.z z t t k < t < / T @ @ = # $ @ x ] 4.Z 0 w j f...i.i 6 ",
".    .9 , , 4 < q q < < & M { 9.L ] F { Z c 0 0 w e d $.r r ( S ",
". . 8 w.%.g.V *.3 : [ 5 6.* , + 3 -.9 + + A 0 w w e D g g a g v ",
". . . . b h 8 } %.c + 4 * s s A % % % e 7 d d 7 j j $.N h v i   ",
". . . . . . . . ) % * 4 * , % d D D r X.f f Q g a a a t.. . . . ",
". . . . . . . . _ V c 3 + 9 7 ~ 8 2 N 8 p p o i v R 2 o . . . . ",
". . . . . . . . W R ~ ( Y Y Q 2 . . . . . . . . . . . . . . . . ",
". . . . . . . . . . p i 2 2 h . . . . . . . . . . . . . . . . . ",
". . . . . . . . . . . . . . . . . . . . . . . . . . . . . . . . ",
". . . . . . . . . . . . . . . . . . . . . . . . . . . . . . . . ",
". . . . . . . . . . . . . . . . . . . . . . . . . . . . . . . . ",
"X X X X X X X X X X X X X X X X X X X X X X X X X X X X X X X X ",
"                                                                ",
"                                                                ",
"                                                                "
};
