/* XPM */
static char *result[] = {
/* columns rows colors chars-per-pixel */
"40 40 204 2 ",
"   c #2B9604",
".  c #279E04",
"X  c #2E9C04",
"o  c #2C970B",
"O  c #2E9C0A",
"+  c #359704",
"@  c #319E05",
"#  c #389801",
"$  c #319E0A",
"%  c #389B0C",
"&  c #2D9614",
"*  c #2E9913",
"=  c #2C961C",
"-  c #2F9818",
";  c #329711",
":  c #329C12",
">  c #3D951C",
",  c #339C1B",
"<  c #399B1B",
"1  c #3C9E17",
"2  c #2CA004",
"3  c #27A209",
"4  c #2CA10A",
"5  c #32A104",
"6  c #33A10B",
"7  c #39A30D",
"8  c #35A211",
"9  c #37A217",
"0  c #2B9325",
"q  c #2F962D",
"w  c #349B22",
"e  c #3C9B25",
"r  c #349A2D",
"t  c #3B9A2A",
"y  c #3B9428",
"u  c #2E9635",
"i  c #369C32",
"p  c #389D37",
"a  c #32953E",
"s  c #3D9638",
"d  c #389C3B",
"f  c #3BA628",
"g  c #3EA333",
"h  c #439D2F",
"j  c #419B31",
"k  c #419A39",
"l  c #4B983A",
"z  c #529E3A",
"x  c #41A22E",
"c  c #40A23D",
"v  c #309640",
"b  c #349942",
"n  c #38994C",
"m  c #3B9D5A",
"M  c #3A9C51",
"N  c #3EA247",
"B  c #3FA051",
"V  c #3FA05D",
"C  c #3B9D62",
"Z  c #4F9A45",
"A  c #549C50",
"S  c #42A545",
"D  c #46A048",
"F  c #51AB4C",
"G  c #4BAE5D",
"H  c #44A655",
"J  c #4FB15A",
"K  c #52B15D",
"L  c #4CAC64",
"P  c #59AC66",
"I  c #4EB161",
"U  c #5FB063",
"Y  c #5AB86A",
"T  c #48A579",
"R  c #49AB72",
"E  c #50AF73",
"W  c #51B078",
"Q  c #54B373",
"!  c #68B968",
"~  c #77C168",
"^  c #69C676",
"/  c #84CB7D",
"(  c #55AF8C",
")  c #53B283",
"_  c #5AB58C",
"`  c #5CB886",
"'  c #5AB39B",
"]  c #59B596",
"[  c #66BB82",
"{  c #63BD98",
"}  c #5AB3A5",
"|  c #62BBAA",
" . c #60B9A3",
".. c #61B7B6",
"X. c #63BCB5",
"o. c #65BBBA",
"O. c #6AC792",
"+. c #77C684",
"@. c #73CCAB",
"#. c #7ACAA5",
"$. c #6CC1B6",
"%. c #75C7B8",
"&. c #63B5C3",
"*. c #65BAC3",
"=. c #6ABEC5",
"-. c #62B5CB",
";. c #66B9CA",
":. c #6BBCCC",
">. c #6AB6CE",
",. c #67B3D7",
"<. c #69B5D7",
"1. c #66BAD5",
"2. c #6CBBD2",
"3. c #67B5DB",
"4. c #6CB4DD",
"5. c #66BADD",
"6. c #69BADD",
"7. c #78BAD4",
"8. c #5CB6ED",
"9. c #5DB5F5",
"0. c #5CB9F4",
"q. c #5EB6FA",
"w. c #5BB9F9",
"e. c #62ABEB",
"r. c #6AAEEB",
"t. c #63B5E4",
"y. c #6AB5E5",
"u. c #66B8E4",
"i. c #6ABBE5",
"p. c #64B5ED",
"a. c #6AB3EC",
"s. c #65B9EC",
"d. c #6EBAEC",
"f. c #72B6EA",
"g. c #78B7EC",
"h. c #73BAEC",
"j. c #79BBEC",
"k. c #76B4E7",
"l. c #63AFF4",
"z. c #68ADF2",
"x. c #64B4F4",
"c. c #69B4F4",
"v. c #64B9F5",
"b. c #6BB9F2",
"n. c #64B4FA",
"m. c #6AB5FC",
"M. c #63B9FC",
"N. c #6DBBFB",
"B. c #71B5F4",
"V. c #70BAF7",
"C. c #7BBEF4",
"Z. c #76BAFB",
"A. c #6BC4C0",
"S. c #77C6C6",
"D. c #6EC5D8",
"F. c #77C5D6",
"G. c #78C0D8",
"H. c #7FC0F6",
"J. c #7EC5FD",
"K. c #8BDD95",
"L. c #96D29C",
"P. c #8CD0A7",
"I. c #93D7AE",
"U. c #9DDEA6",
"Y. c #A7EDB9",
"T. c #B5F5B9",
"R. c #80BEED",
"E. c #97CDCD",
"W. c #8EDCC4",
"Q. c #85CBD5",
"!. c #A5DFD7",
"~. c #A9DCDD",
"^. c #A8ECC7",
"/. c #A4E6CC",
"(. c #A9E6D7",
"). c #BFF7DA",
"_. c #BAF9C4",
"`. c #85C5E4",
"'. c #85C2EE",
"]. c #99C2E3",
"[. c #9ACAE6",
"{. c #84C4F7",
"}. c #8CCCFC",
"|. c #8ACAFA",
" X c #93CCFD",
".X c #98CCF4",
"XX c #8FD2FF",
"oX c #99D1FF",
"OX c #94D1FF",
"+X c #A0CAE0",
"@X c #A2D2E7",
"#X c #A0D7FF",
"$X c #ADDDFF",
"%X c #A7D8FB",
"&X c #B1DDFF",
"*X c #BBDFFF",
"=X c #A3E4E8",
"-X c #BBF0E0",
";X c #ABE3FF",
":X c #B4E2FF",
">X c #BBE3FF",
",X c #C3F7DA",
"<X c #C2F7E7",
"1X c #CAF7E2",
/* pixels */
"X @ X 2 @ X X X : : $ @ @ 5 6   O O X X X $ 6 $ @ @ $   @ 5 $ * 6 6 6 6 X X   X ",
"O X X 5 @ 5 @ @ o $ $ $ @ 5 X   8 4 2 5 $ 6 : $ $ $ $ @ @ @ O O O O X 2 @ $ X X ",
"6 O O O @ 5 5 5 X $ $ 5 @ X X O $ 6 5     $ % $ $ 6 $ : 5 5 X O X 5 X 6 6 6 6 6 ",
"8 $ O O $ $ @ @ $ @ 5 @ X X @ 6 $ 6 , , f , ; $ @ $ $ $ 5 5 X 5 6 6 X X X @ X 6 ",
"8 $ O O $ O $   5 @ @ @ O O : 6 6 ; i J Y D , 7 $ @ $ 6 5 5 X 5 6 X   X X X X X ",
"O   O O $ $ $ @ X @ @ @ $ O 6 8 6 w H { @.` x ; % 6 5 5 5 5 X 2 6 X X X $ X $ X ",
"X X @ @ @ $ $ @ X @ 6 $ * 8 4 O : S ] *.:.$.K , $ $ 6 @ O 6 $ 6 6 X X 5 6 5 6 6 ",
"X X @ @ $ @ $ @ @ 5 6 O O O O * i E *.4.y.>.[ g & % 5   O O O 8 6 O X O 6 X X X ",
"X 2 5 5 5 % @ @ @ @ @ X O X X w M ' 4.m.c.,.| L , o $ $ 6 $   6 X 4 @ @ $ X 5 X ",
"X X X X $ @ 5 5 6 @ @ @ X O 6 0 T &.a.m.n.a.>.( S ;   @ O 6 O O X 6 $ 6 6 5 6 6 ",
"O O $ $ $ 6 5 5 7 @ @ @ 2 O , b } 5.p.n.m.z.i...L w O @ X 6 6 X   X X X X X 6 6 ",
"O O O * $ @ @ @ $ $ X @ 8 * q R -.y.p.c.n.n.c.1._ S , @ X 6 6 O O X X 5 O X 6 X ",
"O o O * $ X @ X $ % @ $ 9 q V } 5.v.p.p.x.c.n.u.o.E g O X 6 O O X 6 O 6 6 O 6 X ",
"X O O : 5 5 @ @ $ $ @ O , M ' :.s.0.x.x.x.x.c.x.6.} H - O 5   O   X X 6 6 X 5 X ",
"2 X 6 $ 6 5 5 5 O O $ ; i Q *.y.x.9.M.v.t.s.x.c.a.-.) S : @ @ @ X 6 5 6 6 5 6 6 ",
"5 @ @ O X 2 @ 5 O : $ w L } 6.x.n.n.M.x.8.s.x.c.n.y.$.Q w % 6 X @ $ @ $ 4 X 6 X ",
"5 # $ O X . X O 4 O : F { -.p.x.n.n.v.v.0.0.9.c.x.p.5.%.U > $ 5 X   X O 4 X X O ",
"@ @ ; O . . O 4 O f e P S.y.p.M.n.n.x.x.9.w.v.x.p.p.u.F.P.l ; 5 $ X X O $ $ O 6 ",
"5 5 $ $ X 2 # 5 4 , D #.2.p.0.v.x.x.c.x.q.q.n.x.v.v.e.4.(.Y.x O 6 O O X X O 6 6 ",
"6 4 $ $ 2 2 5 5 O t [ %.3.N.8.8.x.x.l.n.n.n.x.c.v.l.m.b.7./.s ; O 6 X   X O O X ",
"o . O O # 5 5 5 1 F %.>.h.x.9.0.s.p.n.n.n.n.x.n.9.n.m.z.k.=XK.e ; $ @ O O $ $ X ",
"* O X 4 5 5 5 % y +.S.k.x.l.q.9.x.x.n.n.n.z.c.n.M.n.n.m.B.`.Y.h :   $ $ 6 6 $ $ ",
": O 4 2 # 5 $ < Z ^.F.a.e.N.x.x.x.x.n.v.c.c.c.c.9.n.x.p.e.R./.A , @ X 6 6 6 4 6 ",
"$ X 2 X 5 % 9 t U.!.4.b.c.r.B.B.c.n.0.n.c.a.c.n.n.n.p.p.a.4.~.L.e $ O $ 4 O X 6 ",
"+ 8 4 2 2 6 * k ,X+Xi.x.a.C. XoXZ.x.0.w.p.x.c.c.n.M.8.s.8.f.+X,Xh   6 6 $ 6 O O ",
"# % 4 4 2 2 o k <X].a.m.a.OX$X&X Xx.8.8.9.m.c.c.n.9.8.v.v.a.].,Xj X 6 6 4 O 6   ",
"# @ $ 4 4 O O k -X.Xr.l.c. X>X:XoXB.p.v.x.x.c.m.x.n.M.w.n.f.].,Xj   O 6 $ $ X X ",
"# @ O 4 X @ O j ,X@Xa.x.B.{.:X:X$X'.a.y.p.a.c.l.x.n.M.w.q.y.+X,Xh 4 X $ X $ O X ",
"5 6 O 8 X 5 2 e _.E.4.a.c.H.oX>X:X.X'.j.f.a.x.c.c.x.q.n.9.<.!.T.e $ @   O O X $ ",
"4 2 O $ @ # X 1 / (.7.a.p.f.}.;X:X:X:XoX|.C.c.m.x.c.q.q.s.F.I.~ < O $ O 4 6   X ",
"3 4 % + + @ @ ; z T.Q.y.p.p.C..X&X*X>X>X;XXXn.n.x.p.v.p.5.S.! > $ O $ 6 $ @ O 6 ",
"3 3 $ $ + % X + > ! W.2.5.c.a.k..X%X:X;X;X}.l.m.x.t.s.D.*._ y ; $ X 6 O O 6 2 8 ",
"4 X   6 $ @ X # + < ^ @.=.y.b.r.f.j.{.|.J.N.n.n.x.8.1.$._ b : 5 5 X   @ X 6 6 X ",
"$ X O 6 $ X X @ X O g n @.A.,.d.s.a.p.b.n.x.c.p.u.D.X.) b 0 4 5 6 5 5 6 6 6 6 X ",
"X X O O 5 2 X 5 O & - r a O.%.-.6.a.c.m.m.x.u.1.X.] m u = O 6 5 6 6 6 6 6 5 6 X ",
"X @ 4 O X X @ @ $ : o : 0 d m { X.=.;.;.-.*...] C a 0 * 8   $ X X X X 6 6 X X X ",
"5 5 4 O O O 5 X   X 6   8 ; w d b M G I G H p 0 = * 6 O 6   $ O X X @ 6 $ 5 @ $ ",
"5 5 6   O O X X @ @ X 5 $ 8 O O * , , : : $ O X 6 6 X X X 6 : $   X X O @ O @ $ ",
"5 5 X X $ : O X 2 X X 2     @ X & ; $ O O @ 2 5 2 X X 7 O $ O $ O X X @ O 5 2 X ",
"4   X X $ $ O O X 5 X 6 O @ X X $ O $ 5 5 @ X X 2 2 $   O O 8 $ 6 6 X 2 6 6 6 $ "
};
