/* XPM */
static char *result[] = {
/* columns rows colors chars-per-pixel */
"32 32 50 1 ",
"  c #FDFDFC",
". c #83A9C5",
"X c #85ABC7",
"o c #84AAC6",
"O c #FEFEFD",
"+ c #81A8C4",
"@ c #008F32",
"# c #88ADC8",
"$ c #E4EDF1",
"% c #8BAFC9",
"& c #83AAC5",
"* c #6897BC",
"= c #F6F3ED",
"- c #719DBF",
"; c #029235",
": c #10963E",
"> c #DCE9EC",
", c #FAFBFA",
"< c #98B8CF",
"1 c #F5F8FA",
"2 c #AEC9A7",
"3 c #92B4CC",
"4 c #76A1C1",
"5 c #8EB1CA",
"6 c #9DBBD1",
"7 c #D5DCC8",
"8 c #BFD0B3",
"9 c #6193BA",
"0 c #EAF0F4",
"q c #239B4A",
"w c #A7C2D6",
"e c #37A359",
"r c #63BB82",
"t c #5389B5",
"y c #ECEAE0",
"u c #80B986",
"i c #72B37C",
"p c #DDE0CF",
"a c #B4DFC3",
"s c #45B06C",
"d c #B9CFDE",
"f c #90BF92",
"g c #76B680",
"h c #4DB373",
"j c #8DCEA4",
"k c #96D2AB",
"l c #F0F5F7",
"z c #CED7BF",
"x c #74C391",
"c c #58B77B",
/* pixels */
"      y882222877pz22888zpy      ",
"      7e:::::rjkOa:::qqqe8,     ",
"      7q@@@@@rksjk:@@@@@:8,     ",
"      7q@@@@;er:sr:;@@@;:2,     ",
"      7q;;;@@h>eha:@@@@;:2,     ",
"      7q;;;;@rassh;@@@@@;2,     ",
"      pe@;;;@cxa>j;@@@@@;2,     ",
"     Oyfiggiif2py7fuuugiu7      ",
"      ,==================,      ",
"      ,,,1111l1l111,,,,,OO      ",
"     ldw6<66<<6#3<666wwwddlO    ",
"    O05.+++..+.*-++..+++X#>O    ",
"    O03XX..oX..*-o.XX&..&#>O    ",
"    O$5XXXXo&Xo*-X&ooooo&%>O    ",
"    O$%ooooXXXo*-XooX#XXo%>O    ",
"    O$5X.+oXXXX*-X.oXXoXo#>O    ",
"    O>%XoXXXXoo*-X..o&ooX#>O    ",
"    O>#o+XXXXoo*4o.++oXXX%>O    ",
"    O>#++.oo..o*4....XXo.%$O    ",
"    O>#Xo....+.94+o&.....%$O    ",
"    O>%XXX.++9**-9+XXooX.%$O    ",
"    O>#XXXo.+t9*-t4#XXXXo5$O    ",
"    O>%XX#Xoot9*-t4XXXXoX%$O    ",
"    O$%&X#XXX-4*4*+XoXo..%$O    ",
"    O$%&oXXoXXX*4XXo.....%$O    ",
"    O$#.&&o&ooX*-XX.....+%$O    ",
"    O$#...+o..o*-oXo.++..%$O    ",
"     $#...XoooX*-....+...5$O    ",
"    O$%..&oXoXX--+.&X.&.&5$O    ",
"    O$%.oo.oooX*-++..+&XX5$O    ",
"    O05+Xo&++&.*-...++.XX%$O    ",
"     1w3<3553354#<<<6<<3360O    "
};
