/* XPM */
static char *result[] = {
/* columns rows colors chars-per-pixel */
"40 40 64 1 ",
"  c #2E9D06",
". c #2F9E07",
"X c #319F07",
"o c #2E9C05",
"O c #32A008",
"+ c #319E07",
"@ c #309D07",
"# c #2D9B06",
"$ c #2F9F07",
"% c #34A108",
"& c #692006",
"* c #54B015",
"= c #581905",
"- c #5EB714",
"; c #601C06",
": c #278813",
"> c #68BD16",
", c #43A416",
"< c #359D08",
"1 c #48A716",
"2 c #278C16",
"3 c #772708",
"4 c #2D960A",
"5 c #2B9111",
"6 c #3CA113",
"7 c #4C1404",
"8 c #6EC215",
"9 c #882F0A",
"0 c #4CAB13",
"q c #1E6D13",
"w c #339017",
"e c #74C613",
"r c #207511",
"t c #517912",
"y c #0F440E",
"u c #449A16",
"i c #388715",
"p c #2F7A12",
"a c #237B0F",
"s c #389B17",
"d c #248115",
"f c #195D0E",
"g c #524F0E",
"h c #7DCC12",
"j c #3A9515",
"k c #659214",
"l c #19550E",
"z c #513A0A",
"x c #666B10",
"c c #21660D",
"v c #64B214",
"b c #144D0C",
"n c #9E3F0E",
"m c #70470D",
"M c #529214",
"N c #592808",
"B c #93370C",
"V c #525F0F",
"C c #578813",
"Z c #5BAA15",
"A c #146515",
"S c #71550F",
"D c #61A114",
"F c #64340A",
/* pixels */
"X. oo##o+O%+@+o#oo###XO+@.@o$O$ OOXXX oo",
"    ..XX@+X@@o##+X@#@OO+@@o#@$. .  ... .",
"OX..XXX+@+OO+o##XX.@XOO+X+@@X...$  .XOOO",
"O$..XXX+@@+X ##@++  .O%O%XX%%OXOOX..XXOO",
"$$. ..+@@@..  .OX@oo O%%X+X%%X+XO.o    .",
"$$.  ooo@....X%%OX o@X%%<<+OOX.+X.  .. .",
"o . .+XX@..o ..@XX.@@.OX@++@+X.XOX.XOX..",
" .$$.+++.XX  .@#@+$ @@..o@@o .+XX..OX$. ",
"o $XXX<@+..@oo@@<$% #@$# ##$$ @. #$O$X%X",
"# $OX+<%O$ ooooo Oo@<@$@@.$+<X$  # $$XOX",
"o .$OOO%%O.  @ o @4$%<@<<@$<<O$#o# $.$X+",
" o  $X++%%O$XO%66,666s<<$$+@.$$@oo.X. +X",
"#o..o##oO%61*>8888>-*0jj<$o44o$.#@XOX@o@",
"o .$XX+@@6,1>hhee8v---1uujsjjw#oo.+X%O@o",
"X. X%%%X#iws*eee8DZ>>>-*01,,,w5ooOXX%%++",
"...@oo@. 4w*88>vCM-----*011,,25. $$.X+@X",
"XX.O,0*---->vCgmzttM***00,,,6j:5#  @..@@",
"@X*8hhhhe*tgzN&3;&;NVMZ*MC1,,6s5::24#+@o",
" 0ehhhevMg;==;&3;&;;&3mSFmxxkkkku522:2#o",
".6->eeeZg=;==;&3;&=;&399&399nnnBxw:::rd@",
"@5iii,8t7=&=;=&&=;=;&399&399BnB9mtpi:qq@",
"o#452u8kN7=7==;;7==;;&99&&339n93xw2:AyrO",
" o #wu>eDg777=zgVV7==&39;;&&3B3Sj2rlyf@@",
".. #dpZeevxzVkv-*t777&33==&&39mi5:Afq:@#",
"#.X+0->->e8>>8>-t=777=&&77;Ngtw52:dad24#",
"o.$41****>88>>>-CxgzzN&&zgtii452:ddqffAa",
"  .4pppdiu0->>>-*0uuuMttu,,s55222qbyybyl",
"   .#5:arqqi1***011,6666ssss52222rfcfbba",
" XX .OO@#42a2j000116wwww:aqqqqradrq4.# O",
".OX  OXoo<$4w1*01,6:cllflbllbyyyyyy5o#oo",
"XX.  . o$<<:pu111,wrripqp4+<#5:arr:o@@@@",
"X o  o#o$OX4rcqpdpqc4O@@O%OX$o<$$$+@+XOO",
"O.oo ooo $OO 5acffc:O@...$XX #o+. o +OOO",
"X o   ooo.$. ..o##@XX+.XOX. oo.OOOXXOOX+",
"   .. ooo..  @@oo@XXOXo.$.oo#o $OOOOOX+@",
"     oooo..  ++@#oOO%O#o  o   oo .XOOX++",
".. oooooo . .XO+ooXXOO#o....$$. oo.XOOOX",
"X.o#o   o   .OOX..+@++o@X$ o $X.o#o.XXX+",
"O.o# X.oo oo +. @X@@+@@@.. o .X. oo +XX+",
"O.o#.OX   o#o o#oXo+X @oo@@@.+@@X. .O%%O"
};
