/* XPM */
static char *result[] = {
/* columns rows colors chars-per-pixel */
"40 40 199 2 ",
"   c #442B13",
".  c #493017",
"X  c #4D351A",
"o  c #4F391B",
"O  c #523C1D",
"+  c #4D431B",
"@  c #55421E",
"#  c #534D1D",
"$  c #5A4623",
"%  c #5D4C25",
"&  c #5B5226",
"*  c #5D502D",
"=  c #624B29",
"-  c #604621",
";  c #635425",
":  c #635329",
">  c #69542A",
",  c #675B2A",
"<  c #6A5C2C",
"1  c #675627",
"2  c #725D2E",
"3  c #6B5D31",
"4  c #675E3B",
"5  c #6D652B",
"6  c #736924",
"7  c #75642E",
"8  c #726D2E",
"9  c #76742A",
"0  c #6E6333",
"q  c #636034",
"w  c #716434",
"e  c #7B6534",
"r  c #746A34",
"t  c #7B6D3D",
"y  c #7A6B36",
"u  c #7D7335",
"i  c #7D723C",
"p  c #757132",
"a  c #6F6944",
"s  c #6E7040",
"d  c #7C7141",
"f  c #78774F",
"g  c #837B28",
"h  c #837B34",
"j  c #84753B",
"k  c #837D3B",
"l  c #8A783E",
"z  c #846E47",
"x  c #827541",
"c  c #867B43",
"v  c #8A7C44",
"b  c #867848",
"n  c #897E4A",
"m  c #917D4B",
"M  c #8D7F51",
"N  c #2C9706",
"B  c #2D9D07",
"V  c #2E9C08",
"C  c #279905",
"Z  c #309D06",
"A  c #36970A",
"S  c #329E09",
"D  c #3A9D0C",
"F  c #3B950E",
"G  c #3B9C12",
"H  c #2FA006",
"J  c #32A107",
"K  c #34A108",
"L  c #3AA20B",
"P  c #3CA214",
"I  c #3CA118",
"U  c #408D11",
"Y  c #58931E",
"T  c #479516",
"R  c #7F971D",
"E  c #43A318",
"W  c #49A41D",
"Q  c #50A11F",
"!  c #5E8422",
"~  c #4F9E20",
"^  c #599620",
"/  c #6F8D2A",
"(  c #78882F",
")  c #6D972A",
"_  c #7D9727",
"`  c #629E3F",
"'  c #4CA224",
"]  c #4BA626",
"[  c #55A62A",
"{  c #55A82A",
"}  c #5FA53C",
"|  c #5FB03C",
" . c #60A330",
".. c #6EAD4F",
"X. c #76BC54",
"o. c #6CB84A",
"O. c #7EBD60",
"+. c #85881F",
"@. c #8C8B2E",
"#. c #819A25",
"$. c #869B2B",
"%. c #939629",
"&. c #828837",
"*. c #928B3C",
"=. c #938B33",
"-. c #8C9437",
";. c #9B9937",
":. c #A59F3F",
">. c #8FA020",
",. c #8EA02B",
"<. c #9CB42C",
"1. c #9BAB34",
"2. c #9EB336",
"3. c #A6A836",
"4. c #8D834B",
"5. c #86894B",
"6. c #91864D",
"7. c #948B4C",
"8. c #918145",
"9. c #879C4A",
"0. c #999546",
"q. c #8F8351",
"w. c #928553",
"e. c #968B53",
"r. c #998E54",
"t. c #968A5A",
"y. c #9C8F5E",
"u. c #889D51",
"i. c #9C9254",
"p. c #9D935C",
"a. c #9A9C57",
"s. c #A1955D",
"d. c #A59A5E",
"f. c #A69954",
"g. c #9CA645",
"h. c #85AE54",
"j. c #97A755",
"k. c #80B759",
"l. c #A2A94F",
"z. c #A8A658",
"x. c #ABB355",
"c. c #9B8F60",
"v. c #999762",
"b. c #929272",
"n. c #A69C64",
"m. c #A99E63",
"M. c #A59B66",
"N. c #9DA16A",
"B. c #89B669",
"V. c #ADA56D",
"C. c #A6A468",
"Z. c #B1A56D",
"A. c #B3AA6B",
"S. c #B5AE6B",
"D. c #B5B96B",
"F. c #AEA472",
"G. c #B1A770",
"H. c #B4AA72",
"J. c #B8AC76",
"K. c #B8AE7A",
"L. c #B2B372",
"P. c #BAB275",
"I. c #B5BA72",
"U. c #BFB874",
"Y. c #BCB37B",
"T. c #BCBA7A",
"R. c #C0B77C",
"E. c #C3BA7D",
"W. c #C3B974",
"Q. c #97C474",
"!. c #AFC87F",
"~. c #B7C37D",
"^. c #CBC17D",
"/. c #A6AE8E",
"(. c #C4BB84",
"). c #CABD84",
"_. c #C1B886",
"`. c #A5CC8E",
"'. c #BEC49E",
"]. c #B9C889",
"[. c #CAC186",
"{. c #C4C38B",
"}. c #CCC48C",
"|. c #D0C48C",
" X c #CDC692",
".X c #CDCE92",
"XX c #D4CB93",
"oX c #D0C799",
"OX c #D4CE9B",
"+X c #D7D49E",
"@X c #DDD6A4",
"#X c #DFD9A6",
"$X c #C5CAB3",
"%X c #E4DDA7",
"&X c #EDE4A9",
"*X c #E0E0A9",
"=X c #EDEABC",
"-X c #EAE6B7",
";X c #F7F2CB",
/* pixels */
"S S B B B B B B S J J B Z J B B Z B B N B S K Z Z B Z B H H Z Z J S J S S Z B B ",
"B B S J B H J B B S S Z H J B N Z S B B S S K Z Z B Z B B B B B B B B S J Z Z B ",
"B H B B S B J S V S J J Z Z B B J K S B S S J J S J B S S J B B B J J S S J J J ",
"J J S B B S J Z B S J B B B B S J S S B S K J J S S J J J J Z J S J B B B Z S J ",
"J S S B S B B S S B J H C B J J B Z B Z Z J K K S S S J K S Z S S B B N S B N B ",
"B B B B B S N B S B B J H H K J S K B B Z Z K J Z S K S J K B S J B B B B J B J ",
"B B H Z B J S J B B Z B J S B S Z S B H S S K B Z S J S Z S S S J B S H S J S B ",
"B S S J Z Z S S S J K B S B B B Z S E { o.X.| E S S Z B C B S S H B S S J B B S ",
"C B J H J J Z Z Z Z J B B B S S Z ' ]..X*X+XU.~.k.] V H V V S B B B Z J B B S H ",
"B B B S J Z Z K J S B Z B S B C G X.7.i.P.E.^.W.W.C.[ V H K B B B S B J H J J S ",
"B B S H S K K J K S B S S N S E ~.OX_.c.c 7.U.^.W.i.v.] P P L C B B B B H B J S ",
"C C Z B B S S S K J Z Z Z B [ I.OX-X;X=X{.r.r.d.z.q.q.L.{.].Q.I C B S S B B S K ",
"C B J C B Z B Z Z K J J L Q a.Z.(.+X#X=X-XP.e.t x n 6.).&XXXC.B.I H B J J C Z J ",
"B J Z B J J Z B S Z S G 9.a.G.p.V.(. X#XOXr.i % & i r.[.&XXXv v N.} S S J S J Z ",
"H Z B J J J K J N B D j.P.|.#X(.e.0 M F. Xp.i 8 # 0 s.).%XXX6.u j r ` L K K S S ",
"B S J Z Z B Z J B Z T A.). X@XA.3 @ X o t.{.e.i 0 3 4.e.V.[.n.j j 7 t S J S S Z ",
"S J B B B B B C B G 5.J.E.Y.H.w = @ o   =  XK.8.j 2 > + & C.J.c y e q G V V Z B ",
"S B B B N B B A ' a.q.J.E.R.b : % @ X . O G./.7.w > e t.t r.D.l.7 7 & ..K B S S ",
"S S B K V B E 9.T.J.w._.).w.3 < @ O X X O F.(.4.3 2 m [.S.7.x.S.2 1 & /.P C S B ",
"J S H J J ' L.).G.x p.}.q.$ i < $ o X X $ oX}.v 3 t.M.M.XXA.s.S.v ; < b.G B S Z ",
"B B B S { D.|.XX(./.S.j $ w y , O X X   z %Xv.t 3 G.p.n (.|.R.m.r.0 1 f ] K J S ",
"B S B [ U./.m.R.Y.Y.m = < 7 > % O X   O c.G.4.w c.m.c i r.J.R.Z.i i 1 a X.L Z B ",
"B B A u.m.w.M.t ; 1 1 , 1 % ; > $ = > t w.w w 3 F.A.r.7.w r.S.A.0 i 0 q `.P B J ",
"H B ' i t w.t ; 9 p 5 U A Z F 7 z J.(.m.6.e.w & n U.W.S.4.r d.A.r t x * $XI C B ",
"B K Q 8 j w > y &.9 C H H H S 8.).[.A.7.7 A.d.3 p g.l.0.h & 5 k j 5 y n oXI B B ",
"B B S } &.( / Y D Z H C J H D 7.s.r.v h 9 A.s.&.-._ #.>.+.6 g 6 g e l z.] C V B ",
"H B B S S J S S C J B B Z J S Y k u h =.%.:.1.<.2._ #.%.@.@.3.;.0.f.j.L C B V B ",
"B S B S B B S B S S B C B J Z Z A T ;.0.*.*.$.,.-.$.-.) L L L D S P K B H J S B ",
"K Z Z S S K Z N Z B B B S J S B C B S L L D Z A D D S S S B B B H H C B S B B Z ",
"Z J Z Z S S B J B B B J S Z Z J S B H B B B B S J S B H V B V K B H H B N B B S ",
"B S B B B S B B J J J Z Z B J S S S S S S B B S K K K S B S J B Z S S Z S J B B ",
"S B B S B S B B Z J Z B B Z S B B S S B B J B S B S K J C S V Z Z B S B S S J K ",
"J S C Z Z B B B B S S B B S Z B B J B B H B Z S S B S S B B B S B B B B K J S S ",
"J B N J Z B B B B Z J S Z B S N B J S J S S K J S B J J B B B S J J B S K S S S ",
"C S H J Z Z J Z C B Z J S B B Z Z B Z Z S J B V S B B B B J J B J K J J J B S H ",
"H S B Z B B B B B B B S B J J B Z C J J J B B B B B B B B B B B B S H B J B B B ",
"H H S S C J S B B B S B Z J Z S Z B J Z K J Z B B J V J S B B B B B H B K J B S ",
"J B B B B B B B B S B B Z S J S S B B B J J B C B K B V B S J J S B B B S S S S ",
"J S B B J S S B B B B B C S N J Z J J N B S S S S V B B S H B Z Z N Z H B H K S ",
"J B C B B S Z B B B Z Z B Z B B S S B Z J B B B B V S S B S S Z S B J H J K J S "
};
