/* XPM */
static char *xpm_[] = {
/* columns rows colors chars-per-pixel */
"40 40 32 1 ",
"  c #2A9606",
". c #279805",
"X c #2A9A06",
"o c #2C9907",
"O c #2D9A07",
"+ c #2F9B07",
"@ c #289C05",
"# c #2A9C05",
"$ c #2B9E06",
"% c #2C9D06",
"& c #2E9C06",
"* c #2F9D07",
"= c #309B07",
"- c #309D07",
"; c #309A08",
": c #329F08",
"> c #349C08",
", c #349F08",
"< c #389F09",
"1 c #2CA006",
"2 c #2FA107",
"3 c #2FA207",
"4 c #2FA307",
"5 c #30A107",
"6 c #33A407",
"7 c #33A008",
"8 c #37A009",
"9 c #36A208",
"0 c #34A408",
"q c #35A508",
"w c #37A508",
"e c #38A409",
/* pixels */
"7-O%%O%%955=-55O-OOX$,9X-O;$22--9,:,-=O%",
"OO-5225-O=-:55O -5-%;,9;:%7%2$-%%-$O9--%",
"55--:%9-O::9-=O-299$%,,%92%%;,%%%,29%59:",
"55-%%,7-O::*OO%52,-%:9,2:779e5-:27%%5--9",
":,--:-%:7Xw2$$:2%,=-:,97>:-,w-=,-%;X:%X%",
"%%-O%; O7%$7$*w9,,OO%-w9=>,,:,O-:%OXO:%9",
"X%5-%559OX;*::**=9%$:-5-%,,=-5-59O,5:::%",
"%:-6--,-29w%;*%$O-,-%:%7O:-%$O,,5%--5---",
"$%7529-%O%:%%**;:95:-O%OO%%,%=--%--52%55",
"O%--::-9w:$=%%*$-9-X--:-:%%-59%$--%:259-",
"OX=5,9959,O7:X2;O-XX99-w,%:X:::O$%%%2O,-",
"$$-%%,%,95--,%%,=%XX9:%O-%9-%%9OOO:-%%,,",
".X5%%-%=:,559w%%%$O%5,:O25:%7,O%O2-99%=:",
"O5--5--%%;;%%9:;:XO99O::$OXO%,X-%O--::5-",
"2--59995X---X9:$%X=%,99:-%$%X7%-%9-9e9,:",
"--5--O-5%-9-X%;:%::%O9:,O:772%:%X55-5O:-",
"-9-%OXO$::::XX*%%%:O%:%9$;9%%-w$OOXO:O-O",
"--OOO%OO$99$*X%2%::2%%:%:%:%:-::%O%:--,:",
",5O5%2::::;;*.%9-$:9::% -5-:,:;95%-%---%",
",,555-;7,5*:2.O:OX::%X7,:-=,=O:%-:%O-O--",
"O%--:=-2%5--22w$%%%59X%,5%%9-2%O%%:,%:9;",
"O-%-,99792%-7202%;9-%%9,%----5%X:2O:9::%",
"--%-:,,:%%7%:9:::-55OO,%=95%5X-99;:;9:55",
"5%--O99:XO%%-::%O9--%------%9OO5%:%:,$%-",
"X9--%9%5-%-:--7$%---$:we9,,,<-%%2%:::-O$",
"XO=5,-O%--%%9-2%-,--:XO;,--:,,:-:%:9,%:%",
"5-5O%5--O5%%::O75-5-%;55-95-%,, X;,%%$;X",
"%-%:%-:%--OX%9-=OOO=:5:-%5%-:59%%:%-7::O",
"9=-9:9X%:%X%-e-%XO%99-O->,$$-%:-55X%-%%=",
"%57--,-2%-%7-;-9-%5%--%:,,:2%%O:%52$=OX:",
"%:-OO=%%955---5,:%,,:OO:e,9O%-9%-5:;:5X$",
"7%O:%,%O-:-%2%--%7;%%5%:%%w7$-O=-;:-:=:w",
"7:.7-%%-%,:O%9OOO:%%5O=-:--<-%%9%%%O<5-,",
"7%X7%-%%%O9--%-%%,:5,-:9:O55X-O522--e:,-",
"$7$7--5-$O-5=-%--%=%:9%%,%%%O59%9w559%:$",
"$7O;%%O-X$-,O5:%-$295-%O%%X%%X2OO-5%:%-:",
"%2::X2-%XO:%-9%:5%5-95-%%9%5-=%%%%5-e-%:",
"e%%-X%%5%:%O-95:-O-%-9%O2,%;O529=%%O,:-:",
":=OX9,-O-O%%$-X--9:X%=-5;:%%95%-=X-%%%,:",
":%$$%:-O-%-2O;%-O,O-9%%-$O,;O-:-9%55:w9%"
};
