/* XPM */
static char *result[] = {
/* columns rows colors chars-per-pixel */
"32 32 66 1 ",
"  c #FCFDFC",
". c #A07F7F",
"X c white",
"o c #472931",
"O c #FDFFFD",
"+ c #FCFCFB",
"@ c #42242C",
"# c #9F7D7D",
"$ c #4B2D35",
"% c #52353B",
"& c #563B41",
"* c #FEECD1",
"= c #FBFAF7",
"- c #FCE4C3",
"; c #F6F5F4",
": c #4E3138",
"> c #C9B7B7",
", c #CEC5C6",
"< c #7A5E60",
"1 c #6F5659",
"2 c #AFA0A2",
"3 c #5B4047",
"4 c #A38281",
"5 c #C0A293",
"6 c #E6C8A7",
"7 c #F0EEED",
"8 c #C9C0C0",
"9 c #DAD3D4",
"0 c #664D53",
"q c #98878B",
"w c #847075",
"e c #C3BABC",
"r c #BDB4B6",
"t c #FEF2DF",
"y c #FDF8EF",
"u c #C9AEA0",
"i c #AE928A",
"p c #FADDB6",
"a c #E8E0DC",
"s c #82696B",
"d c #DEDADA",
"f c #D2CACA",
"g c #8A787D",
"h c #DCBF9F",
"j c #A19296",
"k c #B8ADAF",
"l c #796368",
"z c #5F454C",
"x c #FEF6E7",
"c c #B19696",
"v c #FDF5E7",
"b c #B3A7AA",
"n c #B49A92",
"m c #EDEAE9",
"M c #BBB1B3",
"N c #E9E7E7",
"B c #907E82",
"V c #D7D0CF",
"C c #F2D3AE",
"Z c #F7E8D4",
"A c #9E7D7D",
"S c #A78888",
"D c #907265",
"F c #D4B79A",
"G c #A28575",
"H c #BFB6B8",
/* pixels */
"          O;8gr+                ",
"         +=q3%0dO               ",
"         ON<5hG,X               ",
"          ;nh6hmO               ",
"           *p6-+                ",
"          O -Fa;+     ==        ",
"         +a>niic>;O  v-t        ",
"        O9S##.##.>= y--v        ",
"       O7c#......4ft-*y         ",
"       O,........A5p*+          ",
"       +u.......2uC*=           ",
"        Z65....#8xt+            ",
"        =*64...#>O              ",
"         x-544..>O              ",
"          vpus<<,O              ",
"         O7iD$o:,X              ",
"         ONzo%$$eX              ",
"         Oa3o1%oMX              ",
"         Od&ol&obX              ",
"         O9&ow3o2X              ",
"         XV%oBz@jX              ",
"         Xf:oq0@qO              ",
"         X,:oj1@B               ",
"         X8$o2<@w+              ",
"         Xe$okl@s=              ",
"         Xro$Hw@l;              ",
"         XMo$8g@1;O             ",
"         Xko:fq@07O             ",
"         Xko%9j@0mO             ",
"         OV<l7r1s9+O            ",
"         Xe&&r2%:3gdO           ",
"         Xe&:w2z3&&bO           "
};
