/* XPM */
static char *result[] = {
/* columns rows colors chars-per-pixel */
"32 32 15 1 ",
"  c #E6A599",
". c #E5A296",
"X c #FFBBA3",
"o c #FAB7A7",
"O c #F5AE9B",
"+ c #EAA99B",
"@ c #F0B0A3",
"# c #F2AA9D",
"$ c #F7B4A7",
"% c #FBB69E",
"& c #E5998D",
"* c #E69E92",
"= c #F9B1A0",
"- c #F2A597",
"; c #F1A091",
/* pixels */
" &-*&#&;+&; &-*&#&*+&; &-.&#&*#&",
" ;O.;@*-+*# *O.;@*-#*# *O.;@*-#*",
" -=.O$*O#.= -=.#$*O#.=+-=.#$*OO.",
" -=.O$*O#.= -=.#$*O#.=+-=.#$*O#.",
" Oo.=$.%@ o+#o.=$.%@ o+#o O$.%@.",
" Oo.=$.o@ o+Oo.=$.o@ o+#o =$.%@.",
" Oo.=$.o@ o+Oo.=$.%@ X+#X =$.%@.",
" OX %o.X@+X+OX %o X@+X+OX %o.X@.",
" OX %o.X@+X+OX %o X@+X+OX %o.X@.",
" OX %o.X@+X+OX %o X@+X+OX %o.X@.",
" OX %o.X@+X+OX %o X@+X+OX %o.X@.",
" OX %o.X@+X+OX %o X@+X+OX %o.X@.",
" OX %o.X@+X+OX %o X@+X+OX %o.X@.",
" OX %o.X@+X+OX %o X@+X+OX %o.X@.",
" OX %o.X@+X+OX %o X@+X+OX %o.X@.",
" OX %o.X@+X+OX %o X@+X+OX %o.X@.",
" OX %o.X@+X+OX %o X@+X+OX %o.X@.",
" OX %o.X@+X+OX %o X@+X+OX %o.X@.",
" OX %o.X@+X+OX %o X@+X+OX %o.X@.",
" Oo %o.X@+X+OX %o.%@+X+OX %o.%@.",
" Oo =$.o@+o+#o =o.o@+X+#o =o.%@.",
" Oo =$.o@+o+#o =o.%@+X+#o =o.%@.",
" #o.=$.$@ o+#o.=$.$@ o++o O$.$@.",
" #o.=$.$@ $++o.O$.$@ $++o.O$.$@.",
" #o.=$.$@ o++o.O$.$@ $++o.O$.$@.",
" #o.=$.$@ o++o.O$.$@ $++o.O$.$@.",
" -$.#@.O@*= -$.#@.O@*=+-$.-@.O@&",
" -$*-#.#@*O -=.-O.#@*O -=.-O.#@&",
" -=*-#.#@*O -=.-O.#@*O -=.-O.#@&",
" ;#*;#&-+&- *#*;#&-#&- *#.;#*;#&",
" &#*;#&;+&- &#*;#&;+&- &#.;#&;#&",
" &-*&#&;+&; &-*&#&*+&; &-.&#&*#&"
};
