/* XPM */
static char *b68bc02f79444e1f8e1f45861464ab7eZFrtaoA7EJwDiozM[] = {
/* columns rows colors chars-per-pixel */
"40 40 166 2 ",
"   c #5F7273",
".  c #657676",
"X  c #6E7D7B",
"o  c #727F7E",
"O  c #74817E",
"+  c #758682",
"@  c #7B8683",
"#  c #7F8985",
"$  c #7A9A8D",
"%  c #7E9E91",
"&  c #818B86",
"*  c #848F88",
"=  c #8B8F8B",
"-  c #8D928C",
";  c #92948E",
":  c #95998F",
">  c #8D9690",
",  c #8E9892",
"<  c #949690",
"1  c #939C95",
"2  c #9B9C95",
"3  c #949E99",
"4  c #9B9E99",
"5  c #A09F98",
"6  c #84A396",
"7  c #85A499",
"8  c #89A79C",
"9  c #8CA99E",
"0  c #9EA396",
"q  c #97A09B",
"w  c #9DA19E",
"e  c #A2A296",
"r  c #A4A39A",
"t  c #A9A69B",
"y  c #A6AB9A",
"u  c #ADAA9E",
"i  c #B1AC9F",
"p  c #ADB09F",
"a  c #8EADA3",
"s  c #9EA3A0",
"d  c #91AEA5",
"f  c #92B0A7",
"g  c #95B3AA",
"h  c #99B6AD",
"j  c #9AB8AE",
"k  c #9DBCB1",
"l  c #A0A4A1",
"z  c #AFACA1",
"x  c #B2AEA1",
"c  c #AFB0A0",
"v  c #A1B7AF",
"b  c #B5B2A3",
"n  c #BCB6A5",
"m  c #BCB9A7",
"M  c #BDB7A8",
"N  c #BEB9A8",
"B  c #A2B6B0",
"V  c #A1BEB4",
"C  c #A9BFB7",
"Z  c #A6BFB8",
"A  c #ABBFB9",
"S  c #B6BEBC",
"D  c #C0B7A5",
"F  c #C1BAA7",
"G  c #C2BDAA",
"H  c #9FC0B7",
"J  c #A2C1B6",
"K  c #A4C4BB",
"L  c #ACC4BD",
"P  c #A6C8BF",
"I  c #ABC8BF",
"U  c #B0C3BF",
"Y  c #B6C8BF",
"T  c #C6C1AB",
"R  c #CAC3AE",
"E  c #C8C2AC",
"W  c #C9C4AD",
"Q  c #C8C5AD",
"!  c #CBC4AD",
"~  c #C9C6AD",
"^  c #C9C5AE",
"/  c #CBC5AE",
"(  c #CBC7AE",
")  c #CAC7AE",
"_  c #CCC7AE",
"`  c #CAC4AD",
"'  c #CCC8AF",
"]  c #CDC8AF",
"[  c #CCC8AF",
"{  c #CCC6B0",
"}  c #CDC9B1",
"|  c #CFC9B0",
" . c #CFCAB1",
".. c #CFCBB1",
"X. c #CFCCB1",
"o. c #CECAB1",
"O. c #D0CBB1",
"+. c #D3CAB3",
"@. c #D0CAB2",
"#. c #D1CDB2",
"$. c #D3CFB3",
"%. c #D7CDB5",
"&. c #D2CDB3",
"*. c #D9CFB7",
"=. c #D6CFB8",
"-. c #D4D0B4",
";. c #D5D1B5",
":. c #D5D1B4",
">. c #D6D2B5",
",. c #D7D0B6",
"<. c #D7D2B6",
"1. c #D6D1B5",
"2. c #D9D3B7",
"3. c #D8D2B7",
"4. c #D2D1B8",
"5. c #DBD1B8",
"6. c #DAD2B8",
"7. c #DAD3B8",
"8. c #DBD3B8",
"9. c #DBD3B9",
"0. c #DBD4B8",
"q. c #DBD4B9",
"w. c #DCD4B9",
"e. c #DDD4B9",
"r. c #DCD5B9",
"t. c #DCD4BA",
"y. c #DDD4BA",
"u. c #DFD6BB",
"i. c #DDD5BA",
"p. c #E0D5BC",
"a. c #E0D7BC",
"s. c #E0D6BC",
"d. c #E2D8BD",
"f. c #E2D9BD",
"g. c #E3D9BD",
"h. c #E5DBBE",
"j. c #E6DABF",
"k. c #E2D9BD",
"l. c #A7C9C0",
"z. c #ACCBC3",
"x. c #B4C6C1",
"c. c #B8C6C4",
"v. c #B3CBC4",
"b. c #B9CBC6",
"n. c #B7CEC8",
"m. c #B1CFC8",
"M. c #BBCDC9",
"N. c #BDCDC9",
"B. c #B3D1C9",
"V. c #BCD2CD",
"C. c #BED5D0",
"Z. c #C0CFC7",
"A. c #C1CECD",
"S. c #C4D2CF",
"D. c #C4D1CE",
"F. c #C5D4D1",
"G. c #CCD6D5",
"H. c #CBD8D2",
"J. c #CFD7D8",
"K. c #CFD8D8",
"L. c #D3DAD6",
"P. c #D0D8D8",
"I. c #E7DAC0",
"U. c #E7DCC0",
"Y. c #E8DBC1",
"T. c #E8DCC0",
/* pixels */
"Y.p.9.} b e @ / ;.;.} #.O.T t e b t @ < q.y.I.%./ ' n T b t e e < X b y./ F F r ",
"9.} T n b i & d.p.;._ E x i t e b n - 1 d.2.y.O.;.#.x u i G ;.;.b O E G G / T F ",
"y.T b z x m * j.2._ n u i i i t b / e 1 d.} y.9.E G b i m G ;.;.T @ N T b N m E ",
"G z x x z T & y.y.} T b u i i x / F = 0 j.9.9.G m m F F F } ;.;.G ; / F z z n #.",
"u x t t t G - b y.X.#.' T / / / F e = t q.;.9.O.%./ / / F } X.#.G 2 ' G r x z M ",
"b r e t T ; = ; < < < < < < < < ; - - - < ; < < < < < < ; < < < ; ; b G b u b M ",
"e 0 e n T < 1 , 3 1 3 3 3 3 3 3 3 3 3 s s l 3 3 3 3 3 3 3 3 3 > 3 l 2 G b n u u ",
"- u t - # < Z a k j k J V J J V K k Z J.S.M.V k k V V V V j k a C S 2 2 2 < - < ",
"@ - # .   - A B h K K V V J J V K J n.J.L g f K k K K K K d d g h < z N N M b 2 ",
"N m b y 0 @ h x.6 h P K V V V V V J c.N.g h J l.l.K K K k h d d d 1 M ;.O.T T e ",
"j.d.9.=.4.+ d A v $ j l.K V K K J V x.x.g z.K K J J V h j h h d d 1 n G F m u b ",
";.$.$.{ G < a Z L 9 j K l.P K K V K G.x.h J V K K V h h g j g h g 1 N _ m u i m ",
"} b G #.G < d d A Z 6 k K K V V V x.J.x.j J K P K k h g g h k h h 3 N } G b t n ",
"G r u n N 1 g f f c.B g k V V V x.G.J.N.L l.K K k g k K K V k k j 1 m #.} E E F ",
"u i i z b 2 K k h c.P.U b.b.b.b.G.J.C.F.n.K J V J K P k K J K J V 3 M q.#.%.G m ",
"i u i i u 1 K V L F.L Z Z Z Z A.J.F.z.V.b.K J K K l.K k V K K J V 3 M y.p.d.F T ",
"u i r r i 2 L V b.U f d d g g h A.F.K z.z.K J P l.l.K J V K P K V 3 M p.y.y.E } ",
"n t e r b 2 V J c.h h V j f f d g k N.K P m.K J K K K J j K l.K V 3 N q.*.' p.;.",
"/ i i m m > k L A g J k f j h d d h b.K J v.V.B.L K J k K l.K K K 3 F d.d.y.d.2.",
"m x F F m + h L L K K f h k g d d a V F.v.V.F.F.L.C.n.K L z.V.V.n.4 u b b p y y ",
"- - - - 2 & h G.L K K k K k g h f g B J.G.F.F.b.b.v.c.v.v.F.J.J.J.w e < @ - @ o ",
"b b y y < < b.H.F.z.K J l.K k j j J N.G.v.V Z g g g g g h A M.J.J.w N T m E x 2 ",
"y.j.y.y.n 2 V.C.J.v.J K K J V L k n.G.v.j d d g K j k g a a j N.J.w n E / F m b ",
"y._ y.9.G 2 V.G.J.G.F.v.l.K c.F.V.G.N.a 7 f k K H f f f d g h j N.r m _ b r r r ",
"y.p.{ / G 4 F.J.J.F.A.b.x.x.x.L F.F.h 9 d h g g g h h f g j d d b.w m T u u e t ",
"d.d.{ F G 4 F.J.S.k d 8 % $ d A V.A.d g d g h V k h h h h d f f L w n G i i u x ",
"#.%./ m m 4 F.K.U a d d f d 6 $ h N.f K f k J K J h h h h f h h k 3 M / u i i z ",
"#.E E G m 4 F.A.h d h g h d f a % d Z g Y L K P K h g j V j h k V 3 N #.n t i M ",
"G n t b m 4 A.h g k h j g g g d a 9 x.d b.v.P J k h k K K k h J V 3 N ;./ b E X.",
"m b u m m 4 c.g V V k g g j h g d a d v.Z.V.B.P k J P P J J K V J 3 N ;.-.#.#.{ ",
"F m x i m 1 d h h d g j h V h k g 9 9 A.z.S.V.V.J k P k J l.l.J M.w F j.d.j.O.t.",
"#.G E b n 2 B h d g k h V k h k g f g S.v.j z.H.F.B.I V z.B.z.K D.w u N N m b e ",
"/ _ G M 0 4 N.d g k V V V V j k j k g L D.j k K S.V.V.B.z.K K V.J.4 = ; 2 - - # ",
"t e = @ # < S.A h J V J I V L K J J k B A.v.V k J K I K M.N.V.G.J.w t x F F F b ",
"n N u u 2 = s w 1 3 3 3 w 3 q 3 3 3 3 1 3 s 3 3 1 1 3 3 s l l s s < / { M T 9.p.",
"G G F _ ' 2 = = - ; < ; ; < < < < ; - = ; < < < < < ; < ; ; ; ; - < } } M G $.I.",
"} { M x Q ' - o < E ;.#.#./ / / / N < o b y.;.t.2.;.' ' / F #.T t T } z M / #.;.",
"G M m u b G 2 o u d.;.} G i i u b / m # c d.9.y.d.$.} G D F #./ t m n z b G G ;.",
"} z x t e e e = r U.;.m r i i i t m / : y d._ y.d.%.E b i m T _ 2 2 e t x z / T.",
";.{ z x t 5 t 2 0 *.#./ x i i r e m b & 0 y.y./ T T E t u i E N < 2 e x z E ;.q."
};
